<?xml version="1.0" encoding="UTF-8" standalone="no"?>
<!-- Created with Inkscape (http://www.inkscape.org/) -->

<svg
   width="38.60334mm"
   height="92.819878mm"
   viewBox="0 0 38.60334 92.819878"
   version="1.1"
   id="svg1"
   inkscape:version="1.4 (86a8ad7, 2024-10-11)"
   sodipodi:docname="babyCat.svg"
   xmlns:inkscape="http://www.inkscape.org/namespaces/inkscape"
   xmlns:sodipodi="http://sodipodi.sourceforge.net/DTD/sodipodi-0.dtd"
   xmlns="http://www.w3.org/2000/svg"
   xmlns:svg="http://www.w3.org/2000/svg">
  <sodipodi:namedview
     id="namedview1"
     pagecolor="#ffffff"
     bordercolor="#000000"
     borderopacity="0.25"
     inkscape:showpageshadow="2"
     inkscape:pageopacity="0.0"
     inkscape:pagecheckerboard="0"
     inkscape:deskcolor="#d1d1d1"
     inkscape:document-units="mm"
     inkscape:zoom="1.0267829"
     inkscape:cx="173.84395"
     inkscape:cy="251.7572"
     inkscape:window-width="1920"
     inkscape:window-height="1017"
     inkscape:window-x="-8"
     inkscape:window-y="-8"
     inkscape:window-maximized="1"
     inkscape:current-layer="g109" />
  <defs
     id="defs1" />
  <g
     inkscape:label="Capa 1"
     inkscape:groupmode="layer"
     id="layer1"
     transform="translate(-94.985417,-96.00194)">
    <g
       id="g112"
       transform="matrix(0.26458333,0,0,0.26458333,65.88097,62.706083)">
			<g
   id="g109">
				<g
   id="g28">
					<g
   id="g5">
						<path
   style="fill:#ffffff"
   d="m 249.02,426.795 c -0.183,-3.569 -0.458,-7.134 -0.692,-10.7 -0.471,-7.174 -0.898,-14.353 -1.419,-21.524 -0.419,-5.77 -1.037,-11.662 -3.117,-17.106 -0.976,-2.556 -2.28,-4.978 -3.992,-7.118 -1.767,-2.21 -4.048,-4.279 -6.855,-4.998 -2.335,-0.598 -5.067,-0.09 -6.763,1.711 -1.549,1.644 -1.731,4.196 -0.446,6.061 0.386,0.56 0.963,0.895 1.477,1.311 8.77,7.082 6.489,21.326 5.034,31.916 -0.965,7.026 -2.26,14.09 -1.9,21.211 0.245,4.845 1.255,10.949 5.7,13.813 4.624,2.98 9.976,-0.496 11.855,-5.011 1.253,-3.008 1.283,-6.362 1.118,-9.566 z"
   id="path3" />

						<g
   id="g4">
							<path
   style="fill:#231f20"
   d="m 249.422,426.795 c -0.379,-7.291 -0.939,-14.576 -1.409,-21.862 -0.236,-3.658 -0.473,-7.317 -0.748,-10.972 -0.252,-3.345 -0.582,-6.694 -1.23,-9.988 -1.201,-6.105 -3.663,-12.543 -8.576,-16.636 -2.087,-1.739 -4.69,-2.914 -7.453,-2.558 -2.579,0.332 -5.026,2.053 -5.454,4.745 -0.188,1.186 0.027,2.422 0.626,3.465 0.651,1.135 1.893,1.772 2.813,2.67 1.735,1.696 2.993,3.811 3.8,6.091 1.691,4.777 1.63,10.028 1.217,15.014 -0.48,5.8 -1.488,11.547 -2.256,17.313 -0.83,6.234 -1.472,12.781 -0.129,18.993 0.99,4.58 4.083,10.179 9.545,9.8 2.443,-0.169 4.666,-1.538 6.243,-3.363 1.929,-2.233 2.751,-5.076 2.993,-7.974 0.132,-1.576 0.096,-3.16 0.018,-4.738 -0.025,-0.514 -0.829,-0.517 -0.803,0 0.154,3.1 0.146,6.31 -1.014,9.24 -0.937,2.365 -2.814,4.455 -5.168,5.465 -2.438,1.047 -5.054,0.582 -7.066,-1.123 -1.87,-1.584 -2.978,-3.839 -3.636,-6.163 -1.597,-5.635 -1.164,-11.815 -0.503,-17.555 0.658,-5.711 1.663,-11.377 2.303,-17.091 0.978,-8.727 1.362,-19.812 -6.432,-25.725 -1.194,-0.906 -1.867,-2.114 -1.814,-3.645 0.046,-1.344 0.714,-2.566 1.763,-3.393 2.255,-1.777 5.421,-1.56 7.838,-0.263 2.542,1.364 4.533,3.7 6.06,6.104 1.715,2.698 2.878,5.701 3.684,8.786 1.669,6.39 1.889,13.088 2.325,19.647 0.46,6.918 0.895,13.838 1.36,20.756 0.111,1.653 0.215,3.306 0.301,4.96 0.026,0.514 0.829,0.517 0.802,0 z"
   id="path4" />

						</g>

					</g>

					<g
   id="g7">
						<path
   style="fill:#ffffff"
   d="m 238.104,326.143 c -0.691,-5.145 -4.772,-10.286 -10.386,-9.85 -0.238,0.018 -0.359,0.212 -0.363,0.399 -2.594,0.964 -5.219,1.872 -7.782,2.915 -1.862,0.758 -3.757,1.714 -4.96,3.386 -2.751,3.821 0.011,9.104 3.216,11.669 3.65,2.922 8.604,3.541 12.965,1.951 2.146,-0.782 4.213,-2.056 5.643,-3.862 1.502,-1.897 1.986,-4.232 1.667,-6.608 z"
   id="path5" />

						<g
   id="g6">
							<path
   style="fill:#231f20"
   d="m 238.542,326.023 c -0.429,-3 -1.888,-5.937 -4.209,-7.921 -1.089,-0.93 -2.366,-1.649 -3.758,-2.009 -0.875,-0.227 -3.419,-0.859 -3.659,0.478 0.106,-0.106 0.212,-0.212 0.318,-0.318 -2.226,0.826 -4.468,1.61 -6.68,2.476 -1.744,0.682 -3.516,1.385 -4.977,2.587 -2.796,2.3 -3.077,5.863 -1.658,9.023 1.446,3.22 4.252,5.697 7.576,6.843 3.564,1.229 7.51,0.865 10.89,-0.747 1.922,-0.917 3.723,-2.275 4.891,-4.079 1.193,-1.842 1.545,-4.059 1.281,-6.213 -0.07,-0.573 -0.98,-0.58 -0.909,0 0.307,2.511 -0.275,4.96 -2.015,6.849 -1.615,1.752 -3.837,2.934 -6.122,3.55 -4.421,1.193 -9.393,0.061 -12.57,-3.321 -2.902,-3.09 -4.505,-8.171 -0.722,-11.262 1.927,-1.574 4.499,-2.345 6.796,-3.196 1.299,-0.481 2.604,-0.948 3.903,-1.427 0.197,-0.073 0.498,-0.122 0.665,-0.252 0.121,-0.094 0.165,-0.234 0.282,-0.311 0.33,-0.217 1.287,-0.027 1.658,0.029 4.573,0.686 7.527,5.163 8.142,9.462 0.083,0.577 0.959,0.332 0.877,-0.241 z"
   id="path6" />

						</g>

					</g>

					<g
   id="g8">
						<path
   style="fill:#ffffff"
   d="m 252.092,299.638 c -1.423,-1.182 -3.26,-1.961 -5.135,-1.822 -1.866,0.139 -3.456,1.201 -4.556,2.676 -2.519,3.376 -2.665,7.957 -5.485,11.172 -1.247,1.421 -2.816,2.545 -4.545,3.311 0.195,0.875 0.379,1.752 0.543,2.634 0.589,3.16 0.86,6.35 1.005,9.559 0.148,3.287 0.151,6.58 0.008,9.867 -0.069,1.592 -0.14,3.193 -0.339,4.774 -0.124,0.986 -0.282,1.967 -0.448,2.948 3.61,-2.333 6.916,-5.139 9.817,-8.358 6.152,-6.828 10.548,-15.396 12.13,-24.477 0.744,-4.264 0.602,-9.295 -2.995,-12.284 z"
   id="path7" />

						<path
   style="fill:#010101"
   d="m 255.889,307.358 c -0.11,-2.693 -0.869,-5.417 -2.784,-7.398 -1.635,-1.691 -3.989,-2.822 -6.374,-2.575 -5.773,0.596 -6.533,7.464 -8.604,11.609 -0.692,1.385 -1.615,2.583 -2.792,3.592 -0.702,0.601 -1.468,1.118 -2.283,1.554 -0.263,0.141 -0.513,0.296 -0.79,0.352 0.069,0.303 0.138,0.606 0.204,0.909 0.085,-0.02 0.172,-0.046 0.265,-0.088 1.08,-0.487 2.097,-1.133 3.012,-1.883 1.669,-1.369 2.828,-3.092 3.666,-5.066 1.571,-3.702 2.665,-9.903 7.752,-10.105 2.289,-0.091 4.5,1.229 5.87,3 1.492,1.929 1.974,4.437 1.964,6.826 -0.018,4.553 -1.443,9.225 -3.156,13.405 -1.751,4.273 -4.121,8.293 -6.966,11.928 -0.71,0.908 -1.454,1.788 -2.223,2.646 -2.796,3.085 -5.961,5.779 -9.399,8.039 -0.068,0.413 -0.137,0.826 -0.208,1.239 2.52,-1.59 4.902,-3.412 7.109,-5.453 1.086,-1.005 2.123,-2.061 3.116,-3.158 3.605,-4.021 6.593,-8.56 8.804,-13.49 1.129,-2.518 2.048,-5.13 2.727,-7.804 0.667,-2.625 1.2,-5.358 1.09,-8.079 z"
   id="path8" />

					</g>

					<g
   id="g10">
						<path
   style="fill:#ffffff"
   d="m 250.322,317.639 c -3.227,-8.606 -8.807,-16.454 -16.138,-22.041 -3.442,-2.623 -7.972,-4.815 -12.282,-2.999 -1.705,0.718 -3.242,1.99 -3.982,3.718 -0.737,1.721 -0.526,3.621 0.276,5.277 1.836,3.79 5.835,6.03 7.39,10.015 0.701,1.796 0.973,3.747 0.839,5.671 -1.784,2.315 -4.122,4.312 -5.943,6.48 -0.57,0.679 -1.102,1.387 -1.596,2.119 -3.795,0.094 -7.592,-0.275 -11.297,-1.129 -2.2,-0.507 -4.343,-1.192 -6.45,-2 -2.032,-0.779 -4.091,-1.542 -6.306,-1.397 -2.231,0.147 -4.338,0.991 -6.417,1.749 -2.18,0.794 -4.361,1.589 -6.541,2.383 -4.55,1.658 -9.101,3.316 -13.651,4.974 -4.779,1.741 -9.558,3.483 -14.337,5.224 -0.106,-0.003 -0.212,0.031 -0.286,0.104 -0.245,0.089 -0.489,0.178 -0.734,0.268 -0.454,0.166 -0.258,0.898 0.201,0.731 0.148,-0.054 0.296,-0.108 0.444,-0.162 0.265,9.876 4.304,19.392 10.685,26.876 6.719,7.88 16.008,13.266 25.914,16.073 10.44,2.958 21.935,3.343 32.37,0.168 9.378,-2.853 17.905,-8.896 22.847,-17.472 0.278,-0.483 0.543,-0.973 0.794,-1.47 2.93,-4.828 5.05,-10.148 6.235,-15.68 1.96,-9.155 1.251,-18.715 -2.035,-27.48 z"
   id="path9" />

						<path
   style="fill:#010101"
   d="m 252.128,321.739 c -0.392,-1.427 -0.852,-2.834 -1.367,-4.221 -1.908,-5.052 -4.561,-9.795 -7.918,-14.028 -1.714,-2.162 -3.61,-4.181 -5.671,-6.016 -2.023,-1.802 -4.203,-3.535 -6.669,-4.69 -2.441,-1.143 -5.209,-1.724 -7.848,-0.936 -2.254,0.672 -4.342,2.241 -5.222,4.472 -2.13,5.399 3.615,9.237 6.341,12.984 0.91,1.252 1.549,2.623 1.902,4.133 0.21,0.9 0.316,1.818 0.327,2.742 0.005,0.384 0.043,0.76 -0.146,1.093 -0.187,0.329 -0.525,0.637 -0.775,0.921 -2.142,2.434 -4.562,4.57 -6.432,7.234 -4.908,0.082 -9.788,-0.595 -14.469,-2.087 -2.223,-0.709 -4.369,-1.755 -6.663,-2.225 -2.254,-0.462 -4.442,-0.092 -6.603,0.614 -4.806,1.57 -9.529,3.453 -14.28,5.184 -4.859,1.77 -9.717,3.541 -14.576,5.311 -2.668,0.972 -5.322,2.008 -8.012,2.92 -0.627,0.213 -1.814,0.382 -1.887,1.213 -0.062,0.705 0.416,0.878 0.922,0.832 0.473,10.698 5.222,20.947 12.611,28.64 7.455,7.762 17.446,12.774 27.888,15.089 11.227,2.489 23.442,2.077 34.057,-2.614 4.624,-2.043 8.906,-4.908 12.474,-8.497 1.755,-1.766 3.335,-3.714 4.689,-5.804 0.773,-1.193 1.417,-2.454 2.134,-3.679 0.736,-1.258 1.418,-2.548 2.042,-3.865 5.117,-10.79 6.314,-23.189 3.151,-34.72 z m -5.979,38.124 c -1.337,2.286 -2.586,4.547 -4.264,6.612 -3.121,3.84 -7.025,6.996 -11.353,9.381 -9.807,5.405 -21.552,6.634 -32.51,4.967 -10.534,-1.602 -20.807,-5.842 -28.849,-12.924 -7.95,-7 -13.554,-16.812 -14.905,-27.374 -0.166,-1.295 -0.262,-2.597 -0.301,-3.902 -0.005,-0.157 -0.099,-0.313 -0.232,-0.397 0.062,-0.027 0.124,-0.054 0.184,-0.076 0.685,-0.25 1.372,-0.497 2.057,-0.746 l 3.795,-1.383 c 2.577,-0.939 5.154,-1.878 7.731,-2.817 5.211,-1.899 10.421,-3.797 15.632,-5.696 2.54,-0.926 5.068,-1.899 7.627,-2.771 2.583,-0.881 5.036,-1.228 7.693,-0.451 2.446,0.716 4.775,1.771 7.238,2.451 2.504,0.691 5.071,1.151 7.656,1.4 1.355,0.13 2.716,0.199 4.078,0.208 0.169,10e-4 0.365,0.018 0.568,0.031 -3.342,5.098 -4.362,11.578 -2.706,17.466 0.132,0.469 0.863,0.27 0.731,-0.201 -1.654,-5.878 -0.541,-12.306 2.916,-17.309 0.043,-0.012 0.086,-0.023 0.126,-0.039 0.382,-0.159 0.664,-0.832 0.908,-1.159 1.491,-2 3.338,-3.684 5.034,-5.503 0.427,-0.458 0.845,-0.924 1.245,-1.407 0.341,-0.411 0.619,-0.68 0.649,-1.22 0.065,-1.183 -0.04,-2.383 -0.284,-3.541 -0.446,-2.112 -1.441,-3.934 -2.808,-5.587 -2.562,-3.1 -7.562,-6.927 -5.399,-11.535 0.974,-2.074 3.163,-3.428 5.367,-3.828 2.4,-0.436 4.847,0.292 6.964,1.401 4.033,2.113 7.523,5.53 10.445,8.977 2.986,3.523 5.462,7.477 7.379,11.677 0.479,1.049 0.917,2.114 1.324,3.193 4.107,11.049 4.087,23.277 -0.034,34.32 -1.007,2.694 -2.249,5.3 -3.702,7.782 z"
   id="path10" />

					</g>

					<g
   id="g22">
						<g
   id="g17">
							<g
   id="g16">
								<g
   id="g15">
									<path
   style="fill:#ffffff"
   d="m 202.762,325.983 c 1.666,-1.569 3.246,-3.224 4.709,-4.966 3.718,-4.426 6.442,-9.616 6.936,-15.447 1.07,-12.628 -6.667,-23.559 -15.024,-32.177 -0.838,-0.864 -1.688,-1.716 -2.545,-2.56 0.256,-3.946 0.389,-7.925 -0.244,-11.837 -0.567,-3.507 -1.717,-8.162 -5.232,-9.862 -3.448,-1.668 -7.486,0.393 -10.528,2.028 -3.455,1.856 -6.7,4.107 -9.648,6.694 -2.107,1.849 -4.063,3.868 -5.844,6.031 -8.04,1.677 -15.699,5.02 -22.397,9.776 -1.07,0.76 -2.112,1.558 -3.128,2.388 -7.447,0.393 -14.803,2.198 -21.574,5.348 -3.282,1.527 -7.203,3.297 -7.625,7.36 -0.367,3.531 1.515,7.138 3.58,9.87 2.091,2.765 4.845,5.005 7.969,6.495 0.322,5.293 1.249,10.539 2.751,15.618 1.123,5.598 3.143,10.934 6.771,15.597 3.365,4.325 7.944,7.425 13.21,8.939 5.273,1.516 10.878,1.558 16.285,0.837 2.817,-0.375 5.615,-0.937 8.376,-1.666"
   id="path11" />

									<path
   style="fill:#bcb6b0"
   d="m 171.661,272.234 c -1.539,-2.898 -5.428,-4.026 -8.364,-2.668 -3.246,1.502 -4.377,5.679 -2.871,8.77 0.53,1.321 1.532,2.444 2.858,3.062 1.687,0.786 3.649,0.582 5.211,-0.332 0.285,-0.107 0.562,-0.235 0.828,-0.387 2.827,-1.62 3.853,-5.593 2.338,-8.445 z"
   id="path12" />

									<path
   style="fill:#bcb6b0"
   d="m 124.856,320.267 c 0.171,0.852 0.363,1.697 0.578,2.535 1.206,0.797 2.556,1.356 4.017,1.576 2.339,0.352 4.718,-0.138 6.897,-0.992 2.477,-0.971 4.76,-2.401 6.882,-3.992 2.318,-1.738 4.393,-3.789 6.203,-6.05 1.848,-2.309 3.423,-4.838 4.676,-7.517 1.259,-2.693 2.195,-5.541 2.727,-8.467 0.528,-2.903 0.655,-5.884 0.301,-8.816 -0.181,-1.5 -0.456,-3.025 -0.955,-4.454 -0.572,-1.639 -1.205,-3.259 -1.991,-4.809 -0.417,-0.821 -0.876,-1.621 -1.385,-2.388 -0.426,-0.641 -0.875,-1.283 -1.403,-1.845 -0.902,-0.96 -1.996,-1.728 -3.07,-2.482 -0.727,-0.51 -1.463,-1.01 -2.176,-1.54 -1.114,0.685 -2.207,1.404 -3.275,2.162 -1.07,0.76 -2.112,1.558 -3.128,2.388 -7.447,0.393 -14.803,2.198 -21.574,5.348 -3.282,1.527 -7.203,3.297 -7.625,7.36 -0.367,3.531 1.515,7.138 3.581,9.87 2.091,2.765 4.845,5.005 7.969,6.495 0.322,5.294 1.249,10.54 2.751,15.618 z"
   id="path13" />

									<g
   id="g14">
										<path
   style="fill:#221f1f"
   d="m 203.024,325.908 c 5.92,-5.597 11.162,-12.471 11.841,-20.868 0.702,-8.682 -2.833,-16.888 -7.816,-23.81 -2.916,-4.051 -6.328,-7.695 -9.874,-11.196 0.037,0.128 0.075,0.255 0.112,0.383 0.268,-4.177 0.385,-8.385 -0.34,-12.525 -0.501,-2.86 -1.3,-6.006 -3.363,-8.167 -1.05,-1.1 -2.389,-1.854 -3.896,-2.103 -1.675,-0.277 -3.389,0.088 -4.967,0.65 -1.628,0.579 -3.167,1.396 -4.676,2.229 -1.79,0.988 -3.525,2.08 -5.188,3.268 -3.724,2.66 -7.075,5.815 -9.991,9.341 0.112,-0.068 0.224,-0.137 0.336,-0.205 -5.781,1.217 -11.379,3.26 -16.566,6.09 -2.6,1.419 -5.104,3.025 -7.465,4.813 -0.294,0.223 -0.586,0.448 -0.876,0.677 -0.265,0.209 -0.53,0.507 -0.861,0.597 -0.364,0.099 -0.84,0.053 -1.213,0.082 -0.404,0.031 -0.808,0.067 -1.211,0.107 -1.532,0.151 -3.057,0.361 -4.573,0.631 -5.703,1.016 -11.247,2.88 -16.419,5.486 -1.826,0.92 -3.695,2.044 -4.859,3.776 -1.34,1.994 -1.389,4.492 -0.794,6.757 1.521,5.792 6.262,10.652 11.553,13.208 -0.107,-0.133 -0.213,-0.266 -0.32,-0.399 0.168,2.687 0.482,5.363 0.955,8.013 0.236,1.324 0.51,2.642 0.821,3.95 0.31,1.299 0.732,2.577 1.02,3.878 1.053,4.754 2.612,9.318 5.277,13.428 2.388,3.683 5.567,6.806 9.408,8.953 4.041,2.259 8.603,3.34 13.205,3.593 5.818,0.32 11.676,-0.588 17.292,-2.062 0.633,-0.166 0.482,-1.183 -0.158,-1.015 -9.173,2.407 -19.702,3.55 -28.521,-0.718 -8.283,-4.008 -13.157,-12.286 -15.195,-20.999 -0.657,-2.81 -1.46,-5.581 -1.998,-8.421 -0.548,-2.893 -0.907,-5.819 -1.091,-8.758 -0.012,-0.186 -0.165,-0.324 -0.32,-0.399 -2.914,-1.408 -5.496,-3.46 -7.499,-6.005 -1.979,-2.515 -3.774,-5.666 -3.774,-8.957 0.001,-2.837 1.739,-4.787 4.079,-6.16 2.58,-1.514 5.434,-2.682 8.244,-3.684 3.391,-1.208 6.895,-2.091 10.45,-2.649 1.801,-0.283 3.615,-0.482 5.434,-0.597 0.451,-0.028 0.686,-0.026 1.043,-0.3 0.325,-0.249 0.64,-0.513 0.963,-0.765 0.771,-0.599 1.557,-1.179 2.358,-1.738 5.719,-3.991 12.165,-6.967 18.914,-8.727 0.794,-0.207 1.593,-0.398 2.395,-0.572 0.383,-0.083 0.603,-0.11 0.869,-0.392 0.345,-0.366 0.652,-0.777 0.984,-1.155 1.152,-1.313 2.372,-2.564 3.654,-3.752 2.553,-2.366 5.347,-4.48 8.327,-6.281 2.578,-1.557 5.463,-3.292 8.48,-3.774 1.448,-0.232 2.947,-0.095 4.234,0.653 1.095,0.636 1.945,1.627 2.563,2.72 1.309,2.317 1.841,5.053 2.171,7.666 0.237,1.875 0.312,3.766 0.293,5.655 -0.009,0.825 -0.035,1.649 -0.071,2.473 -0.022,0.494 -0.048,0.988 -0.077,1.482 -0.022,0.377 -0.165,0.902 -0.019,1.257 0.115,0.279 0.545,0.582 0.754,0.791 0.313,0.311 0.624,0.624 0.935,0.937 0.618,0.625 1.231,1.256 1.835,1.895 1.117,1.182 2.204,2.392 3.252,3.635 2.178,2.583 4.199,5.315 5.9,8.238 3.305,5.675 5.377,12.119 4.869,18.743 -0.483,6.304 -3.663,11.85 -7.782,16.503 -1.172,1.324 -2.411,2.586 -3.696,3.8 -0.478,0.45 0.166,1.251 0.649,0.795 z"
   id="path14" />

									</g>

								</g>

							</g>

							<path
   style="fill:#221f1f"
   d="m 188.339,258.311 c -1.517,2.103 -2.504,4.518 -2.898,7.081 -0.063,0.41 0.576,0.481 0.638,0.073 0.378,-2.455 1.326,-4.762 2.779,-6.776 0.242,-0.335 -0.277,-0.714 -0.519,-0.378 z"
   id="path16" />

							<path
   style="fill:#221f1f"
   d="m 128.379,294.11 c -1.615,-1.898 -3.853,-3.133 -6.32,-3.487 -0.41,-0.059 -0.482,0.579 -0.073,0.638 2.301,0.331 4.39,1.485 5.896,3.255 0.266,0.314 0.766,-0.09 0.497,-0.406 z"
   id="path17" />

						</g>

						<path
   style="fill:#221f1f"
   d="m 169.698,309.062 c 0.848,-0.909 1.858,-2.23 1.658,-3.429 -0.293,-1.756 -2.186,-0.996 -3.168,-0.411 -0.668,0.398 -1.286,0.876 -1.835,1.427 -0.402,0.404 -0.974,0.919 -0.98,1.538 -0.014,1.311 2.044,1.331 3.225,1.242 0.068,0.097 0.184,0.151 0.34,0.106 0.018,-0.005 0.036,-0.01 0.054,-0.016 0.038,0.016 0.079,0.024 0.12,0.023 0.707,0.932 1.414,1.864 2.121,2.796 0.295,0.389 0.882,-0.09 0.587,-0.479 -0.708,-0.932 -1.415,-1.865 -2.122,-2.797 z"
   id="path18" />

						<path
   style="fill:#221f1f"
   d="m 197.115,296.359 c -1.109,-0.509 -2.428,0.426 -2.218,1.649 0.095,0.554 0.473,1.05 1.016,1.223 0.147,0.047 0.301,0.068 0.453,0.064 0.239,0.025 0.493,-0.012 0.748,-0.127 1.176,-0.528 1.176,-2.269 0.001,-2.809 z"
   id="path19" />

						<path
   style="fill:#221f1f"
   d="m 145.764,323.092 c -1.109,-0.509 -2.428,0.426 -2.218,1.649 0.095,0.554 0.473,1.05 1.016,1.223 0.147,0.047 0.301,0.068 0.453,0.065 0.239,0.025 0.493,-0.012 0.748,-0.127 1.176,-0.529 1.176,-2.27 0.001,-2.81 z"
   id="path20" />

						<path
   style="fill:#f4c8ba"
   d="m 204.841,300.27 c -1.364,0.154 -2.632,0.793 -3.729,1.693 -0.645,0.448 -1.257,0.944 -1.828,1.487 -0.965,0.919 -2.072,2.061 -2.247,3.446 -0.15,1.184 0.471,2.278 1.398,2.977 1.112,0.839 2.532,0.962 3.868,0.72 2.79,-0.506 5.926,-2.385 6.615,-5.317 0.616,-2.624 -1.251,-5.324 -4.077,-5.006 z"
   id="path21" />

						<path
   style="fill:#f4c8ba"
   d="m 154.326,331.784 c -0.239,-2.24 -2.392,-4.217 -4.721,-3.579 -1.477,0.405 -2.705,1.78 -3.641,2.919 -0.117,0.142 -0.23,0.286 -0.34,0.431 -1.569,1.425 -2.977,3.332 -2.003,5.482 1.197,2.644 4.607,1.992 6.667,0.953 2.322,-1.17 4.333,-3.443 4.038,-6.206 z"
   id="path22" />

					</g>

					<g
   id="g25">
						<g
   id="g23">
							<path
   style="fill:#ffffff"
   d="m 217.988,326.384 c 0.13,-0.129 0.211,-0.293 0.317,-0.442 0.129,-0.182 0.25,-0.36 0.368,-0.549 0.751,-1.065 1.589,-2.045 2.461,-2.995 -1.814,-3.956 -5.779,-7.135 -9.567,-9.373 -3.434,-2.029 -7.282,-4.014 -11.273,-5.109 -1.304,-0.388 -2.638,-0.65 -3.986,-0.763 -1.276,-0.13 -2.557,-0.146 -3.835,-0.018 -5.387,0.538 -10.367,3.844 -10.689,9.259 -0.11,1.849 0.366,3.794 1.501,5.368 0.309,0.609 0.682,1.19 1.123,1.727 1.764,2.151 4.409,3.153 7.157,3.412 3.033,0.286 6.055,-0.163 9.088,0.194 1.675,0.197 3.242,0.698 4.71,1.538 1.606,0.919 3.035,2.087 4.594,3.073 1.507,0.953 3.26,1.761 5.021,1.957 0.544,-2.58 1.557,-5.06 3.01,-7.279 z"
   id="path23" />

						</g>

						<g
   id="g24">
							<path
   style="fill:#231f20"
   d="m 215.076,333.22 c -3.351,-0.309 -6.03,-2.826 -8.773,-4.551 -1.46,-0.918 -3.042,-1.593 -4.745,-1.897 -1.846,-0.329 -3.73,-0.292 -5.596,-0.253 -3.46,0.072 -7.239,0.113 -10.076,-2.196 -0.662,-0.539 -1.234,-1.184 -1.697,-1.901 -0.485,-0.75 -0.993,-1.54 -1.34,-2.364 -0.645,-1.529 -0.793,-3.265 -0.444,-4.886 0.597,-2.768 2.61,-4.887 5.082,-6.147 6.609,-3.37 14.428,-0.661 20.534,2.537 4.708,2.465 10.606,5.999 12.801,11.18 0.215,-0.239 0.433,-0.476 0.653,-0.711 -2.085,-4.445 -6.697,-7.711 -10.837,-10.073 -6.551,-3.737 -14.864,-7.277 -22.376,-4.274 -2.692,1.076 -5.101,2.982 -6.244,5.706 -0.604,1.439 -0.821,3.033 -0.638,4.583 0.216,1.83 1.037,3.383 2.025,4.908 1.946,3.002 5.295,4.293 8.747,4.52 4.308,0.283 8.771,-0.667 12.749,1.494 3.245,1.762 6.184,4.85 9.985,5.232 0.057,-0.304 0.12,-0.606 0.19,-0.907 z"
   id="path24" />

						</g>

					</g>

					<path
   style="fill:#010101"
   d="m 218.305,325.942 c -0.106,0.15 -0.187,0.313 -0.317,0.442 -3.338,5.097 -4.356,11.574 -2.7,17.458 0.132,0.469 0.863,0.27 0.731,-0.201 -1.654,-5.878 -0.541,-12.306 2.916,-17.309 0.043,-0.012 0.086,-0.023 0.126,-0.039 0.382,-0.159 0.664,-0.832 0.908,-1.159 1.376,-1.845 3.053,-3.423 4.636,-5.084 -0.143,-0.187 -0.284,-0.375 -0.421,-0.565 -0.041,-0.057 -0.082,-0.114 -0.122,-0.171 -1.855,1.983 -3.813,3.847 -5.388,6.08 -0.119,0.188 -0.24,0.366 -0.369,0.548 z"
   id="path25" />

					<path
   style="fill:#221f1f"
   d="m 208.305,327.043 c -0.766,-3.629 -3.962,-6.071 -7.478,-6.794 -4.42,-0.909 -8.785,0.911 -12.5,3.166 -7.515,4.563 -13.891,11.043 -18.447,18.552 -0.592,0.977 -1.154,1.972 -1.684,2.984 -0.284,0.543 -0.596,1.092 -0.832,1.658 -0.106,0.254 -0.191,0.468 -0.04,0.726 0.253,0.434 0.759,0.382 1.025,0.015 0.302,-0.418 0.491,-1.003 0.729,-1.462 0.25,-0.483 0.507,-0.963 0.771,-1.439 2.204,-3.968 4.9,-7.659 8.01,-10.965 3.167,-3.367 6.783,-6.406 10.71,-8.851 3.715,-2.314 8.174,-4.165 12.602,-3.054 1.967,0.494 3.799,1.582 4.94,3.291 1.247,1.867 1.404,4.151 0.799,6.274 -1.287,4.514 -5.23,7.29 -9.041,9.605 -3.75,2.278 -7.815,4.5 -10.255,8.292 -2.214,3.441 -2.78,7.758 -5.324,11 -2.895,3.689 -7.997,4.065 -12.113,2.385 -4.195,-1.711 -7.104,-5.47 -9.279,-9.298 -0.62,-1.092 -1.122,-2.25 -1.738,-3.34 -0.229,-0.405 -0.704,-0.639 -1.052,-0.177 -0.428,0.568 0.417,1.633 0.668,2.125 0.499,0.978 1.023,1.944 1.588,2.886 2.214,3.688 5.161,7.111 9.197,8.832 3.847,1.641 8.622,1.675 12.034,-0.986 3.796,-2.96 4.298,-8.082 6.582,-12.024 4.586,-7.915 15.828,-8.985 19.472,-17.704 0.758,-1.816 1.008,-3.757 0.656,-5.697 z"
   id="path26" />

					<g
   id="g27">
						<path
   style="fill:#ffffff"
   d="m 206.11,324.869 c -1.142,-1.708 -2.973,-2.797 -4.94,-3.291 -4.428,-1.111 -8.887,0.74 -12.602,3.054 -3.927,2.446 -7.542,5.485 -10.71,8.851 -3.11,3.306 -5.806,6.997 -8.01,10.965 -0.264,0.476 -0.521,0.956 -0.771,1.439 -0.237,0.459 -0.427,1.044 -0.729,1.462 -0.266,0.367 -0.773,0.419 -1.025,-0.015 -0.09,-0.155 -0.095,-0.294 -0.062,-0.435 -0.206,0.03 -0.413,0.057 -0.616,0.102 -1.421,0.314 -2.814,0.707 -4.178,1.216 -0.706,0.264 -1.407,0.544 -2.088,0.866 -0.322,0.152 -0.655,0.304 -0.957,0.493 -0.095,0.059 -0.186,0.125 -0.278,0.189 0.005,0.008 0.01,0.014 0.015,0.022 0.616,1.091 1.118,2.249 1.738,3.34 2.175,3.828 5.084,7.586 9.279,9.298 4.117,1.679 9.219,1.304 12.113,-2.385 2.544,-3.242 3.11,-7.559 5.324,-11 2.439,-3.792 6.504,-6.014 10.255,-8.292 3.811,-2.315 7.754,-5.091 9.041,-9.605 0.605,-2.123 0.448,-4.407 -0.799,-6.274 z"
   id="path27" />

					</g>

				</g>

				
				
				
				
				
				
				
				<path
   style="fill:#231f20"
   d="m 189.42,250.523 c -0.218,-5.334 -0.436,-10.668 -0.655,-16.002 -0.012,-0.292 -0.467,-0.293 -0.455,0 0.774,18.92 1.548,37.841 2.322,56.761 0.218,5.334 0.436,10.668 0.655,16.002 0.012,0.292 0.467,0.293 0.455,0 -0.774,-18.92 -1.548,-37.841 -2.322,-56.761 z"
   id="path55" />

				<path
   style="fill:#221f1f"
   d="m 195.181,372.038 c -1.432,-10.049 -1.43,-20.464 2.123,-30.095 0.101,-0.275 -0.338,-0.393 -0.438,-0.121 -6.484,17.573 -1.31,36.497 2.943,53.931 2.275,9.324 4.403,18.799 4.576,28.437 0.087,4.827 -0.34,9.668 -1.484,14.364 -1.115,4.582 -2.869,8.972 -4.238,13.478 -2.424,7.983 -3.561,17.94 2.69,24.556 0.201,0.213 0.522,-0.109 0.321,-0.322 -5.754,-6.091 -5.082,-15.298 -2.97,-22.76 1.257,-4.443 2.979,-8.74 4.208,-13.192 1.221,-4.421 1.83,-8.979 1.924,-13.562 0.385,-18.724 -7.044,-36.387 -9.655,-54.714 z"
   id="path56" />

				<g
   id="g92">
					<g
   id="g59">
						<path
   style="fill:#f599a9"
   d="m 191.721,233.134 c -0.434,-1.938 -1.97,-3.656 -3.512,-4.814 -0.43,-0.323 -0.847,0.179 -0.742,0.605 -0.675,0.622 -1.3,1.292 -1.861,2.023 -0.609,0.792 -1.322,1.719 -1.36,2.763 -0.082,2.242 2.538,2.689 4.245,2.676 1.877,-0.013 3.702,-1.148 3.23,-3.253 z"
   id="path57" />

						<g
   id="g58">
							<path
   style="fill:#231f20"
   d="m 192.159,233.013 c -0.484,-1.956 -1.981,-4.033 -3.72,-5.086 -0.299,-0.181 -0.657,-0.221 -0.965,-0.032 -0.355,0.218 -0.313,0.533 -0.476,0.845 -0.098,0.187 -0.388,0.377 -0.542,0.535 -0.223,0.23 -0.441,0.466 -0.65,0.709 -0.359,0.418 -0.7,0.855 -1.021,1.303 -0.987,1.376 -1.552,3.346 -0.019,4.568 1.136,0.905 2.921,1.118 4.324,0.943 2.002,-0.248 3.461,-1.707 3.069,-3.785 -0.108,-0.574 -0.985,-0.331 -0.877,0.242 0.378,2.001 -1.601,2.739 -3.248,2.67 -1.197,-0.05 -3.074,-0.349 -3.314,-1.797 -0.172,-1.041 0.544,-1.988 1.136,-2.765 0.358,-0.469 0.739,-0.919 1.146,-1.346 0.288,-0.302 0.73,-0.586 0.902,-0.971 0.128,-0.287 -0.112,-0.492 0.352,-0.116 0.187,0.151 0.369,0.309 0.546,0.471 0.333,0.305 0.648,0.628 0.942,0.971 0.722,0.843 1.27,1.802 1.537,2.883 0.142,0.568 1.019,0.327 0.878,-0.242 z"
   id="path58" />

						</g>

					</g>

					<g
   id="g91">
						<path
   style="fill:#f599a9"
   d="m 234.956,165.966 c -2.239,-8.772 -7.022,-16.683 -13.775,-22.715 -3.255,-2.907 -6.614,-6.012 -10.339,-8.297 -6.138,-3.766 -12.933,-6.312 -20.036,-7.7 -8.558,-1.672 -17.512,-1.127 -25.854,1.38 -8.328,2.503 -16.102,6.982 -22.217,13.192 -6.28,6.379 -10.587,14.512 -12.704,23.187 -2.128,8.719 -2.102,17.976 0.136,26.671 2.285,8.878 6.953,16.935 13.511,23.34 6.817,6.658 15.41,11.469 24.613,13.915 8.961,2.382 18.446,2.39 27.447,0.199 8.896,-2.165 17.303,-6.459 24.117,-12.594 6.908,-6.219 11.9,-14.296 14.511,-23.208 2.593,-8.852 2.875,-18.419 0.59,-27.37 z"
   id="path59" />

						<g
   id="g87">
							<path
   style="fill:#f9c4cf"
   d="m 153.021,147.056 -0.059,-0.346 c -0.068,-0.393 0.063,-0.795 0.349,-1.074 l 0.252,-0.245 c 0.72,-0.702 0.323,-1.924 -0.672,-2.069 l -0.348,-0.051 c -0.395,-0.057 -0.737,-0.305 -0.913,-0.663 l -0.156,-0.315 c -0.445,-0.901 -1.73,-0.901 -2.175,0 l -0.156,0.315 c -0.177,0.358 -0.518,0.606 -0.913,0.663 l -0.348,0.051 c -0.995,0.145 -1.392,1.367 -0.672,2.069 l 0.252,0.245 c 0.286,0.279 0.416,0.68 0.349,1.074 l -0.059,0.346 c -0.17,0.991 0.87,1.746 1.76,1.279 l 0.311,-0.164 c 0.353,-0.186 0.775,-0.186 1.129,0 l 0.311,0.164 c 0.888,0.467 1.928,-0.288 1.758,-1.279 z"
   id="path60" />

							<path
   style="fill:#f9c4cf"
   d="m 162.82,161.604 -0.059,-0.346 c -0.067,-0.393 0.063,-0.795 0.349,-1.074 l 0.252,-0.245 c 0.72,-0.702 0.323,-1.924 -0.672,-2.069 l -0.348,-0.051 c -0.395,-0.057 -0.737,-0.306 -0.913,-0.663 l -0.156,-0.315 c -0.445,-0.902 -1.73,-0.902 -2.175,0 l -0.156,0.315 c -0.177,0.358 -0.518,0.606 -0.913,0.663 l -0.348,0.051 c -0.995,0.145 -1.392,1.367 -0.672,2.069 l 0.252,0.245 c 0.286,0.279 0.416,0.68 0.349,1.074 l -0.059,0.346 c -0.17,0.991 0.87,1.746 1.76,1.279 l 0.311,-0.164 c 0.353,-0.186 0.775,-0.186 1.129,0 l 0.311,0.164 c 0.888,0.467 1.928,-0.288 1.758,-1.279 z"
   id="path61" />

							<path
   style="fill:#f9c4cf"
   d="m 171.775,178.855 -0.059,-0.346 c -0.068,-0.394 0.063,-0.795 0.349,-1.074 l 0.252,-0.245 c 0.72,-0.702 0.323,-1.924 -0.672,-2.069 l -0.348,-0.05 c -0.395,-0.057 -0.736,-0.306 -0.913,-0.663 l -0.156,-0.315 c -0.445,-0.902 -1.73,-0.902 -2.175,0 l -0.156,0.315 c -0.177,0.358 -0.518,0.606 -0.913,0.663 l -0.348,0.05 c -0.995,0.145 -1.392,1.367 -0.672,2.069 l 0.252,0.245 c 0.286,0.279 0.416,0.68 0.349,1.074 l -0.059,0.346 c -0.17,0.991 0.87,1.746 1.76,1.279 l 0.311,-0.163 c 0.353,-0.186 0.775,-0.186 1.129,0 l 0.311,0.163 c 0.888,0.468 1.928,-0.288 1.758,-1.279 z"
   id="path62" />

							<path
   style="fill:#f9c4cf"
   d="m 181.443,189.669 -0.348,-0.051 c -0.395,-0.057 -0.736,-0.306 -0.913,-0.664 l -0.156,-0.315 c -0.445,-0.901 -1.731,-0.901 -2.175,0 l -0.156,0.315 c -0.177,0.358 -0.518,0.606 -0.913,0.664 l -0.348,0.051 c -0.995,0.144 -1.392,1.367 -0.672,2.069 l 0.252,0.245 c 0.286,0.279 0.416,0.68 0.349,1.074 l -0.059,0.346 c -0.17,0.991 0.87,1.746 1.76,1.279 l 0.311,-0.164 c 0.353,-0.186 0.776,-0.186 1.129,0 l 0.311,0.164 c 0.89,0.468 1.93,-0.288 1.76,-1.279 l -0.059,-0.346 c -0.068,-0.393 0.063,-0.795 0.349,-1.074 l 0.252,-0.245 c 0.718,-0.702 0.321,-1.924 -0.674,-2.069 z"
   id="path63" />

							<path
   style="fill:#f9c4cf"
   d="m 190.399,206.921 -0.348,-0.051 c -0.395,-0.057 -0.737,-0.305 -0.913,-0.663 l -0.155,-0.315 c -0.445,-0.901 -1.73,-0.901 -2.175,0 l -0.156,0.315 c -0.177,0.358 -0.518,0.606 -0.913,0.663 l -0.348,0.051 c -0.995,0.145 -1.392,1.367 -0.672,2.069 l 0.252,0.245 c 0.286,0.279 0.416,0.68 0.349,1.074 l -0.059,0.346 c -0.17,0.991 0.87,1.746 1.76,1.279 l 0.311,-0.164 c 0.353,-0.186 0.775,-0.186 1.129,0 l 0.311,0.164 c 0.89,0.468 1.93,-0.288 1.76,-1.279 l -0.059,-0.346 c -0.068,-0.394 0.063,-0.795 0.349,-1.074 l 0.252,-0.245 c 0.717,-0.702 0.32,-1.925 -0.675,-2.069 z"
   id="path64" />

							<path
   style="fill:#f9c4cf"
   d="m 200.198,221.469 -0.348,-0.05 c -0.395,-0.057 -0.737,-0.306 -0.913,-0.664 l -0.156,-0.315 c -0.445,-0.902 -1.73,-0.902 -2.175,0 l -0.156,0.315 c -0.177,0.358 -0.518,0.606 -0.913,0.664 l -0.348,0.05 c -0.995,0.145 -1.392,1.367 -0.672,2.069 l 0.252,0.245 c 0.286,0.279 0.416,0.68 0.349,1.074 l -0.059,0.346 c -0.17,0.991 0.87,1.746 1.76,1.279 l 0.311,-0.163 c 0.353,-0.186 0.776,-0.186 1.129,0 l 0.311,0.163 c 0.89,0.468 1.93,-0.288 1.76,-1.279 l -0.059,-0.346 c -0.068,-0.393 0.063,-0.795 0.349,-1.074 l 0.252,-0.245 c 0.718,-0.702 0.321,-1.925 -0.674,-2.069 z"
   id="path65" />

							<path
   style="fill:#f9c4cf"
   d="m 164.859,135.827 c 0.286,0.279 0.416,0.68 0.349,1.074 l -0.059,0.346 c -0.17,0.991 0.87,1.746 1.76,1.279 l 0.311,-0.164 c 0.353,-0.186 0.775,-0.186 1.129,0 l 0.311,0.164 c 0.89,0.468 1.93,-0.288 1.76,-1.279 l -0.06,-0.346 c -0.067,-0.394 0.063,-0.795 0.349,-1.074 l 0.252,-0.245 c 0.72,-0.702 0.323,-1.924 -0.672,-2.069 l -0.348,-0.051 c -0.395,-0.057 -0.737,-0.305 -0.913,-0.663 l -0.156,-0.315 c -0.445,-0.902 -1.73,-0.902 -2.175,0 l -0.156,0.315 c -0.177,0.358 -0.518,0.606 -0.913,0.663 l -0.348,0.051 c -0.995,0.145 -1.392,1.367 -0.672,2.069 z"
   id="path66" />

							<path
   style="fill:#f9c4cf"
   d="m 174.659,150.375 c 0.286,0.279 0.416,0.68 0.349,1.074 l -0.059,0.346 c -0.17,0.991 0.87,1.746 1.76,1.279 l 0.311,-0.164 c 0.353,-0.186 0.776,-0.186 1.129,0 l 0.311,0.164 c 0.89,0.468 1.93,-0.288 1.76,-1.279 l -0.059,-0.346 c -0.068,-0.393 0.063,-0.795 0.349,-1.074 l 0.252,-0.245 c 0.72,-0.702 0.323,-1.924 -0.672,-2.069 l -0.348,-0.051 c -0.395,-0.057 -0.736,-0.306 -0.913,-0.663 l -0.156,-0.315 c -0.445,-0.901 -1.73,-0.901 -2.175,0 l -0.155,0.315 c -0.177,0.358 -0.518,0.606 -0.913,0.663 l -0.348,0.051 c -0.995,0.145 -1.392,1.367 -0.672,2.069 z"
   id="path67" />

							<path
   style="fill:#f9c4cf"
   d="m 185.663,170.325 0.311,-0.163 c 0.353,-0.186 0.775,-0.186 1.129,0 l 0.311,0.163 c 0.89,0.468 1.93,-0.288 1.76,-1.279 l -0.059,-0.346 c -0.068,-0.393 0.063,-0.795 0.349,-1.074 l 0.252,-0.245 c 0.72,-0.702 0.323,-1.924 -0.672,-2.069 l -0.348,-0.05 c -0.395,-0.057 -0.736,-0.306 -0.913,-0.664 l -0.156,-0.315 c -0.445,-0.902 -1.73,-0.902 -2.175,0 l -0.156,0.315 c -0.177,0.358 -0.518,0.606 -0.913,0.664 l -0.348,0.05 c -0.995,0.145 -1.392,1.367 -0.672,2.069 l 0.252,0.245 c 0.286,0.279 0.416,0.68 0.349,1.074 l -0.059,0.346 c -0.171,0.991 0.869,1.747 1.758,1.279 z"
   id="path68" />

							<path
   style="fill:#f9c4cf"
   d="m 195.463,184.873 0.311,-0.163 c 0.353,-0.186 0.775,-0.186 1.129,0 l 0.311,0.163 c 0.89,0.468 1.93,-0.288 1.76,-1.279 l -0.059,-0.346 c -0.068,-0.393 0.063,-0.795 0.349,-1.074 l 0.252,-0.245 c 0.72,-0.702 0.323,-1.924 -0.672,-2.069 l -0.348,-0.051 c -0.395,-0.057 -0.736,-0.306 -0.913,-0.664 l -0.156,-0.315 c -0.445,-0.901 -1.73,-0.901 -2.175,0 l -0.156,0.315 c -0.177,0.358 -0.518,0.606 -0.913,0.664 l -0.348,0.051 c -0.995,0.144 -1.392,1.367 -0.672,2.069 l 0.252,0.245 c 0.286,0.279 0.416,0.68 0.349,1.074 l -0.059,0.346 c -0.172,0.991 0.868,1.747 1.758,1.279 z"
   id="path69" />

							<path
   style="fill:#f9c4cf"
   d="m 207.798,197.111 -0.348,-0.051 c -0.395,-0.057 -0.737,-0.306 -0.913,-0.663 l -0.156,-0.315 c -0.445,-0.902 -1.73,-0.902 -2.175,0 l -0.156,0.315 c -0.177,0.358 -0.518,0.606 -0.913,0.663 l -0.348,0.051 c -0.995,0.145 -1.392,1.367 -0.672,2.069 l 0.252,0.245 c 0.286,0.279 0.416,0.68 0.349,1.074 l -0.059,0.346 c -0.17,0.991 0.87,1.746 1.76,1.279 l 0.311,-0.164 c 0.353,-0.186 0.775,-0.186 1.129,0 l 0.311,0.164 c 0.89,0.468 1.93,-0.288 1.76,-1.279 l -0.059,-0.346 c -0.067,-0.394 0.063,-0.795 0.349,-1.074 l 0.252,-0.245 c 0.718,-0.701 0.321,-1.924 -0.674,-2.069 z"
   id="path70" />

							<path
   style="fill:#f9c4cf"
   d="m 217.597,211.66 -0.348,-0.051 c -0.395,-0.057 -0.737,-0.306 -0.913,-0.664 l -0.156,-0.315 c -0.445,-0.902 -1.73,-0.902 -2.175,0 l -0.156,0.315 c -0.177,0.358 -0.518,0.606 -0.913,0.664 l -0.348,0.051 c -0.995,0.145 -1.392,1.367 -0.672,2.069 l 0.252,0.245 c 0.286,0.279 0.416,0.68 0.349,1.074 l -0.059,0.346 c -0.17,0.991 0.87,1.746 1.76,1.279 l 0.311,-0.163 c 0.353,-0.186 0.775,-0.186 1.129,0 l 0.311,0.163 c 0.89,0.468 1.93,-0.288 1.76,-1.279 l -0.059,-0.346 c -0.068,-0.393 0.063,-0.795 0.349,-1.074 l 0.252,-0.245 c 0.718,-0.702 0.321,-1.925 -0.674,-2.069 z"
   id="path71" />

							<path
   style="fill:#f9c4cf"
   d="m 194.107,143.264 0.311,-0.164 c 0.353,-0.186 0.775,-0.186 1.129,0 l 0.311,0.164 c 0.89,0.468 1.93,-0.288 1.76,-1.279 l -0.059,-0.346 c -0.068,-0.393 0.063,-0.795 0.349,-1.074 l 0.252,-0.245 c 0.72,-0.702 0.323,-1.924 -0.672,-2.069 L 197.14,138.2 c -0.395,-0.057 -0.737,-0.306 -0.913,-0.663 l -0.156,-0.315 c -0.445,-0.901 -1.73,-0.901 -2.175,0 l -0.156,0.315 c -0.177,0.358 -0.518,0.606 -0.913,0.663 l -0.348,0.051 c -0.995,0.145 -1.392,1.367 -0.672,2.069 l 0.252,0.245 c 0.286,0.279 0.416,0.68 0.349,1.074 l -0.059,0.346 c -0.172,0.992 0.868,1.747 1.758,1.279 z"
   id="path72" />

							<path
   style="fill:#f9c4cf"
   d="m 203.063,160.516 0.311,-0.163 c 0.353,-0.186 0.776,-0.186 1.129,0 l 0.311,0.163 c 0.89,0.468 1.93,-0.288 1.76,-1.279 l -0.059,-0.346 c -0.068,-0.394 0.063,-0.795 0.349,-1.074 l 0.252,-0.245 c 0.72,-0.702 0.323,-1.924 -0.672,-2.069 l -0.348,-0.05 c -0.395,-0.057 -0.737,-0.306 -0.913,-0.664 l -0.156,-0.315 c -0.445,-0.902 -1.73,-0.902 -2.175,0 l -0.155,0.315 c -0.177,0.358 -0.518,0.606 -0.913,0.664 l -0.348,0.05 c -0.995,0.145 -1.392,1.367 -0.672,2.069 l 0.252,0.245 c 0.286,0.279 0.416,0.68 0.349,1.074 l -0.059,0.346 c -0.173,0.991 0.867,1.747 1.757,1.279 z"
   id="path73" />

							<path
   style="fill:#f9c4cf"
   d="m 212.862,175.064 0.311,-0.163 c 0.353,-0.186 0.775,-0.186 1.129,0 l 0.311,0.163 c 0.89,0.468 1.93,-0.288 1.76,-1.279 l -0.059,-0.346 c -0.068,-0.393 0.063,-0.795 0.349,-1.074 l 0.252,-0.245 c 0.72,-0.702 0.323,-1.924 -0.672,-2.069 L 215.895,170 c -0.395,-0.058 -0.737,-0.306 -0.913,-0.664 l -0.156,-0.315 c -0.445,-0.902 -1.73,-0.902 -2.175,0 l -0.155,0.315 c -0.177,0.358 -0.518,0.606 -0.913,0.664 l -0.348,0.051 c -0.995,0.144 -1.392,1.367 -0.672,2.069 l 0.252,0.245 c 0.286,0.279 0.416,0.68 0.349,1.074 l -0.059,0.346 c -0.173,0.991 0.867,1.747 1.757,1.279 z"
   id="path74" />

							<path
   style="fill:#f9c4cf"
   d="m 225.197,187.302 -0.348,-0.051 c -0.395,-0.057 -0.737,-0.305 -0.913,-0.663 l -0.156,-0.315 c -0.445,-0.901 -1.73,-0.901 -2.175,0 l -0.155,0.315 c -0.177,0.358 -0.518,0.606 -0.913,0.663 l -0.348,0.051 c -0.995,0.144 -1.392,1.367 -0.672,2.069 l 0.252,0.245 c 0.286,0.279 0.416,0.68 0.349,1.074 l -0.059,0.346 c -0.17,0.991 0.87,1.746 1.76,1.279 l 0.311,-0.164 c 0.353,-0.186 0.776,-0.186 1.129,0 l 0.311,0.164 c 0.89,0.468 1.93,-0.288 1.76,-1.279 l -0.059,-0.346 c -0.068,-0.393 0.063,-0.795 0.349,-1.074 l 0.252,-0.245 c 0.717,-0.702 0.32,-1.924 -0.675,-2.069 z"
   id="path75" />

							<path
   style="fill:#f9c4cf"
   d="m 139.69,196.216 -0.348,-0.05 c -0.395,-0.057 -0.737,-0.305 -0.913,-0.663 l -0.156,-0.315 c -0.445,-0.902 -1.73,-0.902 -2.175,0 l -0.156,0.315 c -0.177,0.358 -0.518,0.606 -0.913,0.663 l -0.348,0.05 c -0.995,0.145 -1.392,1.367 -0.672,2.069 l 0.252,0.245 c 0.286,0.279 0.416,0.68 0.349,1.074 l -0.059,0.346 c -0.17,0.991 0.87,1.746 1.76,1.279 l 0.311,-0.163 c 0.353,-0.186 0.775,-0.186 1.129,0 l 0.311,0.163 c 0.89,0.468 1.93,-0.288 1.76,-1.279 l -0.059,-0.346 c -0.068,-0.394 0.063,-0.795 0.349,-1.074 l 0.252,-0.245 c 0.718,-0.702 0.321,-1.924 -0.674,-2.069 z"
   id="path76" />

							<path
   style="fill:#f9c4cf"
   d="m 149.489,210.764 -0.348,-0.051 c -0.395,-0.057 -0.737,-0.306 -0.913,-0.663 l -0.156,-0.315 c -0.445,-0.902 -1.73,-0.902 -2.175,0 l -0.156,0.315 c -0.177,0.358 -0.518,0.606 -0.913,0.663 l -0.348,0.051 c -0.995,0.145 -1.392,1.367 -0.672,2.069 l 0.252,0.245 c 0.286,0.279 0.416,0.68 0.349,1.074 l -0.059,0.346 c -0.17,0.991 0.87,1.746 1.76,1.279 l 0.311,-0.164 c 0.353,-0.186 0.775,-0.186 1.129,0 l 0.311,0.164 c 0.89,0.468 1.93,-0.288 1.76,-1.279 l -0.059,-0.346 c -0.067,-0.393 0.063,-0.795 0.349,-1.074 l 0.252,-0.245 c 0.718,-0.701 0.321,-1.924 -0.674,-2.069 z"
   id="path77" />

							<path
   style="fill:#f9c4cf"
   d="m 220.462,150.706 0.311,-0.163 c 0.353,-0.186 0.775,-0.186 1.129,0 l 0.311,0.163 c 0.89,0.468 1.93,-0.288 1.76,-1.279 l -0.059,-0.346 c -0.067,-0.393 0.063,-0.795 0.349,-1.074 l 0.252,-0.245 c 0.237,-0.231 0.349,-0.517 0.362,-0.804 -0.387,-0.436 -0.783,-0.866 -1.188,-1.287 l -0.194,-0.028 c -0.395,-0.057 -0.737,-0.306 -0.913,-0.664 l -0.156,-0.315 c -0.445,-0.902 -1.73,-0.902 -2.175,0 l -0.156,0.315 c -0.177,0.358 -0.518,0.606 -0.913,0.664 l -0.348,0.05 c -0.995,0.145 -1.392,1.367 -0.672,2.069 l 0.252,0.245 c 0.286,0.279 0.416,0.68 0.349,1.074 l -0.059,0.346 c -0.172,0.992 0.868,1.747 1.758,1.279 z"
   id="path78" />

							<path
   style="fill:#f9c4cf"
   d="m 231.404,200.821 -0.156,0.315 c -0.177,0.358 -0.518,0.606 -0.913,0.664 l -0.348,0.051 c -0.995,0.145 -1.392,1.367 -0.672,2.069 l 0.252,0.245 c 0.048,0.047 0.091,0.099 0.13,0.153 0.722,-1.262 1.389,-2.555 2.001,-3.877 -0.117,0.101 -0.218,0.226 -0.294,0.38 z"
   id="path79" />

							<path
   style="fill:#f9c4cf"
   d="m 184.308,128.716 0.311,-0.164 c 0.353,-0.186 0.775,-0.186 1.129,0 l 0.311,0.164 c 0.89,0.468 1.93,-0.288 1.76,-1.279 l -0.059,-0.346 c -0.019,-0.113 -0.021,-0.226 -0.008,-0.337 -1.747,-0.233 -3.506,-0.376 -5.267,-0.432 0.122,0.233 0.169,0.502 0.124,0.768 l -0.059,0.346 c -0.172,0.992 0.868,1.748 1.758,1.28 z"
   id="path80" />

							<path
   style="fill:#f9c4cf"
   d="m 233.712,163.63 c -0.06,-0.351 0.038,-0.708 0.263,-0.979 -0.288,-0.853 -0.601,-1.695 -0.937,-2.527 -0.284,-0.108 -0.521,-0.318 -0.658,-0.596 l -0.156,-0.315 c -0.445,-0.901 -1.73,-0.901 -2.175,0 l -0.156,0.315 c -0.177,0.358 -0.518,0.606 -0.913,0.664 l -0.348,0.051 c -0.995,0.144 -1.392,1.367 -0.672,2.069 l 0.252,0.245 c 0.286,0.279 0.416,0.68 0.349,1.074 l -0.059,0.346 c -0.17,0.991 0.87,1.747 1.76,1.279 l 0.311,-0.163 c 0.353,-0.186 0.775,-0.186 1.129,0 l 0.311,0.163 c 0.89,0.468 1.93,-0.288 1.76,-1.279 z"
   id="path81" />

							<path
   style="fill:#f9c4cf"
   d="m 130.734,178.965 -0.348,-0.051 c -0.395,-0.057 -0.736,-0.306 -0.913,-0.664 l -0.156,-0.315 c -0.181,-0.367 -0.502,-0.582 -0.849,-0.65 -0.032,2.174 0.064,4.35 0.288,6.512 0.013,0.006 0.026,0.011 0.038,0.017 l 0.311,0.163 c 0.89,0.468 1.93,-0.288 1.76,-1.279 l -0.059,-0.346 c -0.068,-0.394 0.063,-0.795 0.349,-1.074 l 0.252,-0.245 c 0.72,-0.701 0.322,-1.923 -0.673,-2.068 z"
   id="path82" />

							<path
   style="fill:#f9c4cf"
   d="m 134.955,159.621 0.311,-0.164 c 0.353,-0.186 0.775,-0.186 1.129,0 l 0.311,0.164 c 0.89,0.468 1.93,-0.288 1.76,-1.279 l -0.059,-0.346 c -0.067,-0.394 0.063,-0.795 0.349,-1.074 l 0.252,-0.245 c 0.72,-0.702 0.323,-1.924 -0.672,-2.069 l -0.348,-0.051 c -0.395,-0.057 -0.737,-0.305 -0.913,-0.663 l -0.156,-0.315 c -0.445,-0.902 -1.73,-0.902 -2.175,0 l -0.155,0.315 c -0.156,0.316 -0.441,0.546 -0.778,0.635 -0.364,0.746 -0.709,1.501 -1.036,2.264 l 0.132,0.129 c 0.286,0.279 0.416,0.68 0.349,1.074 l -0.059,0.346 c -0.172,0.991 0.868,1.747 1.758,1.279 z"
   id="path83" />

							<path
   style="fill:#f9c4cf"
   d="m 144.754,174.169 0.311,-0.163 c 0.353,-0.186 0.775,-0.186 1.129,0 l 0.311,0.163 c 0.89,0.468 1.93,-0.288 1.76,-1.279 l -0.059,-0.346 c -0.067,-0.393 0.063,-0.795 0.349,-1.074 l 0.252,-0.245 c 0.72,-0.702 0.323,-1.924 -0.672,-2.069 l -0.348,-0.05 c -0.395,-0.057 -0.736,-0.306 -0.913,-0.664 l -0.156,-0.315 c -0.445,-0.901 -1.73,-0.901 -2.175,0 l -0.156,0.315 c -0.177,0.358 -0.518,0.606 -0.913,0.664 l -0.348,0.05 c -0.995,0.145 -1.392,1.367 -0.672,2.069 l 0.252,0.245 c 0.286,0.279 0.416,0.68 0.349,1.074 l -0.059,0.346 c -0.172,0.991 0.868,1.747 1.758,1.279 z"
   id="path84" />

							<path
   style="fill:#f9c4cf"
   d="m 157.089,186.407 -0.348,-0.05 c -0.395,-0.057 -0.737,-0.306 -0.913,-0.663 l -0.156,-0.315 c -0.445,-0.902 -1.73,-0.902 -2.175,0 l -0.156,0.315 c -0.177,0.358 -0.518,0.606 -0.913,0.663 l -0.348,0.05 c -0.995,0.145 -1.392,1.367 -0.672,2.069 l 0.252,0.245 c 0.286,0.279 0.416,0.68 0.349,1.074 l -0.059,0.346 c -0.17,0.991 0.87,1.746 1.76,1.279 l 0.311,-0.164 c 0.353,-0.186 0.775,-0.186 1.129,0 l 0.311,0.164 c 0.89,0.468 1.93,-0.288 1.76,-1.279 l -0.059,-0.346 c -0.068,-0.394 0.063,-0.795 0.349,-1.074 l 0.252,-0.245 c 0.718,-0.702 0.321,-1.924 -0.674,-2.069 z"
   id="path85" />

							<path
   style="fill:#f9c4cf"
   d="m 166.888,200.955 -0.348,-0.051 c -0.395,-0.057 -0.737,-0.306 -0.913,-0.663 l -0.156,-0.315 c -0.445,-0.902 -1.731,-0.902 -2.175,0 l -0.155,0.315 c -0.177,0.358 -0.518,0.606 -0.913,0.663 l -0.348,0.051 c -0.995,0.144 -1.392,1.367 -0.672,2.069 l 0.252,0.245 c 0.286,0.279 0.416,0.68 0.349,1.074 l -0.059,0.346 c -0.17,0.991 0.87,1.746 1.76,1.278 l 0.311,-0.163 c 0.353,-0.186 0.776,-0.186 1.129,0 l 0.311,0.163 c 0.89,0.468 1.93,-0.288 1.76,-1.278 l -0.059,-0.346 c -0.068,-0.393 0.063,-0.795 0.349,-1.074 l 0.252,-0.245 c 0.717,-0.702 0.32,-1.924 -0.675,-2.069 z"
   id="path86" />

							<path
   style="fill:#f9c4cf"
   d="m 175.844,218.206 -0.348,-0.05 c -0.395,-0.057 -0.737,-0.306 -0.913,-0.664 l -0.155,-0.315 c -0.445,-0.902 -1.73,-0.902 -2.175,0 l -0.156,0.315 c -0.177,0.358 -0.518,0.606 -0.913,0.664 l -0.348,0.05 c -0.995,0.145 -1.392,1.367 -0.672,2.069 l 0.252,0.245 c 0.286,0.279 0.416,0.68 0.349,1.074 l -0.059,0.346 c -0.17,0.991 0.87,1.746 1.76,1.279 l 0.311,-0.164 c 0.353,-0.186 0.775,-0.186 1.129,0 l 0.311,0.164 c 0.89,0.468 1.93,-0.288 1.76,-1.279 l -0.059,-0.346 c -0.068,-0.394 0.063,-0.795 0.349,-1.074 l 0.252,-0.245 c 0.717,-0.701 0.32,-1.924 -0.675,-2.069 z"
   id="path87" />

						</g>

						<g
   id="g89">
							<path
   style="fill:#ffffff"
   d="m 146.899,207.752 c -8.242,-11.332 -10.804,-26.411 -7.289,-39.925 0.99,-3.808 2.463,-7.493 4.406,-10.915 0.286,-0.503 -0.439,-1.053 -0.728,-0.545 -7.072,12.454 -7.968,27.962 -2.874,41.298 1.446,3.787 3.388,7.375 5.772,10.653 0.346,0.474 1.057,-0.093 0.713,-0.566 z"
   id="path88" />

							<path
   style="fill:#ffffff"
   d="m 146.703,151.668 -0.301,-0.035 c -0.236,-0.027 -0.486,0.155 -0.503,0.4 -0.017,0.246 0.147,0.474 0.4,0.503 l 0.301,0.035 c 0.236,0.027 0.486,-0.155 0.503,-0.4 0.017,-0.246 -0.147,-0.474 -0.4,-0.503 z"
   id="path89" />

						</g>

						<g
   id="g90">
							<path
   style="fill:#231f20"
   d="m 235.395,165.846 c -1.286,-4.982 -3.378,-9.748 -6.221,-14.04 -2.969,-4.482 -6.74,-8.104 -10.761,-11.628 -2.146,-1.88 -4.357,-3.708 -6.762,-5.252 -2.38,-1.528 -4.908,-2.843 -7.496,-3.981 -5.188,-2.281 -10.718,-3.887 -16.34,-4.637 -11.239,-1.5 -22.915,0.662 -32.928,5.965 -9.412,4.984 -17.05,12.771 -21.649,22.393 -4.886,10.224 -6.35,21.981 -4.379,33.122 1.846,10.435 6.912,20.146 14.498,27.557 7.682,7.505 17.629,12.721 28.162,14.807 11.373,2.252 23.326,0.824 33.929,-3.824 9.7,-4.252 18.136,-11.226 23.733,-20.254 5.849,-9.435 8.514,-20.783 7.608,-31.839 -0.233,-2.83 -0.7,-5.636 -1.394,-8.389 -0.143,-0.567 -1.02,-0.327 -0.877,0.242 2.754,10.921 1.76,22.753 -2.741,33.078 -4.137,9.49 -11.15,17.406 -19.964,22.813 -9.445,5.794 -20.597,8.71 -31.669,8.279 -10.856,-0.423 -21.471,-4.186 -30.249,-10.574 -8.338,-6.067 -14.78,-14.533 -18.143,-24.301 -3.68,-10.689 -3.761,-22.601 -0.414,-33.384 3.082,-9.932 9.168,-18.745 17.569,-24.909 8.775,-6.439 19.569,-10.029 30.436,-10.32 11.106,-0.297 22.633,2.974 31.964,9.016 2.452,1.588 4.693,3.473 6.88,5.403 1.94,1.712 3.895,3.416 5.66,5.313 3.417,3.673 6.202,7.919 8.23,12.507 1.011,2.287 1.816,4.66 2.44,7.08 0.147,0.564 1.024,0.324 0.878,-0.243 z"
   id="path90" />

						</g>

					</g>

				</g>

				
			</g>

			
			
			<path
   style="fill:#231f20"
   d="m 129.891,207.96 c -3.205,-4.004 -5.306,-8.787 -6.127,-13.847 -0.078,-0.48 -0.808,-0.276 -0.731,0.202 0.844,5.196 3.035,10.074 6.322,14.181 0.305,0.381 0.838,-0.158 0.536,-0.536 z"
   id="path111" />

			<path
   style="fill:#231f20"
   d="m 245.839,172.303 c -0.121,-0.472 -0.852,-0.272 -0.731,0.201 1.548,6.02 0.699,12.497 -2.348,17.915 -0.239,0.425 0.415,0.808 0.654,0.382 3.147,-5.593 4.023,-12.283 2.425,-18.498 z"
   id="path112" />

		</g>
  </g>
</svg>
