<?xml version="1.0" encoding="UTF-8" standalone="no"?>
<!-- Created with Inkscape (http://www.inkscape.org/) -->

<svg
   width="25.965231mm"
   height="13.210904mm"
   viewBox="0 0 25.965231 13.210904"
   version="1.1"
   id="svg1"
   inkscape:version="1.4 (86a8ad7, 2024-10-11)"
   sodipodi:docname="cloud2.svg"
   xmlns:inkscape="http://www.inkscape.org/namespaces/inkscape"
   xmlns:sodipodi="http://sodipodi.sourceforge.net/DTD/sodipodi-0.dtd"
   xmlns="http://www.w3.org/2000/svg"
   xmlns:svg="http://www.w3.org/2000/svg">
  <sodipodi:namedview
     id="namedview1"
     pagecolor="#ffffff"
     bordercolor="#000000"
     borderopacity="0.25"
     inkscape:showpageshadow="2"
     inkscape:pageopacity="0.0"
     inkscape:pagecheckerboard="0"
     inkscape:deskcolor="#d1d1d1"
     inkscape:document-units="mm"
     inkscape:zoom="0.72604517"
     inkscape:cx="-137.04381"
     inkscape:cy="263.75769"
     inkscape:window-width="1920"
     inkscape:window-height="1017"
     inkscape:window-x="-8"
     inkscape:window-y="-8"
     inkscape:window-maximized="1"
     inkscape:current-layer="layer1" />
  <defs
     id="defs1" />
  <g
     inkscape:label="Capa 1"
     inkscape:groupmode="layer"
     id="layer1"
     transform="translate(-141.55208,-78.58125)">
    <g
       id="g132"
       transform="matrix(0.26458333,0,0,0.26458333,68.048544,35.741263)">
			<g
   id="g130">
				<path
   style="fill:#d1f1fd"
   d="m 372.581,191.724 c -1.607,-3.562 -2.13,-7.666 -5.127,-10.531 -1.384,-1.323 -3.102,-2.291 -4.884,-2.962 -2.252,-0.849 -4.822,-0.57 -6.536,-2.212 -1.748,-1.674 -1.74,-4.441 -2.975,-6.589 -0.832,-1.447 -1.91,-2.73 -3.207,-3.783 -3.474,-2.822 -8.298,-3.647 -12.554,-2.329 -2.623,0.812 -7.885,2.384 -8.3,5.128 -0.213,1.407 -4.471,-5.74 -10.281,-0.456 0,0 -4.671,-5.284 -13.419,-2.854 -8.123,2.257 -11.389,10.388 -9.895,17.922 -4.782,-2.55 -12.914,1.853 -14.884,7.288 -0.222,0.031 -0.439,0.124 -0.621,0.308 -6.364,6.451 12.014,10.806 15.42,12.13 7.792,3.029 11.572,-0.433 16.77,1.244 2.927,0.945 5.456,3.026 8.305,4.202 2.519,1.04 5.163,1.713 7.853,2.131 10.097,1.571 21.986,0.879 31.924,-1.511 6.177,-1.486 10.055,-2.079 13.385,-8.8 2.39,-5.516 1.415,-3.636 1.386,-4.27 -0.087,-1.922 -0.745,-3.123 -2.36,-4.056 z"
   id="path123" />

				<path
   style="fill:#9ab1e0"
   d="m 303.688,168.414 c -2.248,1.288 -4.163,3.01 -5.498,5.248 -1.137,1.908 -2.395,4.655 -1.806,6.895 0.156,0.592 0.919,0.501 1.112,0 0.798,-2.071 0.744,-4.189 1.81,-6.243 1.121,-2.159 2.707,-3.963 4.712,-5.335 0.345,-0.235 0.041,-0.777 -0.33,-0.565 z"
   id="path124" />

				<path
   style="fill:#9ab1e0"
   d="m 301.787,174.745 c -1.598,1.531 -2.736,4.364 -2.367,6.578 0.074,0.445 0.745,0.395 0.851,0 0.271,-1.008 0.326,-2.053 0.64,-3.058 0.344,-1.103 0.887,-2.098 1.368,-3.14 0.143,-0.312 -0.222,-0.639 -0.492,-0.38 z"
   id="path125" />

				<path
   style="fill:#9ab1e0"
   d="m 323.724,207.638 c -4.565,-3.449 -12.237,-7.359 -18.158,-6.299 -4.078,0.73 -7.742,0.592 -11.86,0.166 -4.972,-0.515 -7.946,-2.525 -11.877,-5.33 -0.296,-0.211 -0.622,0.245 -0.38,0.492 2.104,2.148 4.065,4.354 6.897,5.531 3.132,1.302 6.905,1.369 10.231,1.727 4.103,0.441 8.289,-1.212 12.231,-0.032 4.291,1.285 7.969,4.047 12.351,5.086 0.854,0.202 1.207,-0.856 0.565,-1.341 z"
   id="path126" />

				<path
   style="fill:#9ab1e0"
   d="m 347.727,164.657 c -0.2,-0.031 -0.414,0.216 -0.222,0.381 5.193,4.451 6.765,9.785 6.065,16.474 -0.106,1.009 1.474,1.169 1.734,0.235 1.568,-5.641 -0.672,-16.002 -7.577,-17.09 z"
   id="path127" />

				<path
   style="fill:#9ab1e0"
   d="m 365.11,178.751 c -0.271,-0.096 -0.556,0.262 -0.386,0.502 1.535,2.17 3.212,3.922 3.956,6.566 0.77,2.735 0.303,5.662 1.206,8.346 0.224,0.665 1.395,0.833 1.524,0 0.8,-5.132 -0.662,-13.423 -6.3,-15.414 z"
   id="path128" />

				<path
   style="fill:#9ab1e0"
   d="m 373.231,191.927 c -0.222,-0.259 -0.766,-0.064 -0.717,0.297 0.874,6.52 -2.732,9.814 -7.675,13.198 -4.285,2.933 -8.491,3.219 -13.453,4.005 -0.585,0.093 -0.364,0.894 0.129,0.951 6.799,0.789 12.491,-1.859 17.763,-5.986 3.549,-2.778 7.588,-8.227 3.953,-12.465 z"
   id="path129" />

				<path
   style="fill:#9ab1e0"
   d="m 347.647,168.325 c -0.169,-0.176 -0.5,0.063 -0.347,0.268 2.398,3.215 2.255,7.012 3.552,10.608 0.224,0.621 1.155,0.542 1.175,-0.159 0.11,-3.894 -1.724,-7.952 -4.38,-10.717 z"
   id="path130" />

			</g>

			<g
   id="g131">
				<path
   d="m 372.884,190.663 c 0.218,-3.775 -1.828,-7.967 -4.334,-10.461 -3.089,-3.075 -7.833,-4.83 -12.155,-3.928 -0.67,-4.6 -3.726,-9.423 -6.921,-11.748 -6.463,-4.702 -15.89,-2.701 -20.895,3.187 -2.167,-3.201 -6.986,-2.916 -9.799,-0.596 -4.518,-5.221 -12.137,-4.097 -17.265,-0.09 -2.536,1.981 -5.487,4.623 -6.898,7.604 -1.007,2.127 -1.69,5.776 -0.235,7.935 -2.515,-0.396 -5.239,0.127 -7.67,1.227 -3.527,1.595 -9.889,5.325 -8.774,10.062 1.053,4.471 8.341,7.104 12.075,8.548 6.632,2.565 14.206,3.837 21.163,1.91 6.994,2.61 12.957,6.552 20.653,7.162 8.015,0.636 16.586,0.527 24.515,-0.902 6.129,-1.105 13.376,-3.474 17.431,-8.521 2.658,-3.311 3.425,-9.183 -0.891,-11.389 z m -10.478,16.689 c -5.878,2.078 -12.19,2.554 -18.378,2.687 -6.146,0.132 -12.777,0.503 -18.734,-1.239 -4.69,-1.372 -8.794,-4.59 -13.61,-5.362 -0.078,-0.098 -0.195,-0.163 -0.357,-0.15 -0.161,0.014 -0.322,0.023 -0.483,0.036 -0.345,-0.034 -0.695,-0.054 -1.049,-0.059 -0.12,-0.002 -0.186,0.068 -0.224,0.151 -8.513,0.521 -16.603,-0.548 -24.294,-4.705 -1.518,-0.821 -3.804,-1.875 -4.908,-3.191 -3.641,-4.34 1.392,-7.555 4.31,-9.382 4.771,-2.988 10.268,-3.983 14.784,0.012 0.326,0.289 0.747,-0.144 0.473,-0.473 -1.126,-1.353 -2.495,-2.228 -3.983,-2.728 0.013,-0.015 0.025,-0.031 0.038,-0.046 0.092,-0.111 0.068,-0.293 -0.088,-0.333 -1.235,-1.943 -1.478,-3.984 -0.728,-6.122 0.606,-1.688 1.553,-3.154 2.841,-4.398 1.575,-1.728 3.428,-3.483 5.362,-4.783 5.452,-3.664 10.52,-2.736 15.276,1.442 0.439,0.386 1.239,-0.124 0.861,-0.664 -0.097,-0.139 -0.206,-0.255 -0.306,-0.387 1.522,-1 3.409,-1.448 5.206,-1.024 1.6,0.378 2.72,1.412 3.939,2.436 0.392,0.329 0.903,-0.074 0.693,-0.535 -0.015,-0.033 -0.034,-0.06 -0.05,-0.092 5.434,-3.878 12.107,-7.432 18.637,-3.358 5.03,3.138 8.282,10.473 6.866,16.34 -0.17,0.705 0.884,1.228 1.223,0.516 0.683,-1.436 0.898,-3.065 0.773,-4.749 4.146,0.084 7.993,0.938 11.048,4.013 3.361,3.383 3.393,7.216 3.718,11.596 0.05,0.678 0.945,0.805 1.175,0.159 0.098,-0.276 0.178,-0.558 0.245,-0.843 5.938,6.654 -4.506,13.196 -10.276,15.235 z"
   id="path131" />

			</g>

		</g>
  </g>
</svg>
