<?xml version="1.0" encoding="UTF-8" standalone="no"?>
<!-- Created with Inkscape (http://www.inkscape.org/) -->

<svg
   width="32.078297mm"
   height="16.686939mm"
   viewBox="0 0 32.078297 16.686939"
   version="1.1"
   id="svg1"
   inkscape:version="1.4 (86a8ad7, 2024-10-11)"
   sodipodi:docname="cloud.svg"
   xmlns:inkscape="http://www.inkscape.org/namespaces/inkscape"
   xmlns:sodipodi="http://sodipodi.sourceforge.net/DTD/sodipodi-0.dtd"
   xmlns="http://www.w3.org/2000/svg"
   xmlns:svg="http://www.w3.org/2000/svg">
  <sodipodi:namedview
     id="namedview1"
     pagecolor="#ffffff"
     bordercolor="#000000"
     borderopacity="0.25"
     inkscape:showpageshadow="2"
     inkscape:pageopacity="0.0"
     inkscape:pagecheckerboard="0"
     inkscape:deskcolor="#d1d1d1"
     inkscape:document-units="mm"
     inkscape:zoom="0.72604517"
     inkscape:cx="55.781653"
     inkscape:cy="195.58012"
     inkscape:window-width="1147"
     inkscape:window-height="1040"
     inkscape:window-x="2392"
     inkscape:window-y="56"
     inkscape:window-maximized="0"
     inkscape:current-layer="layer1" />
  <defs
     id="defs1" />
  <g
     inkscape:label="Capa 1"
     inkscape:groupmode="layer"
     id="layer1"
     transform="translate(-90.4875,-96.572917)">
    <g
       id="g225"
       transform="matrix(0.26458333,0,0,0.26458333,77.573308,85.554669)">
			<path
   style="fill:#e7f8ff"
   d="m 165.36,65.743 c -0.561,-0.692 -0.895,-1.196 -1.611,-1.128 1.248,-5.683 0.285,-12.288 -3.186,-15.918 -2.983,-3.12 -7.706,-4.149 -11.864,-3.935 -2.286,0.118 -4.263,0.767 -6.439,1.412 -4.831,1.433 -8.028,1.045 -12.618,-0.599 -3.919,-1.404 -7.85,-3.301 -11.928,-1.511 -2.76,1.211 -0.188,2.483 -5.543,2.951 -1.786,0.156 -4.045,-0.701 -5.771,-1.086 -3.114,-0.695 -6.225,-1.407 -9.342,-2.086 -5.472,-1.192 -8.886,-0.863 -13.479,2.431 -4.508,3.232 -8.684,6.764 -11.702,11.468 -0.062,0.096 -0.109,0.192 -0.146,0.287 -2.627,0.358 -5.294,-0.33 -7.946,0.092 -2.564,0.408 -5.068,1.391 -7.198,2.883 -3.742,2.621 -6.115,6.743 -6.426,11.306 -0.62,9.109 6.198,13.567 13.706,15.916 -0.677,0.35 -1.269,0.917 -1.711,1.889 -1.601,3.512 1.272,6.527 4.112,8.075 4.473,2.437 9.841,3.516 14.893,3.669 2.6,0.079 5.188,-0.14 7.747,-0.599 1.9,-0.341 6.242,-0.202 8.484,-0.906 0.297,0.751 -1.019,0.223 0,0 0.997,-0.252 2.012,-0.397 3.036,-0.474 0.054,0.147 0.105,0.292 0.179,0.45 1.229,2.621 5.545,3.022 8.017,3.009 5.778,-0.03 13.368,-0.621 19.115,-0.305 10.116,0.556 23.344,-4.831 31.61,-12.033 12.1,-10.542 11.563,-18.405 6.011,-25.258 z"
   id="path219" />

			<path
   style="fill:#b4e0fd"
   d="m 61.679,82.825 c -4.425,-5.768 -5.925,-11.374 -2.391,-18.157 0.31,-0.595 -0.468,-1.273 -0.963,-0.743 -5.295,5.666 -4.924,15.92 2.044,20.21 0.765,0.472 1.912,-0.525 1.31,-1.31 z"
   id="path220" />

			<path
   style="fill:#b4e0fd"
   d="m 67.503,80.652 c -0.611,-1.39 -1.556,-2.534 -2.016,-4.015 -0.458,-1.477 -0.619,-2.93 -0.488,-4.467 0.06,-0.7 -1.122,-0.87 -1.238,-0.168 -0.518,3.151 -0.031,7.575 2.833,9.558 0.608,0.421 1.146,-0.369 0.909,-0.908 z"
   id="path221" />

			<path
   style="fill:#b4e0fd"
   d="m 166.152,65.659 c -0.421,-1.117 -2.199,-1.037 -2.186,0.296 0.068,7.077 0.331,13.792 -4.503,19.617 -4.453,5.366 -11.313,8.405 -17.735,10.661 -13.203,4.638 -25.913,4.534 -39.652,4.006 -1.156,-0.045 -1.391,1.73 -0.272,2.014 16.18,4.108 47.997,-0.082 60.29,-15.492 0.262,-0.007 0.529,-0.1 0.759,-0.32 5.84,-5.582 5.969,-13.704 3.299,-20.782 z"
   id="path222" />

			<path
   style="fill:#b4e0fd"
   d="m 135.977,49.539 c -6.235,-5.961 -20.458,-8.694 -25.492,0.059 -0.285,0.496 0.428,1.098 0.818,0.631 2.738,-3.279 7.211,-3.719 11.204,-3.459 5.018,0.327 7.824,2.443 12.095,4.55 1.107,0.546 2.354,-0.846 1.375,-1.781 z"
   id="path223" />

			<g
   id="g224">
				<path
   d="m 165.361,63.027 c 1.083,-5.422 -0.082,-11.591 -3.415,-15.186 -5.211,-5.621 -19.421,-7.697 -23.19,0.411 -7.109,-7.324 -21.814,-9.145 -28.56,-0.704 -5.103,-5.194 -14.264,-6.868 -20.965,-5.388 -8.365,1.848 -14.816,8.166 -17.636,16.109 -9.079,-4.106 -21.383,2.439 -22.65,12.402 -1.132,8.905 4.979,16.13 12.799,18.959 -0.027,0.05 -0.062,0.09 -0.082,0.151 -2.643,7.929 8.702,11.529 14.389,12.869 7.402,1.744 15.853,1.608 23.168,-1.055 17.37,5.927 40.029,3.078 55.97,-5.796 6.293,-3.503 12.027,-8.777 14.054,-15.895 1.598,-5.611 1.078,-13.125 -3.882,-16.877 z m -0.75,21.296 c -4.213,6.626 -11.763,10.474 -18.923,13.039 -14.723,5.276 -29.035,5.046 -44.195,3.293 0.904,-0.411 1.791,-0.854 2.645,-1.352 0.793,-0.462 0.272,-1.836 -0.641,-1.52 -6.378,2.202 -12.486,3.97 -19.338,3.715 -5.435,-0.202 -22.439,-2.378 -20.925,-11.284 0.006,-0.036 -0.003,-0.065 -0.001,-0.099 1.953,0.552 3.988,0.833 6.023,0.802 0.765,-0.012 0.997,-1.24 0.188,-1.386 -8.852,-1.6 -18.633,-6.173 -18.777,-16.618 -0.068,-4.941 2.527,-9.284 6.775,-11.778 4.762,-2.797 9.419,-2.23 14.628,-1.629 0.193,0.022 0.332,-0.086 0.406,-0.236 0.183,-0.068 0.344,-0.204 0.427,-0.435 2.685,-7.469 8.869,-13.434 16.787,-15.014 8.781,-1.752 14.753,2.471 21.512,7.155 0.578,0.401 1.287,-0.377 0.943,-0.943 -0.33,-0.543 -0.71,-1.049 -1.111,-1.537 3.762,-3.254 8.079,-5.141 13.232,-4.762 5.535,0.407 9.389,3.399 13.995,5.897 -0.003,0.353 0.444,0.512 0.711,0.29 0.357,-0.007 0.616,-0.348 0.547,-0.699 5.692,-7.087 19.583,-5.189 22.654,3.778 2.269,6.624 0.954,13.782 -4.204,18.537 -0.636,0.586 0.172,1.508 0.886,1.148 3.009,-1.516 5.016,-4.453 6.058,-7.869 3.122,6.496 3.87,12.945 -0.302,19.507 z"
   id="path224" />

			</g>

		</g>
  </g>
</svg>
