<?xml version="1.0" encoding="UTF-8" standalone="no"?>
<!-- Created with Inkscape (http://www.inkscape.org/) -->

<svg
   width="19.186632mm"
   height="21.58172mm"
   viewBox="0 0 19.186632 21.58172"
   version="1.1"
   id="svg1"
   inkscape:version="1.4 (86a8ad7, 2024-10-11)"
   sodipodi:docname="dec1.svg"
   xmlns:inkscape="http://www.inkscape.org/namespaces/inkscape"
   xmlns:sodipodi="http://sodipodi.sourceforge.net/DTD/sodipodi-0.dtd"
   xmlns="http://www.w3.org/2000/svg"
   xmlns:svg="http://www.w3.org/2000/svg">
  <sodipodi:namedview
     id="namedview1"
     pagecolor="#ffffff"
     bordercolor="#000000"
     borderopacity="0.25"
     inkscape:showpageshadow="2"
     inkscape:pageopacity="0.0"
     inkscape:pagecheckerboard="0"
     inkscape:deskcolor="#d1d1d1"
     inkscape:document-units="mm"
     inkscape:zoom="0.72604517"
     inkscape:cx="-35.121782"
     inkscape:cy="110.87464"
     inkscape:window-width="1920"
     inkscape:window-height="1017"
     inkscape:window-x="-8"
     inkscape:window-y="-8"
     inkscape:window-maximized="1"
     inkscape:current-layer="layer1" />
  <defs
     id="defs1" />
  <g
     inkscape:label="Capa 1"
     inkscape:groupmode="layer"
     id="layer1"
     transform="translate(-114.56458,-119.32708)">
    <g
       id="g141"
       transform="matrix(0.26458333,0,0,0.26458333,105.8173,73.112037)">
			<path
   style="fill:#eaaabd"
   d="m 101.723,212.344 c -9.107,-5.324 -17.558,-11.04 -25.617,-17.86 -6.953,-5.884 -14.48,-10.911 -22.577,-15.068 -0.139,-0.396 -0.542,-0.559 -0.865,-0.447 -1.374,-0.658 -2.597,0.937 -2.019,1.977 -0.043,0.107 -0.091,0.21 -0.107,0.338 -3.159,24.314 -12.704,50.467 -14.705,70.421 -0.078,0.775 -2.163,2.618 -1.35,2.525 4.978,-0.567 10.018,-4.278 14.388,-6.557 6.213,-3.24 12.313,-6.688 18.348,-10.25 11.816,-6.975 23.373,-14.45 34.504,-22.475 0.893,-0.645 1.048,-1.992 0,-2.604 z"
   id="path132" />

			<g
   id="g139">
				<path
   style="fill:#f3d3da"
   d="m 91.717,207.41 c -1.584,3.832 -1.989,9.611 -1.361,13.675 0.138,0.895 1.344,0.54 1.44,-0.195 0.289,-2.207 0.168,-4.477 0.352,-6.702 0.182,-2.204 0.636,-4.431 0.576,-6.642 -0.017,-0.614 -0.795,-0.65 -1.007,-0.136 z"
   id="path133" />

				<path
   style="fill:#f3d3da"
   d="m 86.609,203.138 c -0.073,-0.479 -0.751,-0.384 -0.879,0 -1.086,3.254 -1.081,6.825 -1.384,10.227 -0.35,3.927 -0.751,7.854 -0.959,11.79 -0.064,1.222 1.73,1.163 1.865,0 0.801,-6.882 2.41,-15.155 1.357,-22.017 z"
   id="path134" />

				<path
   style="fill:#f3d3da"
   d="m 79.285,197.803 c -0.02,-0.611 -1.002,-0.811 -1.119,-0.151 -1.938,10.947 -1.933,22.489 -2.744,33.572 -0.086,1.169 1.742,1.167 1.823,0 0.765,-11.015 2.407,-22.383 2.04,-33.421 z"
   id="path135" />

				<path
   style="fill:#f3d3da"
   d="m 70.514,191.969 c -2.958,6.105 -2.135,13.643 -2.658,20.243 -0.717,9.052 -2.066,18.028 -3.933,26.913 -0.231,1.1 1.457,1.57 1.689,0.466 1.605,-7.639 2.844,-15.339 3.628,-23.106 0.789,-7.812 0.006,-16.499 2.523,-23.989 0.244,-0.726 -0.91,-1.227 -1.249,-0.527 z"
   id="path136" />

				<path
   style="fill:#f3d3da"
   d="m 63.072,185.957 c -0.036,-0.472 -0.691,-0.59 -0.839,-0.114 -2.728,8.755 -2.683,18.977 -3.724,28.062 -1.136,9.916 -2.309,19.828 -3.376,29.752 -0.132,1.225 1.764,1.201 1.908,0 1.152,-9.61 2.201,-19.232 3.285,-28.85 0.542,-4.808 1.094,-9.616 1.626,-14.425 0.524,-4.732 1.478,-9.667 1.12,-14.425 z"
   id="path137" />

				<path
   style="fill:#f3d3da"
   d="m 52.974,179.443 c -2.1,11.075 -3.109,22.339 -4.255,33.549 -1.199,11.733 -2.45,23.499 -3.159,35.273 -0.084,1.401 2.042,1.371 2.164,0 1.021,-11.459 1.771,-22.938 2.863,-34.392 1.09,-11.434 2.624,-22.843 3.267,-34.31 0.029,-0.499 -0.785,-0.62 -0.88,-0.12 z"
   id="path138" />

				<path
   style="fill:#f3d3da"
   d="m 41.15,225.761 c 0.007,-0.366 -0.557,-0.45 -0.643,-0.087 -2.033,8.516 -1.947,17.51 -1.404,26.197 0.07,1.119 1.82,1.128 1.752,0 -0.533,-8.756 0.137,-17.365 0.295,-26.11 z"
   id="path139" />

			</g>

			<g
   id="g140">
				<path
   d="m 105.417,215.84 c -2.497,-3.944 -6.477,-6.47 -10.456,-8.742 -5.541,-3.163 -10.576,-6.257 -15.381,-10.529 -9.504,-8.452 -20.264,-16.247 -31.712,-21.861 -0.357,-0.175 -0.818,0.313 -0.457,0.593 1.18,0.916 2.371,1.81 3.569,2.692 -4.096,12.457 -6.827,25.458 -9.73,38.233 -2.924,12.865 -5.614,25.781 -8.164,38.725 -0.187,0.952 0.692,1.546 1.534,1.179 23.744,-10.322 46.041,-23.723 66.398,-39.712 1.139,-0.895 -0.463,-2.47 -1.591,-1.591 -19.74,15.382 -41.164,28.257 -63.928,38.617 2.342,-12.274 4.896,-24.507 7.643,-36.697 2.857,-12.675 6.361,-25.258 8.858,-38.009 8.754,6.373 17.836,12.104 25.947,19.463 7.995,7.254 18.458,11.023 25.781,18.941 0.825,0.893 2.345,-0.266 1.689,-1.302 z"
   id="path140" />

			</g>

		</g>
  </g>
</svg>
