<?xml version="1.0" encoding="UTF-8" standalone="no"?>
<!-- Created with Inkscape (http://www.inkscape.org/) -->

<svg
   width="21.196499mm"
   height="23.133459mm"
   viewBox="0 0 21.196499 23.133459"
   version="1.1"
   id="svg1"
   inkscape:version="1.4 (86a8ad7, 2024-10-11)"
   sodipodi:docname="dec2.svg"
   xmlns:inkscape="http://www.inkscape.org/namespaces/inkscape"
   xmlns:sodipodi="http://sodipodi.sourceforge.net/DTD/sodipodi-0.dtd"
   xmlns="http://www.w3.org/2000/svg"
   xmlns:svg="http://www.w3.org/2000/svg">
  <sodipodi:namedview
     id="namedview1"
     pagecolor="#ffffff"
     bordercolor="#000000"
     borderopacity="0.25"
     inkscape:showpageshadow="2"
     inkscape:pageopacity="0.0"
     inkscape:pagecheckerboard="0"
     inkscape:deskcolor="#d1d1d1"
     inkscape:document-units="mm"
     inkscape:zoom="0.72604517"
     inkscape:cx="-91.592097"
     inkscape:cy="127.40254"
     inkscape:window-width="1920"
     inkscape:window-height="1017"
     inkscape:window-x="-8"
     inkscape:window-y="-8"
     inkscape:window-maximized="1"
     inkscape:current-layer="layer1" />
  <defs
     id="defs1" />
  <g
     inkscape:label="Capa 1"
     inkscape:groupmode="layer"
     id="layer1"
     transform="translate(-129.38125,-114.82917)">
    <g
       id="g152"
       transform="matrix(0.26458333,0,0,0.26458333,120.33303,15.162051)">
			<path
   style="fill:#cfa8fb"
   d="m 112.33,429.961 c -4.585,-7.01 -10.364,-12.925 -15.435,-19.566 -5.233,-6.853 -10.423,-13.694 -14.867,-21.095 -0.416,-0.693 -1.5,-0.917 -2.076,-0.268 -5.477,6.177 -12.137,11.159 -18.777,16.006 -5.536,4.042 -12.416,5.882 -16.637,11.426 -0.364,0.164 -0.605,0.545 -0.506,1.023 0.008,0.173 0.072,0.331 0.17,0.469 3.744,7.94 9.124,16.393 15.57,22.377 3.123,2.898 5.885,5.906 8.51,9.267 1.37,1.753 2.732,3.525 4.26,5.147 1.939,2.059 4.993,3.835 5.986,6.615 0.493,1.38 2.907,1.304 2.749,-0.372 -0.411,-4.349 -0.447,-8.659 0.054,-13.005 0.443,-3.848 0.863,-10.898 4.066,-13.382 3.008,-2.332 9.263,-1.417 13.047,-1.62 4.196,-0.224 8.39,-0.486 12.584,-0.75 1.073,-0.069 1.968,-1.254 1.302,-2.272 z"
   id="path141" />

			<path
   style="fill:#e9d8fd"
   d="m 56.671,408.821 c -0.058,-0.358 -0.583,-0.305 -0.673,0 -2.238,7.581 -1.313,16.455 -2.581,24.279 -0.105,0.649 0.853,1.216 1.171,0.494 1.549,-3.514 1.495,-7.393 1.728,-11.182 0.273,-4.452 1.066,-9.174 0.355,-13.591 z"
   id="path142" />

			<path
   style="fill:#e9d8fd"
   d="m 62.944,403.731 c -2.096,12.084 -2.745,24.863 -3.479,37.103 -0.073,1.219 1.729,1.164 1.866,0 1.417,-12.099 3.027,-24.721 3.082,-36.904 0.003,-0.817 -1.321,-1.05 -1.469,-0.199 z"
   id="path143" />

			<path
   style="fill:#e9d8fd"
   d="m 72.027,397.535 c -0.075,-0.805 -1.219,-0.825 -1.267,0 -0.506,8.576 -0.353,17.158 -1.034,25.734 -0.673,8.473 -2.874,17.082 -3.03,25.539 -0.015,0.822 1.137,0.92 1.385,0.187 2.579,-7.618 2.797,-16.853 3.435,-24.841 0.699,-8.781 1.329,-17.834 0.511,-26.619 z"
   id="path144" />

			<path
   style="fill:#e9d8fd"
   d="m 79.421,392.07 c -0.102,-0.797 -1.201,-0.831 -1.267,0 -0.838,10.429 -0.123,20.941 -1.132,31.398 -1.053,10.916 -2.382,21.822 -4.415,32.601 -0.225,1.191 1.598,1.702 1.826,0.503 1.974,-10.377 3.661,-20.817 4.369,-31.365 0.725,-10.809 1.994,-22.352 0.619,-33.137 z"
   id="path145" />

			<path
   style="fill:#e9d8fd"
   d="m 86.04,394.623 c -0.107,-0.506 -0.842,-0.361 -0.867,0.117 -0.561,10.878 -0.084,21.602 -1.413,32.482 -1.386,11.344 -3.548,22.526 -5.758,33.733 -0.231,1.173 1.569,1.674 1.799,0.496 2.16,-11.058 4.346,-22.167 5.729,-33.353 1.326,-10.729 2.774,-22.791 0.51,-33.475 z"
   id="path146" />

			<path
   style="fill:#e9d8fd"
   d="m 94.409,407.866 c -0.056,-0.404 -0.723,-0.384 -0.796,0 -1.515,7.912 -1.006,15.844 -3.172,23.752 -0.279,1.019 1.276,1.443 1.579,0.435 2.24,-7.454 3.46,-16.449 2.389,-24.187 z"
   id="path147" />

			<path
   style="fill:#e9d8fd"
   d="m 101.689,417.49 c -0.096,-0.375 -0.629,-0.438 -0.82,-0.107 -1.064,1.838 -1.059,4.211 -1.375,6.29 -0.372,2.449 -0.747,4.897 -1.11,7.348 -0.158,1.066 1.453,1.548 1.648,0.454 0.464,-2.612 0.881,-5.227 1.263,-7.852 0.293,-2.011 0.906,-4.139 0.394,-6.133 z"
   id="path148" />

			<path
   style="fill:#e9d8fd"
   d="m 107.281,423.753 c -0.041,-0.36 -0.572,-0.619 -0.77,-0.208 -0.678,1.413 -0.962,2.978 -1.255,4.509 -0.269,1.404 -0.683,2.874 -0.44,4.294 0.097,0.566 0.94,0.621 1.197,0.156 0.709,-1.282 0.778,-2.874 0.984,-4.31 0.211,-1.463 0.451,-2.965 0.284,-4.441 z"
   id="path149" />

			<path
   style="fill:#e9d8fd"
   d="m 49.891,412.349 c -0.018,-0.496 -0.812,-0.659 -0.909,-0.123 -0.418,2.307 -0.65,4.64 -1.054,6.949 -0.355,2.032 -1.11,4.093 -0.971,6.156 0.036,0.536 0.771,0.81 1.061,0.287 1.022,-1.842 1.12,-4.074 1.393,-6.139 0.313,-2.371 0.568,-4.738 0.48,-7.13 z"
   id="path150" />

			<g
   id="g151">
				<path
   d="m 113.052,427.573 c -4.865,-6.523 -10.87,-12.246 -15.781,-18.79 -4.865,-6.482 -9.226,-13.26 -13.55,-20.108 -0.202,-0.32 -0.486,-0.467 -0.775,-0.495 2.673,-3.066 4.728,-6.469 5.435,-10.262 0.19,-1.017 -1.197,-1.75 -1.757,-0.741 -2.673,4.816 -5.198,9.025 -9.297,12.832 -4.315,4.007 -9.117,7.487 -13.925,10.871 -9.671,6.809 -19.687,13.164 -28.985,20.488 -0.606,0.478 0.171,1.426 0.811,1.051 11.486,-6.716 22.621,-14.414 33.381,-22.24 4.094,-2.978 9.145,-6.507 13.155,-10.701 0.025,0.09 0.059,0.182 0.113,0.275 6.076,10.572 13.389,20.519 21.154,29.906 1.89,2.285 3.818,4.54 5.799,6.746 0.918,1.022 3.783,3.137 1.773,4.864 -0.413,0.355 -4.623,-0.05 -5.201,-0.056 -6.934,-0.075 -13.868,-0.081 -20.802,-0.16 -0.625,-0.007 -0.985,0.495 -1.057,1.057 -1.236,9.628 -2.484,19.255 -3.731,28.882 -6.729,-6.134 -13.019,-12.72 -18.749,-19.805 -3.27,-4.044 -6.342,-8.24 -9.247,-12.554 -2.388,-3.545 -4.381,-8.503 -7.695,-11.202 -0.264,-0.215 -0.596,-0.011 -0.547,0.319 0.659,4.435 4.473,8.891 6.939,12.563 2.553,3.801 5.273,7.492 8.115,11.081 6.406,8.091 13.524,15.564 21.217,22.439 0.726,0.649 1.661,0.149 1.776,-0.736 1.296,-9.969 2.59,-19.938 3.896,-29.906 8.265,0.171 16.869,1.04 25.087,0.422 3.884,-0.291 4.743,-2.963 2.448,-6.04 z"
   id="path151" />

			</g>

		</g>
  </g>
</svg>
