<?xml version="1.0" encoding="UTF-8" standalone="no"?>
<!-- Created with Inkscape (http://www.inkscape.org/) -->

<svg
   width="32.063549mm"
   height="72.318192mm"
   viewBox="0 0 32.063549 72.318192"
   version="1.1"
   id="svg1"
   inkscape:version="1.4 (86a8ad7, 2024-10-11)"
   sodipodi:docname="girafa.svg"
   xmlns:inkscape="http://www.inkscape.org/namespaces/inkscape"
   xmlns:sodipodi="http://sodipodi.sourceforge.net/DTD/sodipodi-0.dtd"
   xmlns="http://www.w3.org/2000/svg"
   xmlns:svg="http://www.w3.org/2000/svg">
  <sodipodi:namedview
     id="namedview1"
     pagecolor="#ffffff"
     bordercolor="#000000"
     borderopacity="0.25"
     inkscape:showpageshadow="2"
     inkscape:pageopacity="0.0"
     inkscape:pagecheckerboard="0"
     inkscape:deskcolor="#d1d1d1"
     inkscape:document-units="mm"
     inkscape:zoom="1.4520903"
     inkscape:cx="62.323946"
     inkscape:cy="141.17579"
     inkscape:window-width="1147"
     inkscape:window-height="1040"
     inkscape:window-x="2473"
     inkscape:window-y="7"
     inkscape:window-maximized="0"
     inkscape:current-layer="layer1" />
  <defs
     id="defs1" />
  <g
     inkscape:label="Capa 1"
     inkscape:groupmode="layer"
     id="layer1"
     transform="translate(-88.641855,-113.60163)">
    <g
       id="use293"
       transform="matrix(0.26458333,0,0,0.26458333,49.881263,85.59839)">
			<g
   id="g181">
				<path
   style="fill:#efc250"
   d="m 264.093,307.754 c -0.328,-3.881 -0.503,-8.352 -1.652,-12.228 1.187,-9.816 -2.414,-20.753 -4.458,-30.202 -2.469,-11.414 -6,-22.956 -5.162,-34.729 0.025,-0.357 -0.205,-0.599 -0.496,-0.711 -0.186,-1.592 -0.601,-3.163 -0.921,-4.773 -0.773,-3.9 -1.373,-7.815 -1.686,-11.783 -0.531,-6.748 -0.445,-13.453 0.154,-20.193 0.115,-1.293 -1.869,-1.313 -2.047,-0.071 -6.176,4.301 -13.47,5.795 -20.892,4.19 -0.498,-0.108 -1.016,0.227 -1.011,0.77 0.114,12.086 -0.039,25.426 -3.502,37.088 -1.675,5.639 -2.473,10.044 -7.547,13.289 -4.902,3.135 -11.754,5.607 -17.38,6.296 -4.293,0.525 -18.284,4.872 -20.692,5.089 -8.694,0.783 -17.835,4.059 -21.032,11.744 -0.776,-0.331 -1.194,-2.128 -1.97,-2.459 -0.043,-0.018 -0.086,-0.028 -0.129,-0.042 -0.39,-0.249 -0.78,-0.497 -1.17,-0.746 -0.11,-0.07 -0.217,-0.113 -0.323,-0.144 -0.833,-0.682 -1.606,-1.448 -2.335,-2.313 -0.679,-2.047 -1.05,-4.283 -1.585,-6.454 -0.123,-0.499 -0.847,-0.369 -0.869,0.118 -0.099,2.146 0.054,4.376 0.576,6.467 -0.136,0.301 -0.168,0.654 -0.03,0.977 0.406,0.952 0.883,1.819 1.421,2.628 1.011,1.824 2.459,3.38 4.469,4.447 -0.915,4.308 -1.859,8.641 -2.48,13.005 -0.115,0.132 -0.207,0.298 -0.264,0.505 -1.879,6.88 -3.483,14.004 -1.848,20.952 2.146,9.116 2.145,14.13 1.238,21.342 -0.073,0.581 0.214,0.946 0.616,1.103 0.211,9.74 0.928,19.398 2.169,29.028 -1.232,5.274 -0.095,11.987 4.404,15.53 1.225,0.965 2.247,1.316 3.647,0.545 1.297,-0.715 2.252,-2.531 3.187,-3.667 0.773,-0.94 2.173,-3.466 2.942,-4.41 0.515,3.094 1.853,7.119 5.822,5.775 2.588,-0.876 4.319,-3.281 6.035,-5.27 2.411,-2.794 4.796,-5.641 6.828,-8.729 1.967,-2.989 1.337,-5.378 2.524,-8.75 0.661,-1.877 1.255,-4.753 2.065,-6.551 0.608,-1.35 0.328,-5.117 2.244,-5.276 0.776,-0.064 4.69,0.573 5.472,0.654 3.377,0.353 6.873,0.788 10.098,-0.198 1.914,-0.585 3.055,0.119 4.912,-0.623 0.776,-0.31 1.796,-0.965 2.627,-1.048 2.301,-0.23 3.023,-1.087 5.158,-0.709 -0.883,-0.156 0.496,4.912 0.627,5.776 0.755,4.976 2.576,9.072 3.882,13.935 1.023,3.806 1.735,9.399 3.984,12.714 2.927,4.314 7.4,3.708 9.214,-1.431 1.046,2.931 2.136,6.478 4.051,8.61 1.899,2.114 4.398,1.717 6.154,-0.092 7.19,-7.408 10.381,-12.915 11.989,-21.17 1.983,-10.18 3.139,-20.591 3.418,-30.956 0.154,-5.618 0.027,-11.247 -0.446,-16.849 z"
   id="path1" />

				<g
   id="g180">
					<path
   style="fill:#482509"
   d="m 166.295,280.534 c -0.402,-0.689 -0.849,-1.307 -1.302,-1.807 -0.568,-0.627 -1.272,-0.56 -1.783,-0.167 -0.37,-0.039 -0.778,0.137 -0.899,0.553 -0.175,0.602 -0.502,1.794 -0.811,3.233 -0.091,0.093 -0.178,0.197 -0.255,0.326 -0.863,1.457 -1.45,3.151 -1.025,4.754 -0.271,0.586 -0.347,1.294 -0.203,1.87 0.123,0.493 0.434,0.955 0.815,1.281 0.071,0.061 0.147,0.118 0.225,0.171 0.491,1.742 1.672,2.708 4.06,1.879 4.159,-1.446 4.726,-9.69 1.178,-12.093 z"
   id="path2" />

					<path
   style="fill:#482509"
   d="m 181.676,291.308 c -0.421,-0.026 -0.822,0.065 -1.185,0.23 -0.105,0.008 -0.21,0.01 -0.313,0.031 -1.602,0.325 -2.54,2.172 -1.756,3.641 0.37,0.693 1.097,1.14 1.862,1.234 0.377,0.046 0.752,0.05 1.09,-0.101 0.224,0.03 0.446,0.051 0.656,0.055 1.407,0.028 2.623,-0.882 2.475,-2.387 -0.139,-1.422 -1.408,-2.616 -2.829,-2.703 z"
   id="path108" />

					<path
   style="fill:#482509"
   d="m 202.448,293.45 c -1.041,-1.008 -2.655,-1.03 -3.899,-0.428 -1.183,0.573 -2.774,2.62 -1.145,3.647 0.117,0.073 0.234,0.114 0.35,0.14 0.618,0.577 1.65,0.847 2.46,0.623 0.017,-0.005 0.031,-0.015 0.048,-0.021 0.263,0.01 0.528,-0.012 0.787,-0.079 0.732,-0.188 1.527,-0.601 1.913,-1.277 0.495,-0.867 0.168,-1.945 -0.514,-2.605 z"
   id="path109" />

					<path
   style="fill:#482509"
   d="m 220.444,279.292 c -1.468,-3.791 -5.331,-2.054 -7.633,0.525 -0.814,0.111 -1.58,0.379 -2.127,0.816 -1.421,1.136 -2.006,3.652 -2.005,5.393 0.001,2.01 2.141,2.76 3.841,2.674 3.921,-0.199 9.576,-5.142 7.924,-9.408 z"
   id="path110" />

					<path
   style="fill:#482509"
   d="m 230.259,288.226 c -0.216,-0.542 -0.64,-1.002 -1.269,-1.211 -0.809,-0.268 -1.783,-0.056 -2.399,0.523 -0.367,-0.1 -0.786,0.032 -0.88,0.48 0.042,-0.054 0.085,-0.108 0.127,-0.163 -0.049,0.063 -0.097,0.126 -0.146,0.189 -0.114,0.195 -0.125,0.379 -0.11,0.594 0.016,0.243 0.085,0.466 0.181,0.689 0.072,0.168 0.167,0.322 0.272,0.468 0.01,0.045 0.013,0.086 0.026,0.133 0.466,1.673 2.616,1.741 3.699,0.694 0.315,-0.304 0.505,-0.676 0.597,-1.064 0.252,-0.455 0.188,-0.952 -0.098,-1.332 z"
   id="path111" />

					<path
   style="fill:#482509"
   d="m 202.094,282.594 c 0.048,-0.278 0.016,-0.575 -0.138,-0.805 -0.47,-0.701 -1.292,-1.046 -2.122,-0.823 -0.827,0.223 -1.462,0.925 -1.484,1.8 -0.046,1.889 2.786,2.751 3.71,1.04 0.233,-0.431 0.208,-0.862 0.034,-1.212 z"
   id="path112" />

					<path
   style="fill:#482509"
   d="m 159.545,272.499 c -0.016,-0.243 -0.052,-0.486 -0.127,-0.732 -0.103,-0.339 -0.574,-0.618 -0.902,-0.367 -2.066,1.579 -2.059,5.474 -2.102,7.853 -0.025,1.368 2.239,1.752 2.453,0.332 0.292,-1.935 0.79,-3.769 1.432,-5.614 0.267,-0.767 -0.169,-1.298 -0.754,-1.472 z"
   id="path113" />

					<path
   style="fill:#482509"
   d="m 172.166,274.121 c -0.075,-0.088 -0.154,-0.173 -0.242,-0.251 -0.157,-0.765 -0.911,-1.236 -1.667,-1.387 -1.009,-0.202 -2.006,0.234 -2.585,1.073 -1.235,1.792 -0.011,4.175 2.081,4.402 0.688,0.075 1.399,-0.112 1.96,-0.511 0.119,-0.036 0.236,-0.08 0.348,-0.145 0.588,-0.34 0.914,-0.986 0.902,-1.657 -0.012,-0.692 -0.335,-1.191 -0.797,-1.524 z"
   id="path114" />

					<path
   style="fill:#482509"
   d="m 180.232,266.277 c -3.204,-4.743 -13.762,-5.319 -16.194,0.623 -1.265,3.092 1.719,3.805 4.083,3.611 3.47,-0.286 8.164,0.06 10.899,-2.415 0.167,-0.151 0.273,-0.378 0.34,-0.619 0.639,0.166 1.255,-0.633 0.872,-1.2 z"
   id="path115" />

					<path
   style="fill:#482509"
   d="m 181.582,268.576 c -1.169,0.199 -2.222,0.87 -3.096,1.781 -0.423,0.333 -0.784,0.78 -1.06,1.344 -0.811,1.25 -1.344,2.685 -1.493,3.955 -0.146,1.239 0.077,2.649 1.093,3.488 1.133,0.936 2.672,0.614 3.956,0.188 2.805,-0.93 5.135,-3.217 5.152,-6.263 0.507,-2.582 -1.936,-4.939 -4.552,-4.493 z"
   id="path116" />

					<path
   style="fill:#482509"
   d="m 191.962,260.792 c -0.659,-0.708 -1.646,-1.045 -2.585,-1.147 -0.379,-0.041 -1.268,0.117 -2.128,0.242 -0.969,-0.366 -1.967,-0.618 -3.038,-0.761 -0.205,-0.027 -0.411,0.025 -0.602,0.121 -0.265,-0.069 -0.529,-0.137 -0.794,-0.206 -0.679,-0.176 -1.497,0.218 -1.75,0.879 -0.186,0.084 -0.336,0.234 -0.413,0.472 -0.265,0.814 0.308,1.704 1.059,2.457 0.315,0.534 0.721,0.966 1.188,1.318 0.188,0.246 0.408,0.466 0.632,0.629 0.699,0.507 1.47,0.949 2.299,1.162 0.135,0.084 0.287,0.154 0.475,0.185 0.134,0.022 0.263,0.031 0.394,0.047 0,0.002 0,0.004 -0.001,0.005 0.013,0 0.024,-10e-4 0.037,-10e-4 1.571,0.183 2.952,-0.092 4.251,-0.858 0.02,-0.008 0.04,-0.014 0.059,-0.022 0.129,-0.055 0.232,-0.129 0.325,-0.209 0.212,-0.143 0.423,-0.298 0.632,-0.468 0.436,-0.354 0.539,-0.808 0.437,-1.232 0.424,-0.771 0.388,-1.684 -0.477,-2.613 z"
   id="path117" />

					<path
   style="fill:#482509"
   d="m 199.281,260.553 c 0.939,-1.582 -0.34,-3.662 -2.05,-3.907 -1.18,-0.169 -2.271,0.542 -2.724,1.551 -0.238,0.138 -0.425,0.354 -0.47,0.636 -0.299,1.904 1.452,3.574 3.183,4 0.917,0.226 2.065,-0.656 1.671,-1.671 -0.011,-0.029 -0.026,-0.056 -0.038,-0.085 0.158,-0.139 0.302,-0.311 0.428,-0.524 z"
   id="path118" />

					<path
   style="fill:#482509"
   d="m 203.414,266.484 c -3.181,-1.97 -6.069,-1.863 -8.655,-0.25 -0.249,0.04 -0.497,0.099 -0.741,0.189 -0.914,0.335 -1.649,1.263 -2.111,2.309 -2.311,2.659 -1.215,4.938 1.134,5.737 2.12,1.582 5.777,1.148 8.145,0.145 1.727,-0.732 3.693,-1.598 4.352,-3.523 0.675,-1.975 -0.502,-3.603 -2.124,-4.607 z"
   id="path119" />

					<path
   style="fill:#482509"
   d="m 216.778,268.446 c -0.03,-0.037 -0.068,-0.066 -0.101,-0.101 -0.118,-0.207 -0.28,-0.384 -0.488,-0.49 -0.938,-0.478 -1.993,-0.812 -2.962,-0.327 -0.95,0.166 -1.863,0.582 -2.561,1.25 -0.331,0.317 -0.598,0.709 -0.76,1.12 -0.23,0.387 -0.396,0.8 -0.476,1.214 -0.091,0.476 0.048,1.149 0.557,1.368 2.103,0.906 4.543,0.589 6.215,-1.056 0.796,-0.781 1.393,-1.983 0.576,-2.978 z"
   id="path120" />

					<path
   style="fill:#482509"
   d="m 220.176,256.09 c -0.102,-0.816 -0.454,-1.385 -0.955,-1.78 0.011,-0.043 0.029,-0.082 0.034,-0.128 0.471,-4.232 -7.119,-1.59 -8.763,-0.856 -2.998,1.338 -8.801,4.31 -7.343,8.536 1.265,3.667 7.17,3.262 10.103,2.316 3.103,-1.001 7.39,-4.355 6.924,-8.088 z"
   id="path121" />

					<path
   style="fill:#482509"
   d="m 227.7,240.851 c -0.174,-0.136 -0.352,-0.219 -0.531,-0.278 -0.08,-0.167 -0.199,-0.32 -0.364,-0.438 -1.082,-0.773 -2.493,0.055 -3.108,1.018 -0.038,0.06 -0.069,0.127 -0.103,0.191 -1.392,0.96 -2.29,2.613 -2.889,4.306 -0.731,2.066 -0.873,5.719 2.34,5.471 2.089,-0.161 3.357,-2.029 4.15,-4.001 0.682,-1.141 1.096,-2.442 1.073,-3.346 -0.002,-0.072 -0.018,-0.145 -0.026,-0.217 0.211,-0.972 0.317,-2.035 -0.542,-2.706 z"
   id="path122" />

					<path
   style="fill:#482509"
   d="m 235.15,236.409 c -0.511,-0.853 -1.685,-1.006 -2.491,-0.498 -0.54,0.341 -0.785,0.836 -0.873,1.381 -0.723,0.999 -0.812,2.535 -0.28,3.604 0.4,0.805 1.402,0.724 1.994,0.257 1.205,-0.951 2.564,-3.22 1.65,-4.744 z"
   id="path123" />

					<path
   style="fill:#482509"
   d="m 229.801,222.997 c -0.577,-0.491 -1.587,-0.522 -1.979,0.255 -0.988,1.961 -2.152,6.126 -0.595,8.284 -0.096,0.414 -0.107,0.846 0.005,1.253 0.571,2.079 3.708,2.283 3.937,0.189 0.086,-0.231 0.142,-0.479 0.168,-0.732 3.265,-2.066 0.683,-7.362 -1.536,-9.249 z"
   id="path124" />

					<path
   style="fill:#482509"
   d="m 235.067,219.697 c -0.079,-0.165 -0.17,-0.319 -0.278,-0.464 -0.091,-0.143 -0.183,-0.285 -0.276,-0.428 -0.445,-0.683 -1.424,-0.881 -2.027,-0.261 -0.023,0.024 -0.043,0.052 -0.065,0.077 -0.187,0.095 -0.365,0.215 -0.519,0.371 -0.1,0.1 -0.185,0.217 -0.264,0.34 -0.34,0.319 -0.581,0.804 -0.681,1.205 -0.23,0.921 0.116,1.906 0.879,2.465 0.342,0.387 0.813,0.634 1.427,0.616 1.01,-0.03 1.971,-0.822 2.206,-1.808 0.189,-0.803 -0.045,-1.474 -0.402,-2.113 z"
   id="path125" />

					<path
   style="fill:#482509"
   d="m 241.274,227.985 c -0.444,-0.778 -1.708,-1.224 -2.539,-0.889 -0.63,0.254 -0.93,0.98 -0.944,1.622 -0.014,0.672 0.356,1.298 0.919,1.644 0.588,0.362 1.241,0.15 1.628,-0.293 0.847,-0.253 1.446,-1.191 0.936,-2.084 z"
   id="path126" />

					<path
   style="fill:#482509"
   d="m 230.179,212.567 c -0.226,-1.883 -1.632,-5.467 -4.133,-4.747 -0.266,0.077 -0.406,0.345 -0.346,0.609 0.067,0.296 0.176,0.57 0.302,0.837 -0.036,0.071 -0.074,0.14 -0.093,0.225 -0.31,1.321 -0.002,2.612 0.01,3.96 0.014,1.599 -0.167,3.171 -0.486,4.735 -0.259,1.267 0.945,2.122 2.078,1.598 2.582,-1.196 2.97,-4.706 2.668,-7.217 z"
   id="path127" />

					<path
   style="fill:#482509"
   d="m 227.497,255.401 c 0.095,-1.367 -1.051,-2.386 -2.391,-2.36 -0.109,0.002 -0.207,0.024 -0.31,0.038 -0.467,-0.053 -0.951,0.039 -1.389,0.322 -0.732,0.473 -1.293,1.315 -1.443,2.195 -0.104,0.17 -0.196,0.35 -0.26,0.553 -0.347,1.106 0.229,2.454 1.355,2.835 1.068,0.362 1.96,-0.233 2.656,-0.988 0.932,-0.53 1.712,-1.581 1.782,-2.595 z"
   id="path128" />

					<path
   style="fill:#e8a380"
   d="m 161.623,366.507 c -1.229,-0.513 -2.616,-0.88 -3.832,-1.167 -0.514,-0.121 -1.013,-0.195 -1.494,-0.194 -0.484,-0.529 -1.233,-0.326 -1.667,0.186 -0.472,-0.084 -1.033,0.252 -1.093,0.842 -0.027,0.263 -0.034,0.526 -0.031,0.789 -0.01,0.12 -0.004,0.24 0.014,0.359 0.083,1.392 0.548,2.762 1.229,3.974 0.315,0.559 0.728,1.241 1.238,1.794 0.092,0.297 0.273,0.578 0.568,0.803 0.603,0.46 1.243,0.694 1.889,0.759 0.321,0.103 0.661,0.133 1.014,0.058 0.214,-0.045 0.396,-0.128 0.564,-0.229 2.066,-0.628 3.903,-2.728 4.369,-4.745 0.404,-1.745 -1.352,-2.704 -2.768,-3.229 z"
   id="path129" />

					<path
   style="fill:#e8a380"
   d="m 179.009,368.454 c 0.12,-0.397 0.198,-0.807 0.218,-1.23 0.06,-1.269 -1.601,-1.512 -2.227,-0.603 -0.06,0.086 -0.109,0.173 -0.165,0.26 -0.102,-0.053 -0.215,-0.095 -0.344,-0.117 -0.161,-0.028 -0.344,-0.048 -0.536,-0.064 -2.032,-0.86 -4.138,-1.224 -6.347,-0.539 -0.546,-0.226 -1.283,-0.062 -1.382,0.619 -0.009,0.059 -0.004,0.118 -0.011,0.177 -0.208,0.369 -0.178,0.831 0.011,1.239 0.015,0.125 0.016,0.25 0.04,0.374 -0.336,0.746 -0.074,1.775 0.824,2.011 0.584,0.893 1.418,1.62 2.475,1.993 1.391,0.491 2.562,0.132 3.512,-0.628 0.409,0.296 0.97,0.396 1.534,0.107 0.866,-0.442 1.605,-1 2.279,-1.703 0.513,-0.537 0.531,-1.34 0.119,-1.896 z"
   id="path130" />

					<path
   style="fill:#e8a380"
   d="m 171.569,221.469 c -3.056,3.515 -8.114,4.391 -11.65,7.284 -2.608,2.134 -3.638,5.918 -4.09,9.1 -0.087,0.617 0.315,1.306 0.849,1.604 -0.053,0.284 -0.016,0.586 0.171,0.876 1.903,2.941 6.846,0.444 8.845,-1.176 1.184,-0.96 2.116,-2.085 2.854,-3.32 0.339,-0.07 0.659,-0.273 0.889,-0.656 1.452,-2.413 2.486,-4.675 2.724,-7.205 0.121,-0.659 0.221,-1.328 0.289,-2.014 0.038,-0.384 -0.129,-0.705 -0.383,-0.947 -0.02,-0.133 -0.025,-0.259 -0.049,-0.394 -0.038,-0.21 -0.112,-0.381 -0.209,-0.521 0.417,-0.479 0.797,-0.998 1.099,-1.599 0.409,-0.815 -0.669,-1.803 -1.339,-1.032 z m -4.976,6.661 c -0.143,-0.058 -0.293,-0.092 -0.445,-0.1 0.35,-0.197 0.701,-0.395 1.053,-0.59 -0.199,0.233 -0.4,0.465 -0.608,0.69 z"
   id="path131" />

					<path
   style="fill:#e8a380"
   d="m 237.312,364.384 c -0.157,-0.026 -0.327,-0.053 -0.504,-0.081 -0.134,-0.101 -0.289,-0.184 -0.483,-0.223 -0.303,-0.061 -0.602,-0.101 -0.898,-0.129 -1.322,-1.567 -4.546,-0.566 -6.535,0.557 -0.333,-0.236 -0.704,-0.292 -1.112,0.001 -0.26,0.186 -0.358,0.555 -0.103,0.802 0.007,0.006 0.014,0.006 0.02,0.012 -0.009,0.008 -0.021,0.016 -0.03,0.024 -0.707,0.626 -0.397,2.091 0.593,2.246 0.044,0.005 0.087,0.02 0.131,0.026 0.246,0.698 0.505,1.36 0.98,1.947 0.864,1.068 2.139,1.545 3.461,1.762 1.289,0.212 2.736,0.299 3.699,-0.743 1.048,-1.136 1.409,-3.158 1.683,-4.611 0.118,-0.629 -0.169,-1.471 -0.902,-1.59 z"
   id="path132" />

					<path
   style="fill:#e8a380"
   d="m 251.357,368.657 c -1.833,-0.841 -3.946,-1.335 -5.905,-1.057 -0.209,-0.014 -0.413,0.023 -0.606,0.113 -0.792,0.183 -1.549,0.507 -2.243,1 -0.462,-0.067 -0.918,0.268 -0.877,0.839 -0.209,0.406 -0.192,0.917 0.025,1.318 0.583,1.078 0.513,2.527 1.026,3.682 0.286,0.643 0.644,1.232 1.05,1.789 0.11,0.901 0.647,1.567 1.934,1.595 0.351,0.008 0.631,-0.122 0.846,-0.318 0.073,-0.019 0.148,-0.042 0.223,-0.077 0.274,0.033 0.569,-0.019 0.866,-0.201 1.141,-0.701 5.716,-3.648 4.354,-5.451 0.885,-1.212 1.073,-2.422 -0.693,-3.232 z"
   id="path133" />

					<path
   style="fill:#e8a380"
   d="m 264.581,164.055 c -2.538,-5.199 -8.346,-9.935 -13.548,-12.176 -5.433,-2.34 -10.926,-2.396 -16.684,-1.56 -4.533,0.658 -10.157,-0.333 -13.66,2.726 -1.633,0.801 -3.236,1.674 -4.807,2.608 -5.781,1.575 -10.709,5.501 -13.177,11.042 -2.031,4.561 -1.56,8.502 0.293,12.303 -0.638,0.35 -1.016,1.073 -0.457,1.809 7.337,9.648 16.302,20.631 29.859,18.702 12.317,-1.753 23.937,-8.233 29.928,-19.41 2.536,-4.73 4.778,-10.872 2.253,-16.044 z"
   id="path134" />

					<path
   style="fill:#efc250"
   d="m 261.773,122.826 c -5.329,-2.498 -11.083,0.4 -15.12,3.921 -1.488,1.298 -2.719,3.28 -4.859,2.537 -1.743,-0.605 -2.408,-2.442 -2.68,-4.092 -0.727,-4.41 1.108,-8.949 2.297,-13.083 0.124,-0.43 0.186,-0.849 0.198,-1.251 0.061,-0.343 0.064,-0.647 0.026,-0.925 0.097,-1.347 -0.939,-2.768 -2.516,-2.615 -0.762,-0.165 -1.65,-0.074 -2.613,0.378 -0.516,0.243 -0.619,0.96 -0.371,1.415 0.309,0.568 0.934,1.159 1.631,1.573 -0.03,0.098 -0.065,0.192 -0.077,0.303 -0.534,5.038 -1.755,9.844 -3.612,14.544 -2.57,-0.571 -5.189,-0.811 -7.846,-0.571 -3.004,0.271 -5.69,1.895 -8.56,2.29 -2.154,0.296 -3.417,-0.638 -4.261,-2.171 -0.282,-1.075 -0.659,-2.122 -1.13,-3.131 -0.934,-3.693 -1.355,-8.207 -4.089,-9.766 -1.942,-1.108 -5.764,-0.188 -5.218,2.698 0.335,1.769 1.938,2.277 3.348,1.88 2.181,4.311 5.548,7.567 5.489,13.099 -0.068,6.439 -3.929,3.199 -6.154,1.519 -1.577,-1.191 -4.13,-2.614 -6.022,-3.466 -5.6,-2.523 -15.732,3.94 -12.825,12.454 0.264,0.772 1.468,1.098 1.885,0.246 4.089,-8.352 14.277,-5.322 19.974,-0.696 0.182,0.148 0.367,0.231 0.549,0.272 -1.236,5.784 -0.926,12.015 -0.556,17.855 0.058,0.913 1.011,1.224 1.684,0.697 5.675,-4.439 12.362,-7.28 19.492,-8.33 3.299,-0.486 6.698,-0.6 10.024,-0.343 2.053,0.159 4.089,0.475 6.094,0.944 1.186,0.277 2.816,1.106 4.026,1.058 3.59,-0.141 1.569,-4.792 0.844,-6.989 -1.075,-3.257 -3.203,-7.412 -1.261,-10.817 1.109,-1.944 4.842,-3.848 6.978,-4.22 3.846,-0.67 5.449,1.293 7.579,3.672 0.404,0.451 1.325,0.375 1.588,-0.205 1.852,-4.082 0.203,-8.744 -3.936,-10.684 z"
   id="path135" />

					<path
   style="fill:#e8a380"
   d="m 208.14,139.756 c 0.063,-0.236 0.032,-0.502 -0.178,-0.748 -3.146,-3.669 -7.912,-5.709 -12.703,-4.187 -2.355,0.748 -3.985,1.639 -6.296,4.004 -1.941,2.916 -1.153,3.49 0.353,4.962 0.059,0.079 0.128,0.144 0.203,0.197 1.029,0.945 2.458,1.854 3.863,2.626 1.894,1.566 5.139,3.003 5.956,3.182 1.363,0.298 4.142,0.495 5.989,-0.098 0.692,0.03 1.371,-0.048 1.867,-0.466 0.479,-0.405 0.586,-0.826 0.66,-1.453 0.033,-0.283 -0.091,-0.767 -0.221,-1.202 0.172,-1.068 0.187,-2.283 0.173,-3.407 0.033,-0.064 0.061,-0.134 0.082,-0.209 0.19,-0.698 0.381,-1.395 0.574,-2.092 0.119,-0.434 -0.035,-0.841 -0.322,-1.109 z"
   id="path136" />

					<path
   style="fill:#e8a380"
   d="m 265.533,129.565 c -1.273,-1.698 -3.466,-1.631 -5.726,-0.894 -0.826,0.129 -1.643,0.299 -2.442,0.517 -0.152,-0.034 -0.32,-0.037 -0.501,-0.002 -1.925,0.38 -3.654,1.02 -4.957,1.964 -0.596,0.376 -1.167,0.798 -1.713,1.268 -0.479,0.355 -0.923,0.776 -1.348,1.29 -0.635,0.768 -0.099,1.766 0.625,1.939 -0.01,0.863 0.155,1.817 0.533,2.871 0.572,1.596 1.561,2.489 2.738,2.891 0.393,0.314 0.829,0.365 1.209,0.245 2.074,0.151 4.469,-0.844 6.269,-2.202 2.188,-1.652 7.655,-6.763 5.313,-9.887 z"
   id="path137" />

					<path
   style="fill:#482509"
   d="m 206.416,112.599 c 0.362,-0.465 0.124,-1.033 -0.458,-1.105 -0.93,-0.115 -1.827,0.9 -2.07,1.704 -0.3,0.993 -0.084,2.026 0.666,2.735 0.729,0.688 1.987,-0.199 1.424,-1.099 -0.202,-0.322 -0.272,-0.738 -0.206,-1.117 0.093,-0.529 0.338,-0.724 0.644,-1.118 z"
   id="path138" />

					<path
   style="fill:#482509"
   d="m 241.456,109.308 c -0.249,-0.088 -0.477,0.013 -0.631,0.186 -10e-4,-0.006 -0.002,-0.012 -0.003,-0.019 -0.314,0.267 -0.195,0.703 -0.411,0.989 -0.211,0.28 -0.485,0.471 -0.764,0.546 -0.977,0.262 -0.816,1.889 0.245,1.811 0.868,-0.064 1.659,-0.529 2.003,-1.356 0.283,-0.68 0.41,-1.859 -0.439,-2.157 z"
   id="path139" />

					<path
   style="fill:#482509"
   d="m 250.935,124.245 c -0.455,0.273 -0.9,0.577 -1.335,0.897 -0.429,0.071 -0.84,0.27 -1.224,0.514 -0.612,0.388 -1.301,0.91 -1.655,1.556 -0.112,0.204 -0.097,0.44 -0.013,0.647 -0.012,0.003 -0.024,0.004 -0.037,0.008 -0.383,0.102 -0.439,0.542 -0.216,0.817 0.891,1.094 2.789,0.739 3.859,0.12 1.327,-0.767 2.03,-2.21 2.114,-3.701 0.043,-0.758 -0.872,-1.229 -1.493,-0.858 z"
   id="path140" />

					<path
   style="fill:#482509"
   d="m 234.305,128.252 c -0.913,-2.875 -5.246,-1.672 -7.381,-2.608 -0.921,-0.394 -1.765,0.402 -1.772,1.137 -0.069,0.007 -0.136,0.008 -0.207,0.02 -0.216,0.036 -0.228,0.305 -0.117,0.441 1.927,2.357 5.158,2.923 8.019,2.538 0.23,-0.031 0.401,-0.159 0.521,-0.331 0.597,0.003 1.135,-0.575 0.937,-1.197 z"
   id="path141" />

					<path
   style="fill:#482509"
   d="m 220.54,129.557 c -1.149,0.286 -2.085,1.261 -2.174,2.46 -0.085,1.149 0.643,2.125 1.678,2.411 0.007,0.004 0.013,0.009 0.02,0.013 1.008,0.542 2.296,0.345 3.03,-0.549 1.56,-1.901 -0.028,-4.963 -2.554,-4.335 z"
   id="path142" />

					<path
   style="fill:#482509"
   d="m 226.471,132.258 c -1.632,0 -1.634,2.536 0,2.536 1.632,-0.001 1.635,-2.536 0,-2.536 z"
   id="path143" />

					<path
   style="fill:#482509"
   d="m 244.332,131.127 c -0.124,-0.006 -0.231,0.005 -0.332,0.025 -0.042,-0.111 -0.096,-0.217 -0.175,-0.302 -0.425,-0.459 -1.052,-0.671 -1.623,-0.438 -0.411,-0.324 -0.908,-0.58 -1.418,-0.778 -0.118,-0.046 -0.251,-0.098 -0.39,-0.151 0.044,-0.243 0.013,-0.501 -0.148,-0.746 -0.519,-0.79 -1.409,-1.129 -2.311,-0.729 -0.338,0.15 -0.582,0.378 -0.763,0.649 -0.381,0.226 -0.701,0.544 -0.903,0.99 -0.592,1.308 0.346,2.628 1.563,3.104 0.965,0.663 2.303,0.906 3.473,0.953 0.366,0.112 0.737,0.201 1.127,0.224 1.153,0.068 2.977,-0.428 2.804,-1.895 -0.058,-0.507 -0.366,-0.879 -0.904,-0.906 z"
   id="path144" />

					<path
   style="fill:#482509"
   d="m 260.79,125.219 c -0.078,-0.186 -0.21,-0.353 -0.422,-0.463 -1.021,-0.534 -2.289,-0.592 -3.225,0.107 -0.079,0.024 -0.16,0.04 -0.239,0.066 -1.221,0.405 -0.94,2.06 0.294,2.174 0.911,0.084 1.837,0.126 2.743,0.252 1.453,0.202 1.868,-1.635 0.849,-2.136 z"
   id="path145" />

					<g
   id="g147">
						<path
   style="fill:#482509"
   d="m 258.762,121.607 c -0.317,-0.16 -0.647,-0.258 -1.006,-0.25 -0.158,0.004 -0.331,0.029 -0.482,0.074 -0.089,0.038 -0.178,0.075 -0.267,0.113 -0.14,0.109 -0.211,0.165 -0.23,0.179 -0.779,0.497 -0.435,1.627 0.392,1.8 0.226,0.088 0.468,0.149 0.697,0.211 1.24,0.338 2.101,-1.519 0.896,-2.127 z"
   id="path146" />

						<path
   style="fill:#482509"
   d="m 256.777,121.723 c 0.017,-0.011 0.026,-0.026 0.044,-0.036 -0.048,0.038 -0.057,0.046 -0.044,0.036 z"
   id="path147" />

					</g>

					<path
   style="fill:#482509"
   d="m 263.662,125.971 c -0.476,0 -0.477,0.74 0,0.74 0.476,0 0.477,-0.74 0,-0.74 z"
   id="path148" />

					<path
   style="fill:#482509"
   d="m 199.179,128.885 c -0.286,-2.15 -4.964,-2.839 -6.003,-0.811 -0.276,0.537 -0.283,1.224 0.027,1.751 0.41,0.698 1.181,0.805 1.915,0.85 1.208,0.074 3.502,0.382 4.151,-0.89 0.164,-0.32 0.112,-0.626 -0.09,-0.9 z"
   id="path149" />

					<path
   style="fill:#482509"
   d="m 191.201,131.632 c -0.363,-0.455 -1.085,-0.676 -1.606,-0.321 -0.091,0.062 -0.167,0.132 -0.249,0.198 -0.001,-10e-4 -0.002,-0.002 -0.003,-0.004 -0.005,0.006 -0.011,0.012 -0.016,0.018 -0.536,0.435 -0.914,0.961 -1.154,1.637 -0.063,0.178 -0.059,0.381 -0.016,0.577 0.007,0.316 0.158,0.635 0.485,0.85 0.037,0.024 0.074,0.049 0.111,0.073 0.381,0.249 0.859,0.164 1.197,-0.099 0.102,-0.056 0.197,-0.126 0.276,-0.205 0.14,-0.141 0.236,-0.308 0.296,-0.495 0.003,-0.005 0.01,-0.017 0.027,-0.05 0,-0.001 0.001,-0.001 0.001,-0.002 0.034,-0.02 0.071,-0.033 0.104,-0.058 0.179,-0.137 0.31,-0.309 0.45,-0.485 0.386,-0.485 0.512,-1.113 0.097,-1.634 z"
   id="path150" />

					<path
   style="fill:#482509"
   d="m 198.796,131.856 c -0.332,0.567 -0.132,1.33 0.436,1.662 0.695,0.406 1.547,0.016 1.785,-0.726 0.421,-1.311 -1.531,-2.115 -2.221,-0.936 z"
   id="path151" />

					<path
   style="fill:#482509"
   d="m 207.509,132.626 c -0.106,-0.153 -0.222,-0.297 -0.356,-0.424 -0.303,-0.285 -0.97,-0.216 -1.038,0.274 -0.015,0.112 -0.014,0.227 -0.019,0.342 -0.33,0.401 -0.276,1.095 0.154,1.485 0.245,1.05 0.704,2.112 1.016,3.031 0.296,0.873 1.374,0.985 1.887,0.247 1.242,-1.786 0.39,-4.385 -1.644,-4.955 z"
   id="path152" />

					<path
   style="fill:#482509"
   d="m 246.792,129.857 c -0.185,-0.411 -0.483,-0.924 -0.831,-1.212 -0.701,-0.579 -1.585,-0.023 -1.457,0.848 0.064,0.435 0.36,0.984 0.615,1.342 0.291,0.41 0.678,0.813 1.203,0.842 0.229,0.012 0.48,-0.137 0.587,-0.337 0.25,-0.465 0.088,-1.026 -0.117,-1.483 z"
   id="path153" />

					<path
   style="fill:#482509"
   d="m 214.478,130.681 c -0.125,-0.279 -0.458,-0.355 -0.739,-0.276 -0.381,-0.155 -0.816,-0.114 -1.12,0.277 -0.06,0.077 -0.11,0.157 -0.168,0.234 -0.003,-0.002 -0.005,-0.004 -0.008,-0.006 -0.056,0.084 -0.119,0.178 -0.181,0.27 -0.868,1.205 -1.55,2.483 -2.028,3.909 -0.251,0.749 0.58,1.665 1.359,1.358 2.192,-0.863 3.948,-3.388 2.885,-5.766 z"
   id="path154" />

					<path
   style="fill:#482509"
   d="m 177.806,338.007 c -1.118,-0.831 -2.177,-0.537 -3.076,0.191 -0.066,0.001 -0.125,-0.006 -0.195,0 -2.301,0.214 -3.009,3.352 -3.343,5.717 -0.017,0.047 -0.036,0.094 -0.052,0.141 -1.147,2.45 -2.048,5.836 -0.607,7.831 1.914,2.649 4.772,-0.632 5.869,-2.283 1.249,-1.879 2.704,-5.131 2.363,-7.727 0.239,-1.554 0.118,-3.069 -0.959,-3.87 z"
   id="path155" />

					<path
   style="fill:#482509"
   d="m 167.743,357.062 c -0.868,-1.332 -2.778,-1.825 -3.95,-0.585 -0.063,0.067 -0.123,0.139 -0.178,0.216 -0.549,0.311 -0.998,0.794 -1.222,1.398 -0.483,1.306 0.222,2.763 1.404,3.421 2.705,1.505 5.561,-1.973 3.946,-4.45 z"
   id="path156" />

					<path
   style="fill:#482509"
   d="m 166.561,345.98 c -1.33,-1.009 -2.932,-0.489 -3.649,0.747 -0.275,0.18 -0.496,0.526 -0.458,0.831 0.018,0.141 0.047,0.279 0.085,0.413 -0.057,0.908 0.291,1.903 0.965,2.522 0.773,0.709 1.89,0.621 2.6,-0.128 0.157,-0.166 0.277,-0.354 0.374,-0.55 1.186,-0.9 1.437,-2.807 0.083,-3.835 z"
   id="path157" />

					<path
   style="fill:#482509"
   d="m 158.64,356.091 c 0.045,-0.732 0.032,-1.406 0.003,-1.859 -0.041,-0.652 -0.617,-1.125 -1.201,-1.1 -0.307,-0.27 -0.675,-0.458 -1.112,-0.487 -1.225,-0.082 -1.75,0.939 -2.033,1.956 -0.392,1.41 -0.752,4.027 0.566,5.136 0.067,0.196 0.139,0.385 0.216,0.564 0.279,0.651 1.113,0.538 1.55,0.2 0.212,-0.164 0.409,-0.346 0.59,-0.541 0.567,-0.383 0.923,-1.113 1.138,-1.951 0.209,-0.618 0.304,-1.268 0.283,-1.918 z"
   id="path158" />

					<path
   style="fill:#482509"
   d="m 261.798,331.818 c 0.011,-0.03 0.017,-0.06 0.027,-0.091 0.427,-1.146 0.67,-2.342 0.673,-3.574 0.069,-2.094 -0.417,-4.173 -1.411,-6.121 -0.409,-0.801 -1.745,-0.822 -2.147,0 -0.19,0.387 -0.35,0.78 -0.499,1.176 -0.98,1.237 -1.17,3.997 -0.763,5.24 0.122,1.58 0.547,3.148 1.329,4.641 0.18,0.342 0.516,0.538 0.878,0.599 0.581,0.263 1.337,0.128 1.495,-0.637 0.03,-0.142 0.064,-0.314 0.101,-0.502 0.097,-0.212 0.187,-0.427 0.272,-0.643 0.013,-0.031 0.033,-0.056 0.045,-0.088 z"
   id="path159" />

					<path
   style="fill:#482509"
   d="m 262.962,342.637 c -0.137,-1.254 -0.136,-3.252 -1.6,-3.745 -1.258,-0.423 -1.995,0.545 -2.461,1.542 -0.129,0.02 -0.26,0.076 -0.385,0.203 -1.571,1.604 -2.596,3.712 -3.301,5.829 -0.466,1.401 -1.46,3.947 -0.319,5.291 0.958,1.128 3.295,1.513 4.679,1.32 1.597,-0.223 2.695,-1.351 3.126,-2.876 0.669,-2.366 0.524,-5.154 0.261,-7.564 z"
   id="path160" />

					<path
   style="fill:#482509"
   d="m 253.941,332.607 c -0.111,-0.006 -0.216,0.015 -0.323,0.027 -0.162,-0.091 -0.366,-0.105 -0.59,0.04 -0.189,0.123 -0.354,0.269 -0.527,0.406 -0.049,0.036 -0.098,0.072 -0.145,0.112 -0.955,0.797 -1.676,1.81 -2.098,3.01 -0.428,1.221 -0.668,2.827 0.518,3.705 2.643,1.958 5.754,-2.348 5.616,-4.721 -0.074,-1.274 -1.137,-2.51 -2.451,-2.579 z"
   id="path161" />

					<path
   style="fill:#482509"
   d="m 258.865,357.335 c -0.501,-1.589 -2.143,-2.674 -3.713,-2.161 -0.407,-0.064 -0.825,-0.036 -1.22,0.125 -2.919,1.195 -0.513,5.674 0.822,7.168 0.469,0.526 1.306,0.44 1.788,0 0.195,-0.178 0.393,-0.366 0.587,-0.563 0.42,-0.016 0.845,-0.231 1.074,-0.598 0.453,-0.726 0.695,-1.536 0.745,-2.365 0.102,-0.512 0.093,-1.049 -0.083,-1.606 z"
   id="path162" />

					<path
   style="fill:#b69345"
   d="m 182.237,337.889 c -0.12,-0.709 -1.235,-0.663 -1.388,0 -1.084,4.702 -1.453,9.264 -3.365,13.776 -2.058,4.86 -5.131,8.614 -8.507,12.595 -0.954,1.124 0.478,2.534 1.606,1.606 7.291,-5.998 13.265,-18.434 11.654,-27.977 z"
   id="path163" />

					<path
   style="fill:#b69345"
   d="m 235.217,347.259 c -1.265,-4.959 -2.554,-10.182 -4.998,-14.709 -0.501,-0.928 -1.796,-0.26 -1.617,0.682 0.944,4.983 2.791,9.817 4.011,14.745 1.192,4.816 1.514,10.315 3.362,14.888 0.402,0.994 1.789,0.866 1.881,-0.254 0.407,-4.975 -1.417,-10.563 -2.639,-15.352 z"
   id="path164" />

					<path
   style="fill:#b69345"
   d="m 155.164,269.744 c -0.833,-0.69 -2.007,-0.968 -2.947,-1.52 -1.05,-0.617 -2.086,-1.279 -2.893,-2.203 -0.264,-0.303 -0.719,0.084 -0.539,0.416 0.641,1.189 1.349,2.312 2.451,3.135 0.988,0.738 2.363,1.512 3.627,1.31 0.49,-0.079 0.675,-0.829 0.301,-1.138 z"
   id="path165" />

					<path
   style="fill:#b69345"
   d="m 248.523,193.34 c -2.15,1.115 -3.637,3.069 -5.835,4.186 -3.013,1.532 -6.421,2.078 -9.747,2.385 -1.928,0.178 -5.955,-0.541 -6.297,2.137 -0.046,0.359 0.402,0.517 0.666,0.382 2.191,-1.119 6.299,-0.17 8.757,-0.481 2.224,-0.281 4.395,-0.759 6.472,-1.62 2.769,-1.146 6.307,-3.036 7.109,-6.124 0.174,-0.667 -0.538,-1.169 -1.125,-0.865 z"
   id="path166" />

					<path
   style="fill:#b69345"
   d="m 210.426,147.877 c -0.004,-3.237 0.332,-6.521 -0.029,-9.74 -0.036,-0.321 -0.457,-0.4 -0.571,-0.077 -2.008,5.72 -2.16,13.913 -0.887,19.804 0.215,0.993 1.647,0.705 1.699,-0.23 0.181,-3.228 -0.208,-6.517 -0.212,-9.757 z"
   id="path167" />

					<path
   style="fill:#b69345"
   d="m 242.07,137.939 c -0.095,-0.497 -0.86,-0.582 -1.086,-0.142 -0.647,1.259 -1.175,2.522 -2.537,3.174 -1.719,0.824 -3.684,0.16 -5.094,-0.952 -0.656,-0.517 -1.476,0.27 -0.924,0.925 1.574,1.869 4.174,2.678 6.494,1.76 1.888,-0.747 3.554,-2.64 3.147,-4.765 z"
   id="path168" />

					<path
   style="fill:#b69345"
   d="m 220.567,142.146 c -0.191,-0.201 -0.588,-0.17 -0.716,0.092 -0.6,1.233 -0.714,2.822 -2.304,3.23 -1.686,0.432 -2.467,-1.153 -3.484,-2.094 -0.253,-0.234 -0.586,-0.106 -0.706,0.187 -0.978,2.375 2.545,4.148 4.516,3.749 1.989,-0.403 4.478,-3.291 2.694,-5.164 z"
   id="path169" />

					<path
   style="fill:#e1785a"
   d="m 215.584,173.175 c -0.974,-2.084 -2.827,-3.22 -4.806,-3.464 -1.067,-0.296 -2.19,-0.311 -3.266,0.036 -2.161,0.46 -4.096,2.201 -4.609,4.54 -0.214,0.976 -0.145,1.931 0.12,2.825 0.295,2.982 2.779,5.691 5.977,5.923 3.677,0.266 6.896,-2.899 7.054,-6.448 0.188,-1.095 0.065,-2.267 -0.47,-3.412 z m -7.044,2.893 c 0.09,-0.571 0.259,-0.9 0.462,-1.054 -0.233,0.711 -0.385,1.435 -0.449,2.103 -0.001,0.017 -0.002,0.035 -0.004,0.052 -0.067,-0.298 -0.077,-0.668 -0.009,-1.101 z"
   id="path170" />

					<path
   style="fill:#e1785a"
   d="m 262.096,169.381 c 0.178,-0.848 0.198,-1.712 0.014,-2.539 -1.301,-5.857 -9.152,-7.004 -12.094,-1.787 -1.325,2.35 -0.719,5.203 0.873,7.08 0.264,0.631 0.628,1.23 1.124,1.761 1.873,2.005 4.155,1.992 6.089,0.924 2.308,-0.731 3.886,-3.054 3.994,-5.439 z"
   id="path171" />

					<path
   style="fill:#ac765f"
   d="m 208.094,143.457 c -3.081,-3.545 -8.224,-4.269 -12.631,-3.344 -0.636,0.134 -0.351,1.044 0.263,0.955 4.439,-0.64 8.099,0.906 11.92,2.969 0.379,0.205 0.722,-0.265 0.448,-0.58 z"
   id="path172" />

					<path
   style="fill:#ac765f"
   d="m 206.232,145.315 c -1.816,-1.483 -4.887,-1.34 -7.018,-0.736 -0.843,0.239 -0.465,1.385 0.351,1.273 1.142,-0.156 2.343,-0.179 3.486,0.001 0.92,0.145 1.784,0.521 2.709,0.6 0.554,0.047 0.912,-0.779 0.472,-1.138 z"
   id="path173" />

					<path
   style="fill:#ac765f"
   d="m 258.593,130.081 c -4.21,-0.525 -8.98,2.982 -9.821,7.112 -0.103,0.504 0.348,0.85 0.749,0.757 -0.176,0.205 -0.346,0.417 -0.498,0.647 -0.479,0.721 0.549,1.398 1.141,0.88 1.554,-1.359 3.164,-2.411 5.217,-2.826 0.727,-0.147 0.567,-1.334 -0.176,-1.297 -1.863,0.093 -3.693,0.74 -5.067,1.969 0.987,-1.507 2.05,-2.998 3.532,-4.06 1.533,-1.098 3.276,-1.639 5.06,-2.171 0.593,-0.176 0.414,-0.942 -0.137,-1.011 z"
   id="path174" />

					<path
   style="fill:#ac765f"
   d="m 257.297,154.542 c -8.807,-6.879 -23.319,-6.098 -33.26,-2.552 -5.1,1.819 -9.817,4.51 -14.086,7.831 -3.305,2.571 -9.913,7.046 -9.32,11.796 0.056,0.45 0.682,0.601 0.83,0.112 1.432,-4.713 8.12,-9.292 11.956,-11.869 4.049,-2.719 8.486,-4.902 13.168,-6.285 4.68,-1.382 9.573,-1.931 14.441,-1.592 5.609,0.391 10.097,2.485 15.334,4.169 0.869,0.282 1.709,-1.006 0.937,-1.61 z"
   id="path175" />

					<path
   style="fill:#ac765f"
   d="m 171.463,223.016 c -0.151,-0.081 -0.37,-0.108 -0.519,0 -0.098,0.07 -0.195,0.141 -0.292,0.211 -0.312,0.226 -0.206,0.702 0.197,0.726 -0.135,-0.008 -1.079,4.39 -1.226,4.902 -0.558,1.942 -1.3,3.83 -2.542,5.439 -1.118,1.448 -2.582,2.589 -4.354,3.125 -1.627,0.491 -3.034,0.107 -4.67,0.187 -0.524,0.026 -0.788,0.637 -0.425,1.026 3.124,3.352 8.923,-0.164 11.089,-2.993 1.681,-2.196 2.605,-4.947 3.186,-7.619 0.336,-1.549 1.309,-4.061 -0.444,-5.004 z"
   id="path176" />

					<path
   style="fill:#ac765f"
   d="m 164.133,368.764 c -0.133,-0.498 -0.713,-0.582 -1.071,-0.283 -1.11,0.931 -1.562,2.426 -2.575,3.466 -1.03,1.058 -2.325,1.688 -3.426,2.639 -0.447,0.386 -0.056,1.049 0.448,1.082 1.752,0.115 3.478,-1.081 4.648,-2.302 1.135,-1.183 2.438,-2.867 1.976,-4.602 z"
   id="path177" />

					<path
   style="fill:#ac765f"
   d="m 176.986,367.281 c -1.135,0.59 -2.001,1.948 -3.026,2.758 -1.079,0.853 -2.273,1.536 -3.285,2.469 -0.301,0.277 -0.052,0.748 0.318,0.766 1.557,0.076 3.054,-0.615 4.31,-1.496 1.122,-0.787 2.759,-2.039 3.071,-3.43 0.183,-0.819 -0.645,-1.453 -1.388,-1.067 z"
   id="path178" />

					<path
   style="fill:#ac765f"
   d="m 238.725,362.912 c -0.34,-0.31 -1.012,-0.325 -1.234,0.159 -0.35,0.761 -0.182,1.345 -0.222,2.159 -0.049,1.003 -0.363,1.973 -0.86,2.842 -0.5,0.874 -1.204,1.657 -2.023,2.242 -0.645,0.461 -1.382,0.717 -1.959,1.27 -0.312,0.299 -0.159,0.851 0.253,0.96 2.119,0.561 4.381,-1.593 5.413,-3.23 0.967,-1.53 2.243,-4.933 0.632,-6.402 z"
   id="path179" />

					<path
   style="fill:#ac765f"
   d="m 251.689,368.322 c -1.407,0.893 -2.11,2.898 -3.11,4.216 -1.171,1.545 -2.418,3.138 -3.789,4.51 -0.523,0.523 0.162,1.475 0.808,1.048 1.772,-1.172 3.356,-2.367 4.706,-4.04 1.062,-1.317 2.79,-3.194 2.716,-4.969 -0.026,-0.644 -0.74,-1.14 -1.331,-0.765 z"
   id="path180" />

				</g>

			</g>

			<g
   id="g210">
				<path
   d="m 207.814,137.523 c -4.098,-5.276 -13.006,-5.977 -17.426,-0.636 -0.27,0.326 0.072,0.877 0.48,0.622 5.767,-3.602 11.082,-3.843 16.634,0.418 0.254,0.194 0.474,-0.197 0.312,-0.404 z"
   id="path181" />

				<path
   d="m 220.278,142.022 c -0.107,-0.311 -0.534,-0.393 -0.712,-0.093 -0.862,1.455 0.102,4.336 -2.052,4.97 -2.423,0.713 -3.82,-2.845 -4.213,-4.552 -0.055,-0.239 -0.382,-0.163 -0.402,0.054 -0.209,2.302 1.747,5.846 4.417,5.686 2.584,-0.155 3.663,-4.022 2.962,-6.065 z"
   id="path182" />

				<path
   d="m 241.121,137.985 c -0.166,-0.328 -0.738,-0.264 -0.809,0.106 -0.222,1.169 0.213,2.423 -0.334,3.54 -0.702,1.431 -2.291,1.257 -3.603,0.931 -1.392,-0.346 -2.035,-0.961 -2.937,-1.995 -0.338,-0.387 -0.472,-0.63 -1.004,-0.706 -0.122,-0.017 -0.21,0.109 -0.122,0.21 0.916,1.049 1.026,2.22 2.343,2.989 1.106,0.646 2.695,1.053 3.976,0.933 2.761,-0.26 3.568,-3.875 2.49,-6.008 z"
   id="path183" />

				<path
   d="m 222.314,166.633 c -2.309,-1.113 -5.15,0.044 -6.999,1.506 -0.169,0.134 0.055,0.427 0.232,0.301 1.533,-1.097 3.746,-2.032 5.673,-1.558 1.187,0.292 2.244,1.168 2.104,2.486 -0.102,0.962 -1.202,1.358 -2.071,1.339 l -0.691,-0.1 c -1.003,-0.148 -1.023,-0.726 -0.061,-1.734 0.261,0.161 0.478,-0.146 0.38,-0.379 -0.661,-1.564 -2.717,-0.195 -2.377,1.247 0.441,1.867 3.432,2.269 4.755,1.146 1.466,-1.246 0.558,-3.53 -0.945,-4.254 z"
   id="path184" />

				<path
   d="m 247.635,162.02 c -2.404,-0.615 -4.959,-0.019 -6.9,1.582 -1.369,1.129 -2.044,3.36 -0.064,4.268 1.313,0.602 3.77,0.073 4.141,-1.555 0.384,-1.685 -2.252,-1.743 -3.018,-0.738 -0.184,0.241 0.118,0.514 0.358,0.466 0.294,-0.059 2.103,-0.635 1.162,0.685 -0.26,0.365 -1.216,0.392 -1.579,0.348 -0.768,-0.093 -1.438,-0.584 -1.284,-1.468 0.125,-0.716 0.978,-1.297 1.544,-1.667 1.618,-1.058 3.696,-1.496 5.603,-1.648 0.149,-0.012 0.197,-0.232 0.037,-0.273 z"
   id="path185" />

				<path
   d="m 241.383,179.178 c -0.031,-0.717 -1.001,-0.838 -1.232,-0.167 -0.467,1.358 -0.523,2.813 -1.257,4.089 -1.162,2.018 -3.803,3.106 -5.348,0.68 -0.802,-1.26 -1.399,-2.905 -3.239,-2.289 -0.415,0.139 -0.245,0.725 0.179,0.649 0.896,-0.16 1.626,1.178 1.909,1.799 0.146,0.321 0.263,0.644 0.449,0.947 0.259,0.421 0.563,0.762 0.969,1.047 1.03,0.723 2.378,0.822 3.551,0.404 2.748,-0.978 4.139,-4.446 4.019,-7.159 z"
   id="path186" />

				<path
   d="m 266.089,167.419 c -0.825,-5.32 -6.372,-11.046 -10.586,-14.014 -0.517,-0.364 -1.062,-0.678 -1.619,-0.97 0.085,-0.188 0.115,-0.41 0.065,-0.66 -0.671,-3.305 -1.188,-6.761 -2.056,-10.048 8.164,2.425 19.311,-8.078 14.715,-16.357 -2.002,-3.607 -6.458,-4.811 -10.314,-4.142 -3.968,0.689 -10.557,4.267 -12.175,8.17 -1.453,-1.005 -3.011,-1.82 -4.641,-2.459 -0.479,-4.528 0.598,-9.027 1.104,-13.513 3.13,0.404 2.983,-6.724 -0.475,-7.524 -1.525,-0.353 -3.242,0.833 -3.875,2.175 -0.577,1.224 -0.221,3.121 1.31,3.358 -1.291,4.756 -1.897,9.418 -3.932,13.945 -3.49,-0.531 -7.091,-0.461 -10.515,0.079 -2.453,0.386 -5.17,0.946 -7.555,2.043 -1.262,-4.315 -3.439,-8.763 -5.346,-12.723 -0.029,-0.061 -0.069,-0.104 -0.114,-0.138 0.357,-1.266 -0.529,-2.846 -1.635,-3.401 -1.536,-0.77 -3.518,-1.059 -4.862,0.202 -1.144,1.074 -1.967,3.344 -0.984,4.747 0.825,1.177 2.616,1.931 4.124,1.912 0.454,1.015 1.05,1.943 1.528,2.959 1.007,2.142 1.433,4.229 1.646,6.573 0.117,1.283 0.081,2.824 0.766,3.889 -0.486,0.721 -0.895,1.502 -1.252,2.31 -0.519,-2.433 -2.345,-2.819 -4.448,-4.13 -2.656,-1.656 -3.638,-3.199 -6.847,-3.29 -4.467,-0.127 -10.123,1.104 -11.863,5.746 -4.696,12.528 10.277,20.265 20.686,19.08 0.048,-0.006 0.084,-0.028 0.128,-0.04 0.045,0.884 0.1,1.768 0.168,2.648 0.092,1.193 -0.141,3.946 0.621,5.421 -1.767,1.487 -3.327,3.058 -4.596,4.648 -7.673,9.61 0.263,21.91 7.919,28.497 4.199,3.613 9.05,6.024 14.111,7.095 0.309,8.337 0.005,16.64 -1.124,24.914 -0.99,7.259 -1.589,16.627 -7.029,22.057 -5.571,5.562 -14.643,7.269 -22.101,8.695 -6.965,1.332 -14.022,2.185 -20.931,3.808 -5.371,1.262 -11.326,2.729 -15.257,6.883 -0.987,1.043 -1.859,2.206 -2.639,3.446 -5.45,-2.893 -7.808,-9.151 -7.832,-15.227 -0.022,-5.438 2.754,-9.708 6.1,-13.644 0.663,0.086 1.273,0.106 1.834,0.055 3.346,3.421 8.357,1.61 11.324,-1.449 2.077,-2.141 4.022,-4.973 5.118,-7.743 1.405,-3.551 0.155,-7.183 1.184,-10.787 0.182,-0.638 -0.627,-1.077 -1.089,-0.634 -6.022,5.768 -18.514,8.461 -17.824,18.661 -0.053,0.013 -0.108,0.038 -0.162,0.079 -4.029,3.05 -6.85,7.807 -7.592,12.83 -0.497,2.011 -0.763,4.072 -0.773,6.111 -0.026,5.657 1.818,13.859 7.051,17.041 -0.972,2.34 -1.76,4.75 -2.452,7.04 -1.998,6.612 -2.983,13.52 -2.914,20.427 0.078,7.859 2.42,15.494 1.967,23.348 -0.009,0.149 0.047,0.27 0.135,0.358 -0.657,10.901 0.191,21.946 0.994,32.816 0.384,5.191 0.263,16.74 7.402,17.955 2.488,0.423 3.816,-1.379 5.099,-3.226 1.086,-1.563 2.159,-3.14 3.222,-4.724 0.815,2.61 2.404,5.495 5.432,5.609 3.461,0.132 6.409,-3.618 8.357,-5.977 6.456,-7.818 11.006,-17.553 12.49,-27.611 3.158,0.508 6.346,0.81 9.549,0.803 4.857,-0.012 9.83,-0.67 14.408,-2.336 0.8,-0.291 1.567,-0.638 2.322,-1.004 1.044,5.706 2.754,11.295 4.258,16.893 1.245,4.632 1.882,10.391 4.427,14.53 1.362,2.216 3.819,4.199 6.587,3.792 2.105,-0.309 3.467,-1.774 4.373,-3.537 0.859,2.274 1.927,4.468 3.299,6.547 -0.026,0.1 -0.034,0.206 0.006,0.324 3.363,9.711 16.277,-11.395 17.516,-14.019 4.925,-10.427 6.025,-23.71 5.141,-35.351 0.319,-19.15 -1.805,-38.382 -5.74,-57.041 -2.467,-11.699 -4.557,-23.515 -6.201,-35.358 -1.651,-11.895 -2.542,-23.857 -3.876,-35.78 0.001,-0.406 0,-0.812 0.007,-1.214 0.021,-1.309 0.073,-2.622 -0.009,-3.926 8.921,-5.925 18.489,-15.254 16.742,-26.522 z m -110.596,71.439 c 0.029,-9.184 10.395,-11.977 16.748,-16.784 -0.587,3.639 0.072,7.174 -1.96,10.721 -2.287,3.991 -7.291,10.261 -12.188,7.274 1.415,-0.562 2.607,-1.6 3.938,-2.978 2.396,-2.482 4.483,-5.062 5.517,-8.4 0.115,-0.373 -0.461,-0.629 -0.64,-0.27 -1.264,2.54 -2.977,4.802 -4.933,6.849 -0.816,0.854 -1.682,1.973 -2.652,2.634 -1.264,0.861 -2.538,1.011 -3.844,1.312 0.044,-0.117 0.056,-0.242 0.014,-0.358 z M 264.937,125.671 c 4.693,7.876 -6.261,15.634 -13.097,14.859 -0.108,-0.012 -0.194,0.01 -0.271,0.046 -0.684,-2.309 -1.594,-4.503 -2.888,-6.48 0.036,-0.02 0.073,-0.034 0.103,-0.073 0.155,-0.202 0.31,-0.403 0.465,-0.605 0.032,0.314 0.327,-0.058 0.892,-1.133 0.54,-0.529 1.135,-0.984 1.785,-1.363 1.088,-0.687 2.304,-1.192 3.529,-1.57 2.593,-0.8 5.139,-0.583 7.792,-0.763 0.371,-0.025 0.431,-0.508 0.086,-0.636 -4.106,-1.52 -13.997,0.384 -14.997,5.628 -1.005,-1.427 -2.224,-2.732 -3.755,-3.857 4.228,-4.737 15.674,-11.91 20.356,-4.053 z m -26.796,-14.58 c 0.008,-0.255 -0.319,-0.309 -0.446,-0.128 -1.326,-1.461 -0.334,-3.889 1.747,-3.897 2.071,-0.008 3.05,4.096 1.253,4.933 -0.058,-0.102 -0.237,-0.088 -0.287,0.037 -0.008,0.021 -0.015,0.042 -0.023,0.063 -0.071,0.016 -0.135,0.04 -0.213,0.048 -0.64,0.06 -0.769,0.858 -0.198,1.117 -0.752,2.335 -1.114,4.797 -1.428,7.225 -0.253,1.954 -0.687,4.104 -0.204,6.038 -1.15,-0.388 -2.327,-0.701 -3.523,-0.934 2.047,-4.496 3.164,-9.607 3.322,-14.502 z m -30.556,6.884 c 0.396,-0.215 0.371,-0.936 -0.124,-1.029 -1.08,-0.202 -2.109,-0.244 -3.077,-0.833 -1.428,-0.87 -1.038,-2.817 0.049,-3.817 0.937,-0.863 3.103,-0.557 3.991,0.331 0.723,0.724 0.358,1.783 0.846,2.588 0.052,0.086 0.131,0.125 0.214,0.139 1.293,4.173 2.736,8.854 4.751,12.828 -0.762,0.449 -1.481,0.958 -2.115,1.566 -0.07,0.068 -0.129,0.147 -0.197,0.216 -0.813,-4.152 -1.067,-9.195 -4.338,-11.989 z m 1.992,20.65 c 0.967,-3.837 2.511,-6.908 5.603,-8.843 0.33,0.19 0.794,-0.056 0.81,-0.464 0.525,-0.272 1.09,-0.516 1.699,-0.73 3.464,-1.216 7.233,-1.753 10.89,-1.761 5.875,-0.013 12.12,1.663 16.418,5.859 4.887,4.77 5.524,12.352 6.751,18.811 -14.819,-6.579 -35.554,1.077 -43.126,7.142 -0.062,-1.383 0.188,-3.994 0.135,-4.79 -0.116,-1.734 -0.207,-3.472 -0.211,-5.211 -0.01,-3.36 0.207,-6.745 1.031,-10.013 z m -1.896,0.996 c -0.659,3.32 -0.788,6.705 -0.68,10.081 -0.024,0 -0.04,-0.01 -0.066,-0.009 -7.834,0.465 -19.472,-2.689 -19.9,-12.262 -0.278,-6.224 3.87,-9.778 9.916,-9.505 2.828,0.128 10.366,3.62 11.725,6.673 0.074,0.167 0.197,0.228 0.324,0.227 -0.595,1.578 -1.008,3.23 -1.319,4.795 z m -60.104,119.063 c 0.95,4.891 3.25,10.244 8.193,11.376 -0.631,1.075 -1.193,2.203 -1.71,3.354 -4.229,-3.097 -6.172,-9.391 -6.483,-14.73 z m 7.872,113.252 c -1.058,-1.715 -1.565,-3.727 -1.856,-5.792 4.213,-0.269 7.712,-0.311 11.018,2.851 0.079,0.075 0.164,0.112 0.248,0.12 -2.455,3.681 -6.049,8.267 -9.41,2.821 z m 22.996,-3.116 c -1.341,1.508 -2.982,3.51 -5.036,3.993 -3.184,0.748 -4.842,-2.669 -5.973,-4.871 0.402,-0.603 0.792,-1.212 1.189,-1.818 1.649,-0.591 3.951,-0.394 5.642,-0.223 2.055,0.207 3.148,1.189 4.831,2.142 -0.219,0.257 -0.428,0.524 -0.653,0.777 z m 1.26,-1.5 c -1.359,-3.171 -7.175,-3.184 -10.469,-2.131 0.992,-1.533 1.971,-3.074 2.913,-4.635 2.273,-3.768 4.37,-7.66 6.031,-11.741 1.273,-3.125 3.369,-7.652 2.851,-11.276 1.587,0.966 3.809,1.284 5.45,1.691 1.792,0.444 11.946,-1.692 -6.776,28.092 z m 47.938,-3.29 c -0.714,-2.344 -1.26,-4.773 -1.911,-7.101 -1.784,-6.377 -3.321,-12.898 -5.627,-19.112 0,-0.001 -10e-4,-0.002 -0.002,-0.003 3.467,-1.766 6.582,-4.118 10.131,-5.77 4.781,9.614 4.704,20.967 7.088,31.361 -3.013,-1.095 -6.98,-1.249 -9.595,0.543 -0.036,0.025 -0.057,0.054 -0.084,0.082 z m 9.914,5.563 c -4.235,5.162 -7.832,0.141 -9.088,-3.132 -0.214,-0.559 -0.398,-1.134 -0.584,-1.708 0.091,0.018 0.19,0.016 0.296,-0.03 1.831,-0.786 3.514,-1.027 5.505,-0.782 1.346,0.165 2.633,0.594 3.965,0.785 0.257,1.017 0.532,2.028 0.85,3.021 -0.265,0.691 -0.563,1.382 -0.944,1.846 z m 6.654,7.29 c 0.048,-0.152 0.035,-0.33 -0.075,-0.517 -1.31,-2.233 -2.323,-4.561 -3.137,-6.952 1.651,-1.53 5.16,-1.388 7.181,-0.934 1.777,0.399 3.209,1.285 4.684,2.249 -2.748,3.656 -6.687,8.033 -8.653,6.154 z M 257.17,267.595 c 2.492,12.402 4.851,24.614 5.59,37.277 0.727,12.449 -0.065,24.902 0.418,37.34 -0.288,3.754 -0.785,7.504 -1.777,11.273 -1.221,4.641 -3.072,9.084 -5.67,13.124 -0.282,0.438 -1.047,1.615 -2.068,3.033 -1.796,-1.691 -4.413,-2.558 -6.825,-2.73 -1.842,-0.132 -6.454,0.57 -6.589,0.1 0.018,-0.065 0.038,-0.13 0.055,-0.194 0.082,-0.304 -0.077,-0.568 -0.307,-0.724 -3.085,-11.506 -2.778,-24.07 -9.427,-34.253 0.601,-0.487 -0.109,-1.546 -0.925,-1.196 -3.241,1.39 -5.966,3.613 -9.082,5.232 -4.361,2.265 -9.241,3.542 -14.125,3.953 -4.504,0.379 -9.029,0 -13.484,-0.689 -3.316,-0.513 -11.464,-0.985 -13.329,-4.26 -0.148,-0.26 -0.534,-0.082 -0.471,0.198 0.082,0.362 0.214,0.684 0.38,0.977 -0.161,0.154 -0.251,0.377 -0.165,0.665 1.006,3.37 -1.612,8.542 -2.85,11.634 -1.404,3.507 -3.102,6.885 -4.974,10.164 -1.682,2.947 -3.504,5.822 -5.397,8.638 -0.265,0.394 -0.557,0.846 -0.87,1.323 -0.409,-1.884 -3.319,-2.885 -4.958,-3.317 -2.164,-0.57 -4.779,-0.674 -6.802,0.418 -0.221,-1.802 -0.302,-3.628 -0.462,-5.317 -0.368,-3.893 -0.68,-7.79 -0.934,-11.692 -0.491,-7.554 -0.628,-15.128 -1.22,-22.67 0.141,-0.053 0.257,-0.158 0.292,-0.339 1.368,-7.229 -1.346,-14.705 -1.568,-21.971 -0.246,-8.03 0.927,-16.136 3.484,-23.754 2.542,-7.575 5.925,-14.487 13.825,-17.398 6.808,-2.509 14.103,-3.527 21.221,-4.746 10.688,-1.832 27.607,-4.008 33.033,-15.018 2.884,-5.852 3.808,-13.256 4.611,-19.664 0.115,-0.918 0.218,-1.836 0.313,-2.755 6.276,-0.271 6.041,-10.864 1.136,-13.242 -0.292,-0.142 -0.517,0.247 -0.253,0.433 4.06,2.861 3.929,9.865 -0.776,11.666 0.607,-6.435 0.736,-12.899 0.385,-19.359 6.419,1.054 13.111,-0.045 19.197,-3.602 0.854,-0.499 1.73,-1.036 2.617,-1.605 -0.085,1.104 -0.1,2.215 -0.132,3.322 -0.052,1.818 -0.233,3.681 0.087,5.478 0.023,0.128 0.121,0.189 0.23,0.215 0.875,21.408 4.377,43.185 8.566,64.032 z m -5.745,-77.111 c -0.786,0.612 -1.581,1.209 -2.387,1.787 -0.128,-0.047 -0.301,-10e-4 -0.333,0.148 -0.007,0.032 -0.009,0.064 -0.016,0.096 -5.394,3.814 -11.254,6.663 -18.136,6.488 -1.329,-0.034 -2.695,-0.195 -4.075,-0.464 -0.196,-0.363 -0.701,-0.433 -0.995,-0.211 -12.331,-2.866 -25.382,-14.42 -23.692,-27.303 0.598,-4.56 3.404,-8.087 6.903,-10.909 0.03,0.013 0.056,0.033 0.088,0.044 0.191,0.067 0.46,-0.077 0.495,-0.281 l 0.043,-0.251 c 1.869,-1.433 3.901,-2.682 5.886,-3.785 5.11,-2.839 16.721,-4.685 17.039,-4.685 9.391,0 17.343,-0.866 23.434,4.129 2.604,2.135 5.091,4.945 6.975,7.715 2.276,3.349 2.45,6.712 1.56,10.571 -1.727,7.482 -6.978,12.387 -12.789,16.911 z"
   id="path187" />

				<path
   d="m 161.079,232.252 c -0.606,1.063 -1.307,2.094 -2.124,3.006 -0.768,0.856 -1.796,1.507 -2.512,2.388 -0.283,0.348 -0.033,1.002 0.482,0.828 2.358,-0.798 4.035,-3.754 4.674,-6.003 0.087,-0.309 -0.359,-0.5 -0.52,-0.219 z"
   id="path188" />

				<path
   d="m 165.404,236.229 c -1.035,1.263 -2.19,2.475 -3.373,3.599 -0.278,0.264 0.125,0.636 0.411,0.411 1.35,-1.066 2.428,-2.253 3.408,-3.666 0.182,-0.262 -0.241,-0.594 -0.446,-0.344 z"
   id="path189" />

				<path
   d="m 180.738,265.984 c -1.893,-3.458 -7.648,-3.864 -11.325,-2.658 -2.675,-0.506 -6.633,2.324 -7.44,4.548 -1.743,4.807 7.057,3.634 9.355,3.242 2.114,-0.359 11.538,-1.244 9.41,-5.132 z m -2.302,2.101 c -0.871,0.65 -2.62,0.827 -3.672,1.116 -2.46,0.676 -5.396,1.575 -7.965,1.21 -2.802,-0.398 -3.496,-3.376 -0.977,-4.986 0.563,-0.36 1.253,-0.77 1.977,-1.066 0.056,0.145 0.203,0.257 0.388,0.208 0.684,-0.18 1.442,-0.345 2.235,-0.472 0.044,0.008 0.08,0.003 0.108,-0.018 2.534,-0.393 5.419,-0.382 7.453,0.825 1.449,0.86 1.907,2.097 0.453,3.183 z"
   id="path190" />

				<path
   d="m 187.824,259.068 c -1.782,-0.212 -7.264,-1.059 -7.456,1.807 -0.1,0.031 -0.176,0.133 -0.117,0.264 0.049,0.107 0.098,0.211 0.148,0.317 0.002,0.012 0,0.022 0.002,0.035 0.016,0.098 0.062,0.167 0.119,0.223 1.333,2.767 3.027,4.909 6.419,5.123 2.592,0.164 6.413,-1.042 6.766,-4.071 0.393,-3.357 -3.549,-3.421 -5.881,-3.698 z m 2.852,5.943 c -1.676,0.915 -3.859,1.081 -5.647,0.429 -1.824,-0.665 -2.851,-2.18 -3.889,-3.694 0.128,-0.081 0.223,-0.209 0.221,-0.385 -0.034,-2.26 5.251,-1.227 6.463,-1.079 0.905,0.11 2.734,-0.07 3.411,0.503 0.413,0.765 0.826,1.531 1.238,2.296 -0.354,0.886 -0.953,1.529 -1.797,1.93 z"
   id="path191" />

				<path
   d="m 199.799,259.647 c -0.235,-1.538 -2.184,-2.436 -3.544,-2.637 -0.788,-0.116 -3.698,-0.057 -2.803,1.463 0.08,0.136 0.214,0.174 0.357,0.171 0.003,0.025 -0.007,0.047 0.006,0.074 0.723,1.494 1.598,3.173 3.46,3.348 1.34,0.128 2.743,-0.981 2.524,-2.419 z m -1.067,0.57 c -0.313,1.251 -1.964,0.952 -2.729,0.431 -0.785,-0.535 -1.327,-1.352 -1.824,-2.142 -0.003,-0.005 -0.008,-0.004 -0.011,-0.008 0.028,-0.061 0.038,-0.131 0.023,-0.189 -0.143,-0.537 2.238,-0.196 2.408,-0.147 0.754,0.219 2.403,0.976 2.133,2.055 z"
   id="path192" />

				<path
   d="m 204.437,265.594 c -0.804,-0.514 -1.679,-0.613 -2.606,-0.633 -1.709,-0.036 -3.252,-0.012 -4.954,-0.26 -1.473,-0.215 -2.879,-0.306 -3.627,1.182 -0.124,0.246 0.03,0.462 0.236,0.503 -2.559,1.899 -5.314,5.02 -2.85,8.007 2.771,3.358 9.588,1.526 12.722,-0.242 3.235,-1.825 4.969,-6.071 1.079,-8.557 z m 0.105,5.943 c -0.619,1.041 -2.583,1.746 -3.651,2.162 -2.147,0.836 -5.758,1.647 -7.984,0.54 -5.064,-2.518 -0.101,-6.641 2.282,-8.255 0.048,-0.033 0.079,-0.072 0.102,-0.114 1.631,-0.127 3.942,0.274 5.099,0.391 1.579,-0.241 3.008,0.273 4.285,1.542 -0.045,1.244 -0.089,2.489 -0.133,3.734 z"
   id="path193" />

				<path
   d="m 186.428,269.881 c -1.458,-2.383 -5.928,-2.226 -7.443,-0.057 -0.15,0.215 -0.076,0.442 0.081,0.594 -2.001,1.942 -4.408,4.721 -2.919,7.484 1.536,2.85 6.191,1.505 8.219,0.02 2.373,-1.738 3.707,-5.353 2.062,-8.041 z m -4.08,7.896 c -0.882,0.391 -1.944,0.716 -2.92,0.66 -1.04,-0.06 -2.224,-0.682 -2.544,-1.622 -0.216,-0.635 -0.148,-1.28 0.023,-1.919 0.469,-1.755 1.682,-3.244 2.956,-4.524 1.033,-1.032 2.591,-1.081 3.939,-0.681 1.373,0.407 2.047,1.228 2.125,2.705 0.126,2.414 -1.441,4.433 -3.579,5.381 z"
   id="path194" />

				<path
   d="m 172.46,273.493 c -1.286,-1.657 -4.384,-0.253 -5.829,0.488 -0.067,0.034 -0.02,0.141 0.051,0.121 0.079,-0.023 0.158,-0.045 0.237,-0.068 -0.779,0.525 -1.006,1.944 -0.335,2.72 0.714,0.827 2.182,1.008 3.189,1.165 0.837,0.13 1.842,0.276 2.624,-0.15 1.439,-0.784 0.895,-3.204 0.063,-4.276 z m -2.898,3.588 c -0.4,-0.081 -0.875,-0.145 -1.239,-0.323 -0.85,-0.158 -1.124,-0.833 -0.822,-2.024 0.214,-0.074 0.407,-0.183 0.581,-0.327 0.197,-0.136 0.17,-0.431 -0.066,-0.507 -0.139,-0.045 -0.27,-0.061 -0.396,-0.066 0.733,-0.206 1.471,-0.397 2.222,-0.517 1.069,-0.17 2.011,-0.069 2.456,1.002 0.188,0.453 0.34,1.055 0.344,1.541 0.015,1.836 -1.913,1.459 -3.08,1.221 z"
   id="path195" />

				<path
   d="m 159.446,271.771 c 0.168,-0.261 0.002,-0.738 -0.381,-0.733 -2.224,0.03 -3.306,3.122 -3.59,4.963 -0.214,1.386 -0.06,4.542 1.715,5.033 0.647,0.179 1.252,-0.2 1.589,-0.733 0.349,-0.552 0.355,-1.303 0.525,-1.918 0.209,-0.759 0.545,-1.474 0.776,-2.225 0.467,-1.525 0.552,-3.337 -0.634,-4.387 z m 0.064,3.62 c -0.161,0.567 -0.419,1.105 -0.627,1.656 -0.216,0.573 -0.315,1.491 -0.624,1.993 -1.48,2.403 -1.943,-2.073 -1.827,-2.847 0.215,-1.424 1.029,-4.017 2.755,-4.26 0.003,0 0.005,-0.003 0.008,-0.003 0.714,0.985 0.65,2.284 0.315,3.461 z"
   id="path196" />

				<path
   d="m 168.464,282.644 c -0.763,-1.738 -2.859,-4.698 -4.618,-5.566 -2.973,-1.467 -3.329,4.066 -3.312,6.495 -0.912,3.148 -1.521,7.572 1.747,9.315 3.333,1.779 6.227,-2.487 6.768,-5.285 0.325,-1.683 0.101,-3.396 -0.585,-4.959 z m -0.974,6.336 c -0.266,0.808 -0.706,1.519 -1.319,2.132 -1.659,-0.227 -3.318,-0.455 -4.977,-0.682 -1.23,-1.246 -0.933,-3.815 -0.449,-5.9 0.231,0.128 0.585,0.014 0.62,-0.339 0.158,-1.597 0.175,-6.446 2.807,-5.181 2.041,0.981 3.77,4.555 3.92,6.641 0.083,1.153 -0.155,2.27 -0.602,3.329 z"
   id="path197" />

				<path
   d="m 217.569,251.971 c -5.501,-0.425 -10.957,3.583 -14.779,7.018 -0.165,0.148 -0.138,0.356 -0.024,0.498 -1.133,2.33 1.358,5.228 3.673,5.564 4.685,0.68 9.918,-2.039 12.339,-5.989 1.453,-2.372 2.784,-6.782 -1.209,-7.091 z m -3.458,10.301 c -1.128,0.678 -2.376,1.159 -3.653,1.471 -0.953,0.235 -1.922,0.367 -2.907,0.397 -3.542,-0.603 -4.733,-2.258 -3.573,-4.963 0.063,-0.024 0.1,-0.069 0.125,-0.119 1.991,-1.314 3.8,-2.917 5.887,-4.074 1.293,-0.716 2.551,-1.109 3.966,-1.44 0.744,-0.158 1.492,-0.299 2.242,-0.424 1.133,-0.498 1.857,-0.142 2.174,1.07 1.918,2.834 -1.81,6.608 -4.261,8.082 z"
   id="path198" />

				<path
   d="m 225.577,238.595 c -3.068,1.436 -5.057,6.482 -5.578,9.56 -0.052,0.309 0.274,0.553 0.516,0.438 -0.168,1.625 0.593,3.242 2.685,2.977 3.297,-0.418 5.603,-5.308 5.972,-8.166 0.259,-1.994 -0.737,-6.147 -3.595,-4.809 z m 2.218,5.301 c -0.207,0.943 -0.575,1.857 -1.037,2.702 -0.403,0.738 -0.899,1.42 -1.458,2.047 -0.252,0.289 -0.521,0.563 -0.805,0.822 -3.195,0.31 -4.185,-0.626 -2.969,-2.807 0.02,-0.046 0.014,-0.085 -0.002,-0.118 0.287,-0.722 0.564,-1.45 0.906,-2.15 0.501,-1.025 1.636,-3.71 2.804,-4.019 l 2.636,0.859 c 0.179,0.892 0.154,1.781 -0.075,2.664 z"
   id="path199" />

				<path
   d="m 224.765,252.861 c -1.484,-0.022 -3.381,1.861 -2.369,3.344 0.168,0.246 0.534,0.208 0.628,-0.082 0.3,-0.927 0.451,-2.14 1.742,-2.102 1.388,0.04 1.801,1.462 1.427,2.622 -0.282,0.875 -0.941,1.758 -1.855,2.034 -1.221,0.369 -2.683,-0.714 -2.181,-2.041 0.087,-0.231 -0.286,-0.387 -0.398,-0.168 -0.697,1.362 0.303,3.012 1.768,3.266 1.882,0.327 3.43,-1.526 3.827,-3.179 0.422,-1.77 -0.629,-3.665 -2.589,-3.694 z"
   id="path200" />

				<path
   d="m 213.436,267.151 c -2.039,0.323 -4.142,1.95 -4.378,4.085 -0.037,0.339 0.433,0.393 0.591,0.16 0.007,-0.011 0.016,-0.022 0.024,-0.033 -0.111,1.362 1.833,2.138 3.086,2.047 1.801,-0.13 4.681,-1.559 4.83,-3.635 0.153,-2.14 -2.466,-2.892 -4.153,-2.624 z m 2.61,3.364 c -0.305,0.499 -0.865,0.84 -1.35,1.132 -0.504,0.303 -1.04,0.563 -1.614,0.705 -0.678,0.168 -3.454,0.343 -2.725,-1.508 0.046,-0.117 -0.012,-0.213 -0.102,-0.266 1.111,-1.395 2.535,-2.484 4.498,-2.208 1.046,0.147 1.995,0.995 1.293,2.145 z"
   id="path201" />

				<path
   d="m 201.872,280.585 c -0.902,-0.428 -2.566,-0.164 -2.832,0.971 -0.069,0.294 0.194,0.598 0.504,0.504 0.52,-0.158 0.937,-0.547 1.526,-0.471 0.513,0.066 0.889,0.568 0.761,1.089 -0.278,1.133 -2.791,0.494 -2.734,-0.602 0.018,-0.351 -0.523,-0.419 -0.61,-0.082 -0.602,2.34 3.54,3.297 4.392,1.205 0.398,-0.979 -0.056,-2.163 -1.007,-2.614 z"
   id="path202" />

				<path
   d="m 185.169,292.944 c -0.665,-1.527 -2.567,-1.944 -4.067,-1.802 -0.242,0.023 -0.471,0.193 -0.462,0.462 0.018,0.53 -3.048,0.376 -2.718,1.613 -0.415,1.067 -0.038,2.284 0.921,3.056 1.334,1.075 3.458,1.235 4.937,0.373 1.248,-0.727 1.993,-2.315 1.389,-3.702 z m -1.716,2.774 c -1.703,1.155 -4.938,0.232 -4.986,-1.876 0.183,-0.004 0.351,-0.14 0.278,-0.372 -0.178,-0.569 1.884,-0.56 2.25,-0.807 0.257,-0.173 0.397,-0.36 0.478,-0.591 0.762,0.013 1.556,0.1 2.183,0.553 1.117,0.807 0.877,2.361 -0.203,3.093 z"
   id="path203" />

				<path
   d="m 202.899,294.628 c -0.968,-1.443 -2.749,-2.83 -4.481,-1.728 -0.807,0.513 -3.155,2.837 -1.593,3.679 0.089,0.048 0.186,0.033 0.257,-0.018 0.67,1.07 1.959,1.677 3.319,1.477 1.857,-0.274 3.815,-1.448 2.498,-3.41 z m -2.962,2.295 c -1.322,0.103 -2.171,-0.769 -2.443,-1.985 0.321,-0.49 0.804,-0.915 1.248,-1.164 1.295,-0.727 2.338,0.295 3.036,1.305 0.85,1.227 -0.847,1.766 -1.841,1.844 z"
   id="path204" />

				<path
   d="m 229.634,222.62 c -3.637,-0.519 -3.267,4.178 -3.028,6.417 0.008,0.075 0.042,0.136 0.089,0.182 -0.438,2.288 -0.585,5.459 1.765,5.753 2.677,0.334 4.311,-3.286 4.622,-5.379 0.365,-2.453 -0.447,-6.544 -3.448,-6.973 z m 2.254,6.89 c -0.17,1.01 -0.51,1.976 -1.105,2.824 -0.801,1.141 -2.984,1.823 -3.081,-0.101 -0.08,-1.597 0.24,-3.151 -0.021,-4.744 -0.034,-0.208 -0.25,-0.244 -0.41,-0.169 -0.009,-1.638 -0.026,-3.499 1.754,-3.668 2.72,-0.255 3.146,4.178 2.863,5.858 z"
   id="path205" />

				<path
   d="m 233.34,235.326 c -1.325,0.52 -2.469,2.154 -2.257,3.603 -0.006,0.007 -0.015,0.007 -0.019,0.017 -0.501,1.139 0.418,2.303 1.634,2.197 1.72,-0.15 2.488,-2.123 2.69,-3.59 0.181,-1.31 -0.477,-2.843 -2.048,-2.227 z m 0.587,4.114 c -0.256,0.411 -0.632,0.773 -1.1,0.928 -0.679,0.225 -1.569,-0.139 -1.604,-0.901 0,10e-4 0,10e-4 10e-4,0.002 0.109,0.261 0.477,0.301 0.573,0 0.217,-0.683 0.348,-1.417 0.744,-2.028 0.193,-0.297 0.493,-0.662 0.799,-0.852 0.625,-0.387 1.244,-0.137 1.231,0.586 -0.012,0.721 -0.262,1.651 -0.644,2.265 z"
   id="path206" />

				<path
   d="m 234.225,218.377 c -0.669,-0.616 -2.176,-0.719 -2.628,0.091 -0.817,0.677 -0.757,2.942 -0.452,3.65 0.583,1.353 2.491,2.129 3.693,1.035 1.246,-1.134 0.474,-3.775 -0.613,-4.776 z m 0.352,4.069 c -0.616,0.882 -2.046,0.524 -2.547,-0.277 -0.311,-0.496 -0.379,-1.096 -0.313,-1.667 0.042,-0.362 0.203,-1.419 0.667,-1.445 0.364,-0.02 0.474,-0.459 0.228,-0.657 0.571,-0.065 1.198,0.231 1.555,0.78 0.511,0.787 0.995,2.428 0.41,3.266 z"
   id="path207" />

				<path
   d="m 240.686,227.67 c -0.707,-0.453 -1.791,-0.152 -2.236,0.52 -0.128,0.193 0.042,0.444 0.257,0.447 0.448,0.006 0.872,-0.258 1.311,-0.217 0.401,0.038 0.597,0.315 0.527,0.703 -0.188,1.026 -1.522,0.728 -2.021,0.151 -0.098,-0.114 -0.286,0.034 -0.207,0.16 0.344,0.555 0.948,0.959 1.618,0.927 0.639,-0.031 1.148,-0.482 1.3,-1.098 0.143,-0.581 -0.025,-1.258 -0.549,-1.593 z"
   id="path208" />

				<path
   d="m 220.576,278.444 c -0.943,-1.13 -2.587,-1.35 -3.967,-1.153 -2.933,0.42 -7.018,3.422 -6.546,6.74 0.029,0.204 0.305,0.187 0.398,0.052 1.206,-1.742 1.655,-3.529 3.583,-4.767 0.962,-0.618 2.128,-1.058 3.286,-1.069 2.266,-0.02 2.912,1.477 2.594,3.738 -0.436,3.098 -2.418,4.234 -5.134,5.289 -1.606,0.623 -4.407,2.03 -5.471,-0.853 -0.56,-1.516 0.312,-3.329 1.075,-4.597 0.063,-0.104 -0.091,-0.188 -0.16,-0.093 -1.123,1.561 -2.16,3.197 -1.505,5.183 0.478,1.448 1.653,2.227 3.165,2.259 1.998,0.042 4.718,-1.118 6.381,-2.185 1.575,-1.011 2.238,-2.625 2.622,-4.398 0.3,-1.391 0.675,-2.954 -0.321,-4.146 z"
   id="path209" />

				<path
   d="m 230.517,288.331 c -0.554,-1.118 -2.081,-1.671 -3.259,-1.471 -1.043,0.177 -2.335,1.057 -1.886,2.201 -0.253,-0.123 -0.542,0.273 -0.308,0.477 1.094,0.95 2.478,2.073 4.03,1.605 1.183,-0.357 2.011,-1.626 1.423,-2.812 z m -2.92,1.991 c -0.636,-0.142 -1.194,-0.505 -1.719,-0.892 0.193,-0.03 0.368,-0.171 0.35,-0.397 -0.147,-1.834 3.449,-1.52 3.487,0.129 0.025,1.051 -1.306,1.341 -2.118,1.16 z"
   id="path210" />

			</g>

		</g>
  </g>
</svg>
