<?xml version="1.0" encoding="UTF-8" standalone="no"?>
<!-- Created with Inkscape (http://www.inkscape.org/) -->

<svg
   width="28.157953mm"
   height="38.463116mm"
   viewBox="0 0 28.157953 38.463116"
   version="1.1"
   id="svg1"
   inkscape:version="1.4 (86a8ad7, 2024-10-11)"
   sodipodi:docname="rabit.svg"
   xmlns:inkscape="http://www.inkscape.org/namespaces/inkscape"
   xmlns:sodipodi="http://sodipodi.sourceforge.net/DTD/sodipodi-0.dtd"
   xmlns="http://www.w3.org/2000/svg"
   xmlns:svg="http://www.w3.org/2000/svg">
  <sodipodi:namedview
     id="namedview1"
     pagecolor="#ffffff"
     bordercolor="#000000"
     borderopacity="0.25"
     inkscape:showpageshadow="2"
     inkscape:pageopacity="0.0"
     inkscape:pagecheckerboard="0"
     inkscape:deskcolor="#d1d1d1"
     inkscape:document-units="mm"
     inkscape:zoom="0.72604517"
     inkscape:cx="81.950824"
     inkscape:cy="97.101396"
     inkscape:window-width="1920"
     inkscape:window-height="1017"
     inkscape:window-x="-8"
     inkscape:window-y="-8"
     inkscape:window-maximized="1"
     inkscape:current-layer="layer1" />
  <defs
     id="defs1" />
  <g
     inkscape:label="Capa 1"
     inkscape:groupmode="layer"
     id="layer1"
     transform="translate(-83.610695,-122.64223)">
    <g
       id="g205"
       transform="matrix(0.26458333,0,0,0.26458333,5.7656479,59.974002)">
			<g
   id="g197">
				<path
   style="fill:#d8e4fd"
   d="m 394.168,341.597 c -0.173,-0.903 -0.536,-3.301 -0.904,-4.177 -0.169,-2.74 -1.439,-4.287 -1.857,-6.6 -0.259,-1.432 -0.443,-0.919 -1.255,0.212 -2.948,4.109 -3.775,7.147 -6.076,9.349 -0.419,-1.113 -0.766,-3.789 -0.951,-4.21 -2.889,-6.59 -4.286,-13.124 -7.175,-19.714 -0.481,-1.658 -2.383,-3.397 -2.696,-5.111 -1.005,-5.496 -0.644,-11.111 -1.576,-16.611 -1.231,-7.268 -5.004,-14.051 -10.954,-18.293 2.492,-4.959 6.011,-11.486 11.2,-14.821 0.462,5.025 1.197,10.636 4.025,14.886 2.279,3.424 6.711,8.618 11.468,8.051 4.646,-0.554 5.028,-4.251 5.654,-7.979 1.064,-6.342 1.883,-13.04 -0.174,-19.272 -3.349,-10.146 -13.92,-16.268 -23.245,-11.049 -9.577,5.36 -10.768,13.535 -16.065,23.549 -1.564,-0.295 -5.429,1.236 -6.993,0.941 -3.18,-0.6 -5.041,1.238 -5.783,-3.234 -0.587,-3.536 -1.274,-8.101 -2.747,-11.452 -2.516,-5.722 -4.933,-14.013 -10.208,-17.627 -9.776,-6.699 -22.356,9.61 -25.71,17.354 -3.108,7.176 -6.677,24.218 3.453,28.286 12.405,4.982 16.956,-20.03 19.051,-29.916 9.375,5.563 6.805,12.444 8,17.844 -5.427,3.195 -9.767,7.747 -12.717,13.195 -0.368,-0.032 -0.759,0.103 -1.11,0.495 -1.554,1.741 -2.334,3.608 -2.387,5.681 -8.54,22.901 -9.428,47.058 -2.615,70.65 -5.017,0.275 -10.13,2.546 -14.28,5.51 -2.214,1.582 -4.445,4.096 -1.871,6.505 3.311,3.099 10.278,1.411 14.184,0.598 3.089,-0.643 6.004,-1.844 9.04,-2.667 3.679,-0.997 17.306,-2.124 10.032,5.261 -0.543,0.551 -0.284,3.444 -0.092,3.765 -0.069,1.435 2.877,1.125 3.822,0.332 0.477,-0.4 0.965,-0.773 1.454,-1.147 0.168,0.143 0.376,0.39 0.606,0.298 8.869,-3.57 12.523,-4.972 19.009,-7.02 3.616,-1.142 7.43,-1.926 10.74,-3.86 2.819,-1.648 4.947,-4.092 7.158,-6.443 2.981,-3.169 5.317,-5.034 9.785,-5.363 2.694,-0.199 5.43,-0.064 6.893,-2.529 0.236,-0.398 1.392,-1.93 1.595,-2.354 2.774,-3.378 3.297,-6.965 2.272,-11.313 z"
   id="path181" />

				<path
   style="fill:#f3d5a2"
   d="m 341.936,294.012 c -0.759,-0.26 -1.347,-0.625 -2.176,-0.681 -0.749,-0.051 -1.483,0.057 -2.136,0.439 -0.5,0.293 -0.438,1.159 0.168,1.288 0.884,0.189 2.326,0.247 2.965,0.979 1.221,1.398 3.219,-1.327 1.179,-2.025 z"
   id="path182" />

				<g
   id="g188">
					<path
   style="fill:#eebece"
   d="m 327.066,292.325 c -1.909,-0.228 -3.166,1.996 -4.081,3.368 -1.156,1.733 -2.282,3.564 -1.978,5.702 0.105,0.741 1.1,0.834 1.559,0.411 1.184,-1.089 1.636,-2.609 2.376,-4.003 0.685,-1.291 1.55,-3.16 2.704,-4.08 0.624,-0.499 0.031,-1.325 -0.58,-1.398 z"
   id="path183" />

					<path
   style="fill:#eebece"
   d="m 329.432,293.046 c -1.349,0.51 -2.3,1.724 -2.996,2.945 -0.682,1.195 -1.514,2.713 -0.818,4.052 0.201,0.386 0.832,0.589 1.198,0.314 1.043,-0.783 1.142,-2.035 1.697,-3.152 0.553,-1.113 1.366,-2.104 1.812,-3.266 0.191,-0.497 -0.397,-1.08 -0.893,-0.893 z"
   id="path184" />

					<path
   style="fill:#eebece"
   d="m 330.106,295.252 c -0.656,1.086 -1.728,2.734 -1.147,4.018 0.15,0.331 0.665,0.442 0.955,0.25 0.527,-0.348 0.794,-0.971 0.997,-1.552 0.216,-0.617 0.487,-1.205 0.794,-1.782 0.558,-1.05 -0.981,-1.957 -1.599,-0.934 z"
   id="path185" />

					<path
   style="fill:#eebece"
   d="m 350.452,296.416 c -0.46,-0.589 -1.308,0.065 -1.166,0.679 0.223,0.971 0.486,1.965 0.535,2.962 0.044,0.904 -0.179,1.885 0.121,2.747 0.265,0.76 1.158,0.825 1.614,0.211 1.318,-1.775 0.091,-5.07 -1.104,-6.599 z"
   id="path186" />

					<path
   style="fill:#eebece"
   d="m 353.572,296.415 c -0.441,-0.849 -1.763,-0.258 -1.523,0.642 0.278,1.042 0.428,2.114 0.395,3.194 -0.03,0.957 -0.209,1.778 0.177,2.683 0.2,0.47 0.836,0.417 1.152,0.148 1.771,-1.506 0.687,-4.959 -0.201,-6.667 z"
   id="path187" />

					<path
   style="fill:#eebece"
   d="m 357.111,296.355 c -0.518,-0.992 -1.885,-0.266 -1.705,0.719 0.203,1.108 0.287,2.285 0.284,3.409 -0.003,0.977 -0.054,1.853 0.568,2.647 0.206,0.263 0.723,0.316 0.992,0.128 2.075,-1.452 0.79,-5.125 -0.139,-6.903 z"
   id="path188" />

				</g>

				<g
   id="g196">
					<path
   style="fill:#a6c1fc"
   d="m 326.651,253.521 c -0.699,-0.307 -1.596,0.568 -0.897,1.163 2.251,1.914 4.363,4.094 5.845,6.669 1.572,2.732 1.714,5.534 2.578,8.463 0.293,0.993 1.92,1.121 2.142,0 1.267,-6.386 -4.055,-13.832 -9.668,-16.295 z"
   id="path189" />

					<path
   style="fill:#a6c1fc"
   d="m 322.537,320.304 c -0.461,-0.536 -1.208,0.146 -0.928,0.716 1.737,3.54 3.349,7.055 4.026,10.961 0.688,3.967 0.062,7.622 -0.14,11.588 -0.053,1.038 1.344,1.055 1.678,0.227 2.986,-7.402 0.44,-17.601 -4.636,-23.492 z"
   id="path190" />

					<path
   style="fill:#a6c1fc"
   d="m 334.127,287.146 c -0.514,0.412 -0.787,0.982 -1.283,1.413 -0.771,0.672 -1.72,0.77 -2.691,0.542 -1.815,-0.427 -3.516,-1.634 -3.188,-3.733 0.047,-0.3 -0.369,-0.545 -0.534,-0.225 -2.339,4.555 7.116,7.825 8.481,2.46 0.125,-0.486 -0.434,-0.738 -0.785,-0.457 z"
   id="path191" />

					<path
   style="fill:#a6c1fc"
   d="m 372.689,258.603 c -5.201,2.239 -12.131,6.254 -13.083,12.497 -0.184,1.207 1.46,2.169 2.134,0.9 1.391,-2.617 2.589,-4.915 4.818,-6.963 2.149,-1.974 4.557,-3.699 6.83,-5.529 0.555,-0.446 -0.155,-1.139 -0.699,-0.905 z"
   id="path192" />

					<path
   style="fill:#a6c1fc"
   d="m 308.367,280.705 c -12.434,-2.168 -6.844,-20.793 -3.247,-28.381 0.141,-0.298 -0.256,-0.534 -0.443,-0.259 -4.033,5.955 -5.946,13.197 -5.151,20.411 0.514,4.664 3.039,10.416 8.608,9.949 0.909,-0.076 1.276,-1.538 0.233,-1.72 z"
   id="path193" />

					<path
   style="fill:#a6c1fc"
   d="m 381.783,341.569 c -0.34,-5.555 -1.599,-11.087 -3.048,-16.446 -0.564,-2.085 -1.213,-4.173 -2.221,-6.094 -1.155,-2.203 -4.08,-4.618 -4.835,-6.971 1.21,-2.189 0.376,-4.757 0.056,-7.152 -0.467,-3.493 -0.701,-7.014 -1.278,-10.49 -0.108,-0.652 -1.049,-0.439 -1.091,0.148 -0.41,5.695 1.547,11.545 0.712,17.134 -0.046,0.305 0.064,0.57 0.243,0.753 -0.303,2.874 2.288,4.736 3.596,7.316 2.255,4.447 3.229,9.804 4.149,14.667 2.13,11.253 1.314,21.505 -6.267,30.468 -0.334,0.395 0.094,1.076 0.587,0.76 7.794,-5 9.926,-15.451 9.397,-24.093 z"
   id="path194" />

					<path
   style="fill:#a6c1fc"
   d="m 335.144,370.855 c -2.026,-0.859 -4.27,-0.774 -6.382,-1.602 -2.499,-0.979 -6.044,-1.8 -8.062,-3.61 -0.519,-0.466 -1.503,0.169 -1.029,0.794 0.655,0.862 1.441,1.548 2.294,2.139 -3.386,1.894 -7.015,3.365 -10.76,4.397 -4.508,1.242 -8.801,0.119 -13.318,0.495 -0.34,0.028 -0.592,0.561 -0.198,0.73 7.942,3.403 18.442,0.868 25.36,-3.925 0.294,-0.204 0.429,-0.48 0.453,-0.757 1.384,0.734 2.877,1.315 4.331,1.941 2.239,0.964 5.47,2.479 7.442,0.416 0.256,-0.268 0.269,-0.848 -0.131,-1.018 z"
   id="path195" />

					<path
   style="fill:#a6c1fc"
   d="m 392.438,338.947 c -0.305,-0.482 -1.21,-0.336 -1.154,0.313 0.345,4.02 0.928,7.937 -0.724,11.787 -1.879,4.379 -5.64,5.11 -9.905,5.582 -0.547,0.061 -0.867,0.8 -0.302,1.115 3.876,2.156 8.979,-0.143 11.356,-3.546 2.939,-4.211 3.508,-10.862 0.729,-15.251 z"
   id="path196" />

				</g>

			</g>

			<g
   id="g204">
				<path
   d="m 400.399,299.962 c -8.242,-4.758 -18.034,-6.601 -27.714,-6.18 -1.27,-6.049 -3.629,-11.792 -7.46,-16.364 -0.777,-0.926 -1.62,-1.776 -2.51,-2.561 0.368,-0.9 0.57,-1.842 0.936,-2.774 0.667,-1.697 1.654,-3.235 2.838,-4.623 1.549,-1.816 3.361,-3.43 5.234,-4.933 -0.111,8.193 3.725,17.072 10.279,21.264 11.712,7.493 14.164,-13.146 13.763,-20.046 -0.619,-10.667 -8.13,-21.603 -19.992,-19.796 -12.636,1.925 -18.954,14.705 -22.185,25.858 -3.781,-1.118 -7.817,-1.313 -11.729,-0.442 -0.026,-0.006 -0.047,-0.018 -0.077,-0.021 -2.769,-0.242 -5.298,-0.02 -7.61,0.585 -0.153,-5.55 -3.24,-11.523 -7.504,-15.118 0.13,-1.564 0.112,-3.105 -0.119,-4.586 -0.066,-0.421 -0.637,-0.319 -0.755,0 -0.41,1.103 -0.737,2.239 -1.02,3.394 -0.166,0.101 -0.246,0.35 -0.123,0.54 -0.776,3.33 -1.241,6.788 -2.302,10.033 -1.669,5.102 -3.897,10.647 -7.363,14.82 -2.905,3.499 -7.518,5.385 -11.273,1.846 -2.379,-2.242 -2.981,-5.731 -3.181,-8.83 -0.309,-4.781 0.558,-9.677 2.183,-14.169 2.99,-8.268 11.914,-21.976 22.338,-18.774 11.325,3.479 11.99,19.258 14.825,28.686 0.183,0.608 1.034,0.347 0.934,-0.257 -1.723,-10.413 -4.365,-29.567 -18.217,-30.512 -11.656,-0.796 -20.346,14.932 -22.662,24.434 -1.291,5.296 -1.965,11.871 0.232,17.02 1.965,4.606 6.798,7.715 11.72,5.471 5.467,-2.492 8.416,-9.306 10.563,-14.475 1.617,-3.892 3.396,-8.536 4.047,-13.083 1.446,1.789 2.768,3.651 3.757,5.771 1.268,2.716 1.728,5.438 2.241,8.309 -8.559,3.068 -13.916,11.618 -17.348,20.983 -4.18,-0.104 -8.352,-0.068 -12.531,0.248 -0.708,0.054 -0.721,1.079 0,1.111 3.99,0.178 7.973,0.212 11.967,0.238 -0.526,1.542 -1.006,3.098 -1.438,4.649 -6.674,2.008 -13.026,5.539 -18.701,9.391 -0.508,0.345 -0.07,1.102 0.482,0.824 5.907,-2.98 11.696,-6.309 17.751,-8.472 -0.63,2.434 -1.154,4.831 -1.598,7.12 -0.367,0.216 -0.737,0.426 -1.102,0.65 -3.721,2.284 -10.649,5.487 -12.007,9.96 -0.141,0.465 0.52,0.721 0.768,0.324 2.303,-3.684 7.792,-6.735 12.002,-9.121 -0.215,1.192 -0.411,2.351 -0.584,3.454 -1.739,11.042 -2.984,22.581 -2.193,33.764 0.36,5.094 1.384,11.159 4.237,15.792 -4.516,0.685 -8.798,2.657 -12.375,5.501 -1.821,1.447 -5.909,4.456 -3.956,7.236 2.127,3.027 10.052,2.211 12.915,2.04 5.672,-0.339 12.095,-1.473 16.954,-4.569 2.128,1.15 4.484,1.964 6.739,2.15 -1.811,2.128 -2.918,4.659 -2.73,7.714 0.026,0.422 0.313,0.681 0.724,0.724 5.059,0.525 9.223,-2.073 13.766,-3.903 5.072,-2.042 10.29,-3.205 15.535,-4.656 0.194,-0.054 16.297,-7.095 20.549,-14.618 4.79,2.047 10.292,-1.162 12.741,-5.611 4.056,-7.369 1.362,-16.849 -1.053,-24.28 -0.223,-0.687 -1.042,-0.73 -1.441,-0.188 -2.409,3.267 -4.546,6.674 -6.465,10.234 -0.832,-10.375 -5.21,-20.646 -10.354,-29.496 0.162,-2.599 0.162,-5.282 -0.012,-7.975 5.229,0.596 10.426,1.853 15.841,3.62 0.431,0.141 0.7,-0.51 0.307,-0.729 -4.898,-2.736 -10.537,-4.298 -16.306,-4.844 -0.137,-1.406 -0.319,-2.811 -0.562,-4.203 9.021,0.006 17.954,2.033 26.981,5.4 0.562,0.21 0.902,-0.661 0.403,-0.949 z M 369.516,248.2 c 9.918,-5.619 20.368,-0.468 23.258,10.282 1.685,6.266 0.049,32.901 -11.574,22.045 -7.36,-6.874 -8.02,-16.62 -6.204,-25.866 0.166,-0.847 -1.084,-1.529 -1.496,-0.631 -1.012,2.202 -1.563,4.676 -1.728,7.241 -2.695,1.771 -5.332,3.567 -7.388,6.121 -1.328,1.65 -2.897,4.024 -3.08,6.316 -1.964,-1.483 -4.124,-2.656 -6.405,-3.475 3.339,-8.266 6.398,-17.376 14.617,-22.033 z m 14.71,93.288 c 1.991,-3.658 4.222,-7.126 6.711,-10.456 1.551,5.32 2.938,11.084 2.047,16.554 -1.04,6.386 -5.602,10.801 -11.839,9.832 0.596,-1.241 1.112,-2.564 1.546,-3.964 3.271,0.375 5.703,-3.092 5.718,-6.095 0.003,-0.583 -0.817,-0.549 -0.883,0 -0.305,2.547 -2.341,4.038 -4.512,4.967 0.078,-0.29 0.161,-0.576 0.231,-0.873 0.778,-3.294 1.071,-6.63 0.981,-9.965 z m -10.784,-28.309 c 0.019,-0.159 0.03,-0.322 0.048,-0.482 4.75,11.604 10.258,23.178 7.885,36.106 -2.679,14.598 -14.114,20.868 -27.512,24.098 -0.414,0.1 -10.92,4.453 -16.047,6.508 -1.602,0.642 -5.58,2.809 -6.714,0.664 -0.975,-1.843 1.253,-4.493 3.292,-6.351 0.033,-0.003 0.066,-0.003 0.099,-0.006 0.382,-0.04 0.599,-0.325 0.617,-0.62 0.626,-0.53 1.195,-0.964 1.585,-1.236 3.323,-2.32 7.004,-4.053 10.311,-6.418 0.265,-0.189 0.041,-0.556 -0.252,-0.43 -3.97,1.705 -9.212,3.919 -12.827,7.22 -1.895,-0.585 -3.856,-0.907 -5.723,-1.62 -2.314,-0.884 -4.375,-2.14 -6.501,-3.386 -0.551,-0.323 -1.134,0.428 -0.682,0.883 0.87,0.877 1.921,1.723 3.078,2.486 -7.018,2.11 -13.265,4.222 -20.9,3.805 -2.937,-0.16 -7.013,0.636 -4.541,-4.433 0.729,-1.494 3.044,-2.678 4.387,-3.546 3.071,-1.986 6.407,-3.065 9.909,-3.93 1.203,1.663 2.678,3.095 4.502,4.154 0.753,0.437 1.465,-0.552 0.906,-1.174 -6.001,-6.687 -8.189,-13.599 -8.504,-22.532 -0.349,-9.899 0.559,-19.97 2.012,-29.754 0.291,-1.96 0.628,-3.994 1.005,-6.053 4.672,-2.732 9.591,-4.835 14.921,-5.864 0.627,-0.121 0.353,-1.045 -0.261,-0.947 -5.125,0.814 -9.826,2.607 -14.319,5.022 0.433,-2.191 0.919,-4.403 1.501,-6.598 5.236,-1.611 10.698,-2.244 16.63,-0.946 0.633,0.138 0.904,-0.821 0.269,-0.975 -5.549,-1.348 -11.092,-1.041 -16.453,0.304 0.396,-1.383 0.832,-2.752 1.306,-4.1 3.693,-0.054 7.66,-0.263 10.938,1.479 0.623,0.331 1.159,-0.58 0.553,-0.947 -2.943,-1.782 -6.034,-1.875 -9.39,-2.014 -0.512,-0.021 -1.024,-0.031 -1.535,-0.049 3.681,-9.666 9.659,-17.899 20.015,-20.484 -0.37,0.222 -0.082,0.867 0.348,0.732 5.351,-1.682 10.812,-1.704 15.716,-0.12 -0.021,0.545 0.66,0.74 1.016,0.369 4.596,1.724 8.648,4.892 11.558,9.504 2.505,3.971 3.797,8.145 4.54,12.433 -6.13,0.51 -12.159,1.913 -17.658,4.063 -0.663,0.259 -0.388,1.335 0.299,1.085 5.949,-2.167 11.805,-3.274 17.617,-3.518 0.186,1.316 0.325,2.643 0.441,3.976 -5.511,-0.222 -11.056,0.458 -16.113,1.946 -0.681,0.2 -0.396,1.201 0.291,1.057 5.556,-1.161 10.799,-1.473 15.97,-1.114 0.277,3.886 0.409,7.823 0.831,11.756 0.104,0.988 1.42,0.981 1.536,-0.003 z"
   id="path197" />

				<path
   d="m 335.272,286.446 c -1.435,0.749 -2.731,1.892 -4.329,2.304 -1.835,0.473 -4.245,-0.439 -4.142,-2.656 0.02,-0.425 -0.682,-0.534 -0.755,-0.102 -0.331,1.943 1.01,3.614 2.874,4.125 2.621,0.719 5.287,-1.058 6.844,-3.034 0.276,-0.35 -0.059,-0.863 -0.492,-0.637 z"
   id="path198" />

				<path
   d="m 355.223,290.132 c -1.255,0.358 -2.266,0.694 -3.568,0.222 -1.279,-0.464 -1.759,-1.53 -2.744,-2.312 -0.133,-0.105 -0.311,-0.071 -0.369,0.097 -0.543,1.567 1.259,2.998 2.548,3.555 1.438,0.62 3.588,0.72 4.721,-0.549 0.389,-0.437 0.019,-1.187 -0.588,-1.013 z"
   id="path199" />

				<path
   d="m 341.418,292.615 c -1.081,-0.42 -2.342,-0.287 -3.267,0.357 -1.011,-0.383 -2.277,0.354 -2.461,1.542 -0.046,0.295 0.027,0.633 0.319,0.784 2.211,1.144 4.678,1.69 7.161,1.64 0.332,-0.007 0.61,-0.275 0.612,-0.612 0.011,-1.589 -0.837,-3.118 -2.364,-3.711 z m -0.684,1.01 c 0.998,0.279 1.595,1.124 1.766,2.074 -1.842,-0.071 -3.536,-0.508 -5.194,-1.303 0.037,-0.033 0.075,-0.062 0.117,-0.088 0.121,0.109 0.299,0.155 0.458,0.053 0.103,-0.066 0.207,-0.13 0.312,-0.193 0.058,0.007 0.116,0.003 0.174,0.015 0.256,0.054 0.557,-0.151 0.59,-0.401 0.558,-0.228 1.147,-0.332 1.777,-0.157 z"
   id="path200" />

				<path
   d="m 345.907,302.474 c -2.398,0.84 -5.02,0.572 -6.516,-1.711 -0.258,-0.394 -0.72,-0.423 -1.069,-0.138 -1.544,1.263 -3.007,0.908 -4.779,0.909 -0.283,0 -0.416,0.348 -0.227,0.547 1.433,1.511 3.729,1.002 5.347,-0.042 1.892,2.241 5.198,3.079 7.617,1.077 0.296,-0.243 -0.019,-0.766 -0.373,-0.642 z"
   id="path201" />

				<path
   d="m 364.481,310.553 c -2.682,-2.938 -6.897,-4.695 -10.651,-5.766 -0.681,-0.194 -0.965,0.851 -0.292,1.057 3.953,1.208 6.895,3.344 10.321,5.513 0.509,0.322 1.004,-0.386 0.622,-0.804 z"
   id="path202" />

				<path
   d="m 326.357,336.431 c -0.678,-5.133 -1.749,-10.549 -4.068,-15.213 -0.307,-0.617 -1.232,-0.176 -1.08,0.455 0.73,3.039 1.79,5.982 2.487,9.033 0.589,2.579 2.287,7.412 1.529,9.822 -1.343,4.27 -5.44,-2.698 -6.532,-4.483 -1.561,-2.554 -2.704,-5.304 -3.966,-8.009 -0.158,-0.338 -0.64,-0.088 -0.573,0.242 0.631,3.072 6.818,19.066 11.708,15.814 2.064,-1.372 0.733,-5.856 0.495,-7.661 z"
   id="path203" />

				<path
   d="m 361.236,336.598 c -3.155,1.416 -5.882,3.551 -8.778,5.414 -3.098,1.993 -10.533,6.312 -9.567,-1.085 0.867,-6.644 7.278,-12.664 12.739,-15.74 0.423,-0.238 0.052,-0.832 -0.374,-0.639 -4.375,1.978 -7.945,4.976 -10.56,9.022 -1.742,2.694 -4.679,7.887 -3.709,11.22 2.23,7.664 18.386,-5.151 20.802,-7.477 0.396,-0.382 -0.107,-0.915 -0.553,-0.715 z"
   id="path204" />

			</g>

		</g>
  </g>
</svg>
