<?xml version="1.0" encoding="UTF-8" standalone="no"?>
<!-- Created with Inkscape (http://www.inkscape.org/) -->

<svg
   width="24.722879mm"
   height="18.228138mm"
   viewBox="0 0 24.722879 18.228138"
   version="1.1"
   id="svg1"
   inkscape:version="1.4 (86a8ad7, 2024-10-11)"
   sodipodi:docname="shoes.svg"
   xmlns:inkscape="http://www.inkscape.org/namespaces/inkscape"
   xmlns:sodipodi="http://sodipodi.sourceforge.net/DTD/sodipodi-0.dtd"
   xmlns="http://www.w3.org/2000/svg"
   xmlns:svg="http://www.w3.org/2000/svg">
  <sodipodi:namedview
     id="namedview1"
     pagecolor="#ffffff"
     bordercolor="#000000"
     borderopacity="0.25"
     inkscape:showpageshadow="2"
     inkscape:pageopacity="0.0"
     inkscape:pagecheckerboard="0"
     inkscape:deskcolor="#d1d1d1"
     inkscape:document-units="mm"
     inkscape:zoom="0.72604517"
     inkscape:cx="-72.30955"
     inkscape:cy="102.6107"
     inkscape:window-width="1920"
     inkscape:window-height="1017"
     inkscape:window-x="-8"
     inkscape:window-y="-8"
     inkscape:window-maximized="1"
     inkscape:current-layer="layer1" />
  <defs
     id="defs1" />
  <g
     inkscape:label="Capa 1"
     inkscape:groupmode="layer"
     id="layer1"
     transform="translate(-124.35416,-121.44375)">
    <g
       id="g271"
       transform="matrix(0.26458333,0,0,0.26458333,23.751617,18.98482)">
			<g
   id="g247">
				<g
   id="g232">
					<path
   style="fill:#e79cb4"
   d="m 436.129,397.328 c 0.133,-2.119 -0.007,-4.393 -1.143,-5.859 -0.554,-0.715 -1.373,-1.279 -2.296,-1.732 -0.887,-0.847 -1.958,-1.54 -3.242,-2.019 -0.599,-0.224 -1.117,0.072 -1.408,0.533 -0.058,-0.013 -0.123,-0.029 -0.179,-0.041 -2.515,-0.563 -4.972,-0.547 -7.353,0.086 -3.819,0.375 -7.417,2.447 -10.037,5.175 -2.04,1.678 -3.495,3.783 -4.86,5.97 -0.101,0.024 -0.195,0.078 -0.261,0.169 -2.962,4.081 -6.268,7.662 -9.694,11.28 -0.919,0.696 -1.832,1.398 -2.69,2.159 -2.461,2.182 -4.639,4.691 -6.496,7.406 -3.154,4.611 -6.632,11.162 -6.204,16.954 0.372,5.025 3.974,9.675 8.039,12.381 2.924,1.947 5.943,2.935 8.91,3.145 0.169,0.476 0.533,0.874 1.1,0.999 2.735,0.605 5.161,0.315 7.313,-0.578 2.31,-0.193 4.361,-1.366 6.152,-2.952 0.247,-0.074 0.491,-0.214 0.718,-0.449 0.44,-0.456 0.822,-0.924 1.177,-1.4 0.121,-0.151 0.232,-0.308 0.349,-0.461 0.765,-0.898 1.471,-1.828 2.111,-2.725 1.285,-1.802 2.531,-3.746 3.553,-5.789 0.152,-0.262 0.3,-0.521 0.44,-0.771 2.286,-4.076 3.821,-8.44 4.358,-12.995 0.472,-1.354 0.641,-2.811 1.26,-4.081 1.618,-3.32 2.43,-4.723 4.921,-8.005 0.428,0.102 0.894,-2.195 1.311,-2.518 2.795,-2.166 3.835,-5.908 4.082,-9.52 0.309,-1.551 0.315,-3.012 0.069,-4.362 z m -13.136,17.283 c -7.878,5.228 -17.257,2.855 -16.709,-5.281 0.423,-6.279 4.634,-12.075 9.556,-15.858 0.076,-0.032 0.151,-0.073 0.226,-0.129 1.818,-1.357 4.156,-2.16 6.535,-2.398 3.466,0.214 7.154,1.859 8.78,4.572 3.641,6.074 -3.118,15.597 -8.388,19.094 z"
   id="path225" />

					<path
   style="fill:#e06e92"
   d="m 395.525,452.698 c -4.669,-3.085 -8.845,-5.613 -11.032,-11.106 -2.521,-6.329 -1.136,-13.219 1.548,-19.256 0.215,-0.483 -0.459,-0.909 -0.725,-0.424 -3.4,6.189 -5.13,13.444 -2.509,20.268 1.973,5.137 6.632,10.603 12.302,11.507 0.591,0.094 0.953,-0.635 0.416,-0.989 z"
   id="path226" />

					<path
   style="fill:#e06e92"
   d="m 436.167,395.783 c -0.098,-0.527 -0.796,-0.324 -0.853,0.116 -1.673,12.782 -11.895,22.441 -13.017,35.551 -0.045,0.524 0.69,0.538 0.853,0.115 2.775,-7.187 5,-14.237 8.696,-21.065 2.419,-4.471 5.3,-9.468 4.321,-14.717 z"
   id="path227" />

					<path
   style="fill:#e06e92"
   d="m 428.68,391.116 c -1.711,-2.151 -5.351,-1.574 -7.74,-1.249 -3.842,0.522 -6.074,2.467 -8.682,5.172 -0.343,0.356 0.165,0.838 0.534,0.534 4.39,-3.628 9.75,-5.063 15.216,-3.302 0.722,0.232 1.063,-0.664 0.672,-1.155 z"
   id="path228" />

					<path
   style="fill:#e06e92"
   d="m 430.184,407.334 c -2.783,3.992 -5.067,7.256 -9.841,9.015 -4.692,1.728 -13.926,2.857 -14.187,-4.39 -0.009,-0.258 -0.354,-0.362 -0.491,-0.133 -3.378,5.667 5.81,7.594 9.478,7.393 6.534,-0.357 14.546,-4.538 15.77,-11.578 0.077,-0.446 -0.463,-0.688 -0.729,-0.307 z"
   id="path229" />

					<path
   style="fill:#e06e92"
   d="m 417.99,438.152 c -1.696,2.808 -2.654,5.747 -4.881,8.269 -2.128,2.41 -4.82,4.433 -7.772,5.709 -0.483,0.209 -0.138,1 0.357,0.846 6.02,-1.87 13.418,-7.508 13.371,-14.533 -0.004,-0.576 -0.78,-0.78 -1.075,-0.291 z"
   id="path230" />

					<path
   style="fill:#e06e92"
   d="m 388.841,442.124 c -0.789,-1.677 -1.938,-2.952 -2.48,-4.793 -0.473,-1.607 -0.288,-3.275 -0.707,-4.863 -0.052,-0.199 -0.311,-0.212 -0.417,-0.054 -1.909,2.852 -0.051,8.848 2.747,10.568 0.573,0.351 1.108,-0.326 0.857,-0.858 z"
   id="path231" />

					<path
   style="fill:#e06e92"
   d="m 388.688,438.817 c -0.239,-0.447 -0.44,-0.91 -0.613,-1.386 -0.142,-0.39 -0.745,-0.239 -0.632,0.174 0.135,0.492 0.298,0.973 0.496,1.443 0.191,0.454 0.378,0.995 0.763,1.318 0.271,0.227 0.699,0.017 0.607,-0.353 -0.108,-0.437 -0.411,-0.802 -0.621,-1.196 z"
   id="path232" />

				</g>

				<g
   id="g245">
					<g
   id="g237">
						<path
   style="fill:#b1988f"
   d="m 426.971,402.339 c -1.935,-4.446 -5.592,-5.026 -9.336,-3.875 -2.296,0.215 -4.179,1.111 -5.838,2.815 -1.152,0.859 -2.149,1.901 -2.971,3.086 -1.033,0.121 -1.803,0.924 -2.266,1.841 -0.307,0.61 -0.638,1.622 -0.474,2.409 -0.653,2.708 0.077,5.896 2.255,7.502 3.853,2.841 11.003,0.855 14.651,-1.506 4.077,-2.638 5.963,-7.713 3.979,-12.272 z"
   id="path233" />

						<path
   style="fill:#dfb5a1"
   d="m 432.33,397.928 c -0.318,-0.997 -0.817,-1.83 -1.424,-2.557 -0.573,-2.13 -2.03,-3.758 -5.177,-4.195 -7.399,-1.029 -13.841,6.094 -18.147,11.015 -0.533,0.609 0.276,1.415 0.886,0.886 1.816,-1.575 3.705,-3.27 5.716,-4.779 0.292,0.32 0.809,0.678 1.205,0.38 3.455,-2.608 9.152,-0.583 11.462,1.381 0.221,1.4 0.586,2.78 1.43,3.885 -0.129,0.909 -0.255,1.818 -0.317,2.717 -0.076,1.092 1.472,1.402 1.988,0.538 0.723,-1.209 1.277,-2.369 1.568,-3.528 1.265,-1.519 1.401,-3.889 0.81,-5.743 z"
   id="path234" />

						<path
   style="fill:#dfb5a1"
   d="m 435.892,403.474 c -0.017,-0.218 -0.272,-0.282 -0.398,-0.108 -1.804,2.497 -2.14,5.686 -3.984,8.239 -1.93,2.672 -4.28,5.73 -4.737,9.073 -0.062,0.452 0.487,0.949 0.869,0.506 2.35,-2.723 4.117,-6.358 6.08,-9.396 1.484,-2.299 2.384,-5.589 2.17,-8.314 z"
   id="path235" />

						<path
   style="fill:#dfb5a1"
   d="m 420.136,441.082 c 0.252,-0.722 0.505,-1.435 0.777,-2.12 0.196,-0.495 -0.59,-0.801 -0.846,-0.357 -1.542,2.677 -3.01,6.065 -5.028,8.415 -1.772,2.064 -4.404,3.08 -6.049,5.276 -0.363,0.484 0.239,1.195 0.78,1.014 2.498,-0.832 5.346,-2.87 6.984,-4.967 0.181,-0.232 0.342,-0.479 0.505,-0.725 1.807,-1.498 3.075,-3.743 3.856,-5.858 0.219,-0.587 -0.542,-0.977 -0.979,-0.678 z"
   id="path236" />

						<path
   style="fill:#b1988f"
   d="m 426.27,400.744 c -1.789,-1.417 -3.846,-2.092 -5.967,-2.194 -1.037,-0.44 -2.376,-0.317 -3.342,0.285 -4.309,0.906 -8.443,3.783 -10.719,7.232 -0.282,0.427 0.321,0.817 0.671,0.518 3.588,-3.069 9.075,-7.733 14.165,-6.36 3.466,0.935 5.094,3.409 4.771,6.992 -0.405,4.482 -2.341,4.188 -4.984,5.709 -0.539,0.31 -0.286,1.122 0.309,1.141 2.969,0.095 5.474,-1.521 6.27,-4.369 0.852,-3.056 1.567,-6.783 -1.174,-8.954 z"
   id="path237" />

					</g>

					<g
   id="g244">
						<path
   style="fill:#dc486f"
   d="m 416.885,422.447 c -1.831,-2.275 -7.936,-1.894 -10.497,-1.25 -0.08,-0.007 -0.16,-0.014 -0.241,-0.021 -0.303,-0.026 -0.594,0.102 -0.827,0.302 -0.243,0.157 -0.411,0.39 -0.497,0.662 -0.026,-0.002 -0.063,-0.004 -0.11,-0.007 0,-0.136 -0.021,-0.273 -0.055,-0.406 0.532,-0.445 0.598,-1.197 0.309,-1.821 -0.69,-1.489 -1.38,-2.979 -2.071,-4.468 -0.114,-0.245 -0.272,-0.416 -0.452,-0.534 l -0.003,-0.008 c -0.073,-0.209 -0.177,-0.375 -0.297,-0.516 -0.005,-0.251 -0.095,-0.521 -0.297,-0.814 -0.014,-0.02 -0.028,-0.039 -0.043,-0.058 -0.131,-0.178 -0.291,-0.363 -0.514,-0.562 -1.278,-1.135 -3.008,-0.687 -3.578,0.826 -0.019,0.051 -0.022,0.098 -0.033,0.148 -0.464,0.732 -0.708,1.436 -0.853,2.397 -0.002,0.015 -0.006,0.027 -0.008,0.042 -10e-4,0.009 0,0.017 -10e-4,0.026 -0.014,0.095 -0.029,0.186 -0.041,0.286 h 0.036 c 0.016,0.172 0.066,0.327 0.142,0.466 -0.171,0.034 -0.333,0.116 -0.479,0.245 -0.655,0.292 -1.419,0.637 -2.121,1.062 -1.274,0.55 -2.492,1.297 -2.628,2.513 -0.232,0.269 -0.432,0.584 -0.576,0.978 -0.239,0.652 0.271,1.392 0.891,1.569 0.541,0.155 1.075,0.28 1.607,0.391 1.862,0.877 4.657,0.793 7.132,0.677 -0.13,0.098 -0.253,0.202 -0.375,0.307 -0.26,-0.085 -0.545,-0.078 -0.81,0.103 -2.33,1.596 -3.408,4.049 -4.409,6.602 -0.314,0.8 0.296,1.315 0.97,1.36 -0.005,0.264 -0.014,0.527 0.012,0.792 0.096,0.997 1.537,1.326 1.832,0.248 0.383,-1.399 0.522,-2.803 1.101,-4.153 0.485,-0.706 0.969,-1.413 1.472,-2.105 0.553,-0.761 1.144,-1.45 1.892,-2.022 0.553,-0.423 1.15,-0.699 1.606,-1.221 0.281,0.005 0.554,0.009 0.815,0.003 -0.558,1.731 -0.988,3.475 -1.369,5.253 -0.34,1.589 -0.407,3.89 -1.627,5.11 -0.823,0.823 0.004,2.088 1.062,1.901 0.432,0.647 1.487,0.887 1.935,0.005 1.039,-2.044 1.603,-4.133 1.757,-6.42 0.041,-0.618 -0.451,-0.992 -0.977,-1.054 0.176,-1.235 0.319,-2.472 0.412,-3.718 1.026,2.694 1.883,6.505 4.605,6.922 2.146,0.328 3.299,-1.757 3.855,-3.696 2.01,-1.38 4.31,-3.901 2.346,-6.342 z"
   id="path238" />

						<path
   style="fill:#e79983"
   d="m 403.274,417.701 c -0.684,-1.341 -1.696,-2.564 -3.02,-3.304 -0.414,-0.232 -0.789,0.295 -0.492,0.637 0.905,1.044 1.787,2.067 2.368,3.335 0.351,0.765 0.444,1.633 0.642,2.445 -0.758,-0.708 -1.936,-1.077 -2.873,-1.194 -0.371,-0.047 -0.392,0.504 -0.083,0.615 0.601,0.217 1.152,0.536 1.657,0.925 0.44,0.339 0.793,0.802 1.264,1.089 0.195,0.119 0.449,0.043 0.589,-0.119 0.266,0.217 0.68,0.059 0.811,-0.27 0.513,-1.276 -0.276,-3.007 -0.863,-4.159 z"
   id="path239" />

						<path
   style="fill:#e79983"
   d="m 403.32,424.415 c -1.729,0.695 -3.165,1.76 -4.309,3.242 -0.903,1.171 -2.463,3.411 -1.969,4.954 0.094,0.293 0.475,0.421 0.702,0.185 0.436,-0.452 0.495,-0.859 0.701,-1.445 0.309,-0.882 0.744,-1.721 1.274,-2.49 1.028,-1.493 2.409,-2.696 3.931,-3.666 0.386,-0.245 0.141,-0.968 -0.33,-0.78 z"
   id="path240" />

						<path
   style="fill:#e79983"
   d="m 404.908,425.888 c -0.108,0.668 -0.311,1.384 -0.297,2.062 0.003,0.148 0.218,0.223 0.292,0.079 0.308,-0.599 0.442,-1.323 0.636,-1.967 0.125,-0.412 -0.565,-0.583 -0.631,-0.174 z"
   id="path241" />

						<path
   style="fill:#e79983"
   d="m 414.513,421.138 c -1.688,-0.675 -5.406,-0.662 -6.909,0.67 -0.173,-0.212 -0.387,-0.395 -0.647,-0.519 -1.276,-0.606 -2.753,0.193 -3.022,1.566 -0.118,0.6 0.17,1.223 0.792,1.394 0.303,0.083 0.638,0.02 0.907,-0.144 0.08,0.163 0.189,0.308 0.321,0.406 0.146,0.109 0.299,0.165 0.453,0.196 -0.203,0.175 -0.279,0.524 -0.079,0.777 0.462,0.589 0.952,1.143 1.339,1.789 0.362,0.605 0.518,1.264 1.085,1.706 0.221,0.172 0.557,0.134 0.643,-0.17 0.238,-0.844 -0.226,-1.579 -0.677,-2.282 -0.168,-0.261 -0.357,-0.51 -0.557,-0.75 0.279,0.139 0.554,0.285 0.816,0.463 0.736,0.498 1.276,1.141 1.898,1.76 0.509,0.506 1.414,-0.151 1.012,-0.781 -0.876,-1.37 -2.688,-2.619 -4.372,-2.887 0.446,-0.417 0.594,-0.99 0.518,-1.539 1.383,0.234 3.017,-0.272 4.424,-0.151 1.35,0.116 1.929,0.583 2.302,1.914 0.216,0.77 0.299,1.515 0.639,2.244 0.272,0.583 1.211,0.412 1.353,-0.177 0.423,-1.759 -0.404,-4.751 -2.239,-5.485 z"
   id="path242" />

						<path
   style="fill:#e79983"
   d="m 401.55,423.057 c -1.301,-0.104 -2.654,-0.016 -3.97,-0.081 -1.565,-0.077 -4.435,0.263 -5.164,-1.54 -0.179,-0.443 -0.825,-0.4 -0.853,0.116 -0.114,2.059 1.745,2.948 3.54,3.135 1.918,0.2 5.675,1.141 6.841,-0.944 0.178,-0.319 -0.053,-0.658 -0.394,-0.686 z"
   id="path243" />

						<path
   style="fill:#e79983"
   d="m 405.239,431.089 c -0.075,-0.229 -0.41,-0.188 -0.419,0.057 -0.037,0.966 -0.035,1.936 -0.252,2.884 -0.199,0.87 -0.703,1.625 -0.882,2.484 -0.065,0.312 0.294,0.535 0.536,0.312 1.34,-1.243 1.552,-4.097 1.017,-5.737 z"
   id="path244" />

					</g>

				</g>

				<path
   d="m 436.685,394.906 c -1.284,-7.335 -8.55,-8.241 -14.823,-7.403 -0.133,0.018 -0.235,0.078 -0.32,0.152 -4.596,0.11 -8.667,2.623 -11.942,6.069 -2.736,2.879 -4.981,6.187 -7.59,9.177 -2.75,3.152 -5.823,5.9 -8.908,8.71 -8.978,8.176 -16.449,20.584 -10.626,32.786 5.674,11.889 20.847,12.703 31.616,7.365 6.176,-3.061 7.543,-8.854 8.811,-15.156 0.272,-1.352 0.533,-2.706 0.821,-4.054 0.449,-1.449 0.801,-2.864 1.047,-4.208 0.222,-0.753 0.462,-1.501 0.735,-2.241 1.646,-4.445 5.008,-7.295 7.532,-11.141 3.581,-5.456 4.763,-13.68 3.647,-20.056 z m -16.774,47.652 c -1.377,4.044 -4.277,6.658 -7.815,8.288 3.481,-2.78 6.401,-6.727 8.592,-10.935 -0.229,0.891 -0.481,1.776 -0.777,2.647 z m 2.567,-11.035 c -1.889,4.625 -3.396,9.357 -6.52,13.472 -2.855,3.761 -6.546,6.484 -10.751,7.807 -2.322,0.339 -4.684,0.436 -6.918,0.358 -8.374,-0.295 -14.597,-5.928 -16.197,-14.097 -1.546,-7.898 2.073,-15.89 7.151,-21.769 4.54,-5.256 10.22,-9.337 14.668,-14.717 4.717,-5.706 9.889,-12.383 17.951,-13.934 4.872,-0.937 11.505,-0.845 13.637,5.174 0.484,1.366 0.709,3.055 0.764,4.817 -0.082,-0.013 -0.164,0.021 -0.185,0.133 -1.174,6.248 -3.714,10.957 -7.101,16.287 -2.057,3.238 -4.135,6.72 -4.689,10.539 -0.799,1.914 -1.357,3.905 -1.81,5.93 z m 5.767,-12.482 c 1.282,-2.483 2.732,-4.895 4.247,-7.45 1.317,-2.221 2.64,-4.625 3.404,-7.145 -0.112,0.758 -0.236,1.488 -0.379,2.133 -1.135,5.138 -4.359,8.634 -7.272,12.462 z"
   id="path245" />

				<path
   d="m 420.869,390.97 c -0.031,-0.121 -0.921,0.116 -1.249,0.267 -0.11,0.029 -0.22,0.047 -0.331,0.078 -0.15,0.043 -0.246,0.127 -0.314,0.226 -5.776,2.834 -11.567,8.161 -13.324,14.512 -0.119,0.076 -0.235,0.155 -0.347,0.246 -0.064,0.052 0.018,0.152 0.086,0.112 0.068,-0.04 0.128,-0.085 0.192,-0.128 -0.007,0.027 -0.01,0.054 -0.017,0.081 -0.035,0.05 -0.071,0.1 -0.105,0.149 -0.027,0.04 0.016,0.08 0.058,0.075 -0.21,0.876 -0.358,1.768 -0.401,2.678 -0.415,8.795 8.26,10.309 14.944,7.632 6.624,-2.652 12.212,-9.244 12.514,-16.571 0.294,-7.123 -4.737,-10.75 -11.706,-9.357 z m -1.76,24.836 c -3.242,1.18 -8.069,2.012 -10.889,-0.735 -2.631,-2.563 -2.184,-6.487 -1,-9.747 3.134,-2.618 5.608,-5.998 9.898,-6.978 7.537,-1.72 13.229,5.448 9.596,12.244 -2.079,2.326 -4.718,4.165 -7.605,5.216 z m 10.4,-9.317 c -0.118,-3.619 -2.64,-7.621 -5.618,-8.927 -6.03,-2.644 -11.628,0.942 -15.655,5.416 0.004,-0.007 0.007,-0.015 0.011,-0.022 2.374,-4.671 11.062,-10.451 11.352,-10.514 3.115,-0.682 6.998,-0.895 9.522,1.515 2.673,2.551 2.433,6.736 1.439,9.947 -0.276,0.887 -0.633,1.75 -1.051,2.585 z"
   id="path246" />

				<path
   d="m 417.285,422.867 c -1.934,-2.759 -6.419,-2.292 -9.239,-1.649 -0.295,0.068 -0.234,0.546 0.072,0.531 2.392,-0.11 5.765,-0.739 7.723,1.068 1.184,1.093 0.991,2.971 -0.022,4.054 -0.497,0.531 -1.061,0.966 -1.501,1.554 -1.001,1.337 -1.704,4.593 -4.241,3.419 -2.153,-0.996 -3.297,-4.456 -3.574,-6.654 1.254,-0.479 1.941,-2.064 1.354,-3.29 -0.388,-0.81 -1.317,-1.376 -2.198,-1.352 -0.372,-2.027 -1.258,-4.1 -1.946,-5.999 -0.434,-1.198 -0.936,-2.296 -2.187,-2.794 -2.93,-1.167 -5.486,1.597 -5.353,4.416 -1.425,1.75 -3.906,1.877 -5.307,3.797 -0.724,0.991 -0.894,2.195 -0.225,3.261 0.935,1.491 3.115,1.96 4.71,2.145 1.051,0.122 2.052,0.043 3.035,-0.113 -2.618,2.2 -4.317,5.552 -4.797,8.883 -0.1,0.691 0.724,1.101 1.148,0.484 1.531,-2.232 1.242,0.292 1.664,0.758 0.239,0.264 0.465,0.353 0.734,0.354 0.314,0.277 0.909,0.26 1.065,-0.268 1.178,-3.979 3.264,-7.56 5.764,-10.849 0.153,0.143 0.327,0.262 0.509,0.365 -0.074,0.024 -0.144,0.068 -0.194,0.143 -1.131,1.7 -1.292,3.677 -1.657,5.64 -0.159,0.853 -0.328,1.717 -0.632,2.533 -0.372,0.997 -1.076,1.76 -1.439,2.746 -0.086,0.234 0.184,0.51 0.42,0.42 0.043,-0.016 0.078,-0.043 0.12,-0.061 0.547,0.27 1.133,0.435 1.677,0.728 0.302,0.162 0.567,0.38 0.843,0.576 -0.028,0.043 -0.051,0.083 -0.079,0.126 -0.213,0.327 0.21,0.745 0.536,0.536 0.118,-0.076 0.219,-0.168 0.328,-0.251 0.202,0.051 0.369,-0.108 0.38,-0.298 1.873,-1.722 2.311,-4.663 2.134,-7.502 0.71,1.102 1.602,2.038 2.55,2.577 2.765,1.569 4.104,-0.916 5.324,-2.945 1.386,-2.304 4.592,-4.106 2.501,-7.089 z m -19.854,10.84 c -0.05,-0.25 -0.121,-0.488 -0.173,-0.578 -0.237,-0.414 -0.59,-0.627 -1.057,-0.721 -0.386,-0.078 -0.723,-0.022 -1.027,0.106 0.824,-3.141 2.693,-5.573 5.181,-7.638 1.013,-0.223 2.03,-0.443 3.082,-0.542 -2.825,2.571 -4.745,5.77 -6.006,9.373 z m 5.796,-10.487 c -0.45,0.012 -0.882,0.089 -1.315,0.187 -0.041,-0.065 -0.107,-0.111 -0.206,-0.076 -0.286,0.102 -0.565,0.216 -0.838,0.342 -0.319,0.09 -0.644,0.181 -0.984,0.265 -1.486,0.369 -2.94,0.468 -4.452,0.284 -1.556,-0.19 -5.794,-0.928 -3.305,-4.062 1.452,-1.828 5.691,-1.875 4.951,-5.131 -0.011,-0.047 -0.042,-0.068 -0.076,-0.077 0.427,-0.932 1.012,-1.774 2.008,-2.194 1.859,-0.784 3.061,0.435 3.616,2.093 0.649,1.939 1.037,4.118 1.901,5.996 -0.889,0.381 -1.426,1.381 -1.3,2.373 z m 1.177,0.109 c -0.055,-0.012 -0.108,-0.015 -0.162,-0.025 -0.019,-0.047 -0.043,-0.092 -0.057,-0.141 -0.146,-0.529 0.053,-1.047 0.383,-1.469 0.104,0.071 0.234,0.112 0.37,0.093 0.055,-0.007 0.112,-0.012 0.169,-0.017 0.141,0.062 0.309,0.056 0.446,-0.01 0.5,0.024 0.993,0.183 1.227,0.661 0.31,0.633 -0.103,1.464 -0.723,1.725 -0.449,0.189 -0.96,0.064 -1.343,-0.229 0.076,-0.239 -0.005,-0.522 -0.31,-0.588 z m 1.296,7.992 c 0.018,2.27 -0.506,3.756 -1.533,5.496 -0.602,-0.527 -1.518,-0.863 -2.315,-0.898 0.874,-0.794 1.293,-2.09 1.587,-3.23 0.625,-2.416 0.733,-4.88 1.504,-7.276 0.026,-0.08 0.018,-0.149 -0.002,-0.211 0.145,0.048 0.293,0.087 0.445,0.108 -0.037,0.556 0.02,1.15 0.148,1.752 -0.007,1.416 0.155,2.82 0.166,4.259 z"
   id="path247" />

			</g>

			<g
   id="g270">
				<g
   id="g255">
					<path
   style="fill:#e79cb4"
   d="m 417.841,402.918 c 0.246,3.612 1.286,7.354 4.082,9.52 0.417,0.323 0.883,2.62 1.311,2.518 2.491,3.282 3.304,4.685 4.921,8.005 0.619,1.27 0.788,2.728 1.26,4.081 0.537,4.555 2.072,8.92 4.358,12.995 0.14,0.25 0.288,0.508 0.44,0.771 1.022,2.043 2.268,3.986 3.553,5.789 0.64,0.897 1.346,1.827 2.111,2.725 0.118,0.153 0.228,0.31 0.349,0.461 0.355,0.476 0.738,0.944 1.177,1.4 0.227,0.235 0.471,0.375 0.718,0.449 1.791,1.586 3.842,2.759 6.152,2.952 2.152,0.893 4.577,1.183 7.313,0.578 0.567,-0.125 0.931,-0.523 1.1,-0.999 2.967,-0.211 5.986,-1.198 8.91,-3.145 4.065,-2.706 7.668,-7.357 8.039,-12.381 0.428,-5.791 -3.05,-12.342 -6.204,-16.954 -1.857,-2.715 -4.035,-5.224 -6.496,-7.406 -0.858,-0.761 -1.771,-1.464 -2.69,-2.159 -3.426,-3.618 -6.732,-7.2 -9.694,-11.28 -0.066,-0.091 -0.16,-0.145 -0.261,-0.169 -1.364,-2.187 -2.82,-4.291 -4.86,-5.97 -2.62,-2.728 -6.218,-4.8 -10.037,-5.175 -2.381,-0.633 -4.839,-0.649 -7.353,-0.086 -0.056,0.013 -0.121,0.028 -0.179,0.041 -0.291,-0.46 -0.81,-0.756 -1.408,-0.533 -1.284,0.479 -2.355,1.172 -3.242,2.019 -0.923,0.453 -1.741,1.016 -2.296,1.732 -1.136,1.466 -1.276,3.74 -1.143,5.859 -0.247,1.35 -0.241,2.811 0.069,4.362 z m 4.678,-6.174 c 1.626,-2.713 5.314,-4.358 8.78,-4.572 2.379,0.238 4.717,1.04 6.535,2.398 0.074,0.056 0.15,0.097 0.225,0.129 4.923,3.783 9.133,9.579 9.556,15.858 0.548,8.137 -8.831,10.509 -16.709,5.281 -5.269,-3.496 -12.027,-13.019 -8.387,-19.094 z"
   id="path248" />

					<path
   style="fill:#e06e92"
   d="m 458.375,453.925 c 4.669,-3.085 8.845,-5.613 11.032,-11.106 2.521,-6.33 1.136,-13.219 -1.548,-19.256 -0.214,-0.483 0.459,-0.909 0.725,-0.424 3.4,6.189 5.13,13.444 2.509,20.268 -1.973,5.137 -6.632,10.603 -12.302,11.507 -0.591,0.095 -0.953,-0.634 -0.416,-0.989 z"
   id="path249" />

					<path
   style="fill:#e06e92"
   d="m 417.733,397.01 c 0.098,-0.527 0.796,-0.324 0.853,0.116 1.673,12.782 11.895,22.441 13.017,35.551 0.045,0.524 -0.69,0.538 -0.853,0.115 -2.775,-7.188 -5,-14.237 -8.696,-21.065 -2.419,-4.471 -5.3,-9.467 -4.321,-14.717 z"
   id="path250" />

					<path
   style="fill:#e06e92"
   d="m 425.22,392.343 c 1.711,-2.151 5.351,-1.574 7.74,-1.25 3.842,0.522 6.074,2.467 8.682,5.172 0.343,0.356 -0.165,0.838 -0.534,0.534 -4.39,-3.628 -9.75,-5.063 -15.216,-3.302 -0.722,0.233 -1.063,-0.662 -0.672,-1.154 z"
   id="path251" />

					<path
   style="fill:#e06e92"
   d="m 423.716,408.562 c 2.783,3.992 5.067,7.256 9.841,9.015 4.692,1.728 13.926,2.857 14.187,-4.39 0.009,-0.258 0.354,-0.362 0.491,-0.133 3.378,5.667 -5.81,7.594 -9.478,7.393 -6.534,-0.357 -14.546,-4.538 -15.77,-11.578 -0.077,-0.446 0.464,-0.688 0.729,-0.307 z"
   id="path252" />

					<path
   style="fill:#e06e92"
   d="m 435.91,439.379 c 1.696,2.808 2.654,5.747 4.881,8.269 2.128,2.41 4.82,4.432 7.772,5.709 0.483,0.209 0.139,1 -0.357,0.846 -6.02,-1.87 -13.418,-7.508 -13.371,-14.533 0.005,-0.575 0.78,-0.779 1.075,-0.291 z"
   id="path253" />

					<path
   style="fill:#e06e92"
   d="m 465.059,443.351 c 0.789,-1.677 1.938,-2.952 2.48,-4.793 0.473,-1.607 0.288,-3.275 0.707,-4.863 0.052,-0.199 0.311,-0.212 0.416,-0.054 1.909,2.852 0.051,8.848 -2.747,10.568 -0.572,0.352 -1.106,-0.325 -0.856,-0.858 z"
   id="path254" />

					<path
   style="fill:#e06e92"
   d="m 465.212,440.045 c 0.239,-0.447 0.44,-0.91 0.613,-1.386 0.142,-0.391 0.745,-0.239 0.632,0.174 -0.135,0.492 -0.298,0.973 -0.496,1.443 -0.191,0.454 -0.378,0.995 -0.763,1.318 -0.271,0.226 -0.699,0.017 -0.607,-0.353 0.109,-0.437 0.411,-0.803 0.621,-1.196 z"
   id="path255" />

				</g>

				<g
   id="g268">
					<g
   id="g260">
						<path
   style="fill:#b1988f"
   d="m 426.929,403.566 c 1.935,-4.446 5.592,-5.026 9.336,-3.875 2.296,0.215 4.179,1.111 5.838,2.815 1.152,0.859 2.149,1.901 2.971,3.086 1.033,0.121 1.803,0.924 2.266,1.841 0.307,0.61 0.638,1.622 0.474,2.409 0.653,2.708 -0.078,5.896 -2.256,7.502 -3.853,2.841 -11.003,0.855 -14.651,-1.506 -4.076,-2.637 -5.962,-7.713 -3.978,-12.272 z"
   id="path256" />

						<path
   style="fill:#dfb5a1"
   d="m 421.57,399.156 c 0.318,-0.997 0.817,-1.83 1.424,-2.557 0.573,-2.13 2.03,-3.758 5.177,-4.195 7.399,-1.029 13.841,6.094 18.147,11.015 0.533,0.609 -0.276,1.415 -0.886,0.886 -1.816,-1.575 -3.705,-3.27 -5.716,-4.778 -0.291,0.32 -0.809,0.678 -1.205,0.38 -3.455,-2.608 -9.152,-0.583 -11.462,1.381 -0.221,1.4 -0.586,2.78 -1.43,3.885 0.129,0.91 0.255,1.818 0.317,2.717 0.076,1.092 -1.472,1.402 -1.988,0.538 -0.723,-1.209 -1.277,-2.369 -1.568,-3.528 -1.265,-1.521 -1.401,-3.891 -0.81,-5.744 z"
   id="path257" />

						<path
   style="fill:#dfb5a1"
   d="m 418.008,404.701 c 0.017,-0.218 0.272,-0.282 0.398,-0.108 1.804,2.497 2.14,5.686 3.984,8.239 1.93,2.672 4.28,5.73 4.737,9.073 0.062,0.452 -0.486,0.949 -0.869,0.506 -2.35,-2.723 -4.117,-6.358 -6.08,-9.396 -1.484,-2.299 -2.384,-5.588 -2.17,-8.314 z"
   id="path258" />

						<path
   style="fill:#dfb5a1"
   d="m 433.764,442.31 c -0.252,-0.722 -0.505,-1.435 -0.777,-2.12 -0.196,-0.495 0.59,-0.801 0.846,-0.357 1.542,2.677 3.01,6.065 5.028,8.415 1.772,2.064 4.404,3.08 6.049,5.276 0.362,0.484 -0.239,1.195 -0.78,1.015 -2.498,-0.832 -5.346,-2.87 -6.984,-4.967 -0.181,-0.232 -0.342,-0.479 -0.505,-0.725 -1.807,-1.498 -3.075,-3.743 -3.856,-5.858 -0.219,-0.589 0.542,-0.979 0.979,-0.679 z"
   id="path259" />

						<path
   style="fill:#b1988f"
   d="m 427.63,401.971 c 1.789,-1.417 3.846,-2.092 5.967,-2.194 1.037,-0.44 2.376,-0.317 3.342,0.285 4.309,0.906 8.443,3.783 10.719,7.232 0.282,0.427 -0.321,0.817 -0.671,0.518 -3.588,-3.069 -9.075,-7.734 -14.165,-6.36 -3.466,0.935 -5.094,3.409 -4.771,6.992 0.405,4.482 2.341,4.188 4.984,5.709 0.539,0.31 0.286,1.122 -0.309,1.141 -2.969,0.095 -5.474,-1.52 -6.27,-4.368 -0.852,-3.056 -1.567,-6.784 1.174,-8.955 z"
   id="path260" />

					</g>

					<g
   id="g267">
						<path
   style="fill:#dc486f"
   d="m 437.016,423.674 c 1.831,-2.275 7.936,-1.894 10.497,-1.25 0.08,-0.007 0.16,-0.014 0.241,-0.021 0.303,-0.026 0.594,0.102 0.827,0.302 0.243,0.157 0.411,0.39 0.497,0.662 0.026,-0.002 0.063,-0.004 0.11,-0.007 0,-0.136 0.021,-0.273 0.055,-0.406 -0.532,-0.445 -0.598,-1.197 -0.309,-1.821 0.69,-1.489 1.38,-2.979 2.071,-4.468 0.114,-0.245 0.272,-0.416 0.452,-0.534 l 0.003,-0.008 c 0.073,-0.209 0.177,-0.375 0.297,-0.516 0.005,-0.251 0.095,-0.521 0.297,-0.814 0.014,-0.02 0.028,-0.039 0.043,-0.058 0.131,-0.178 0.291,-0.363 0.514,-0.562 1.278,-1.135 3.008,-0.686 3.578,0.826 0.019,0.051 0.022,0.099 0.033,0.148 0.464,0.732 0.708,1.436 0.853,2.397 0.002,0.015 0.006,0.027 0.009,0.042 10e-4,0.009 0,0.017 10e-4,0.026 0.014,0.095 0.029,0.186 0.041,0.286 h -0.036 c -0.016,0.172 -0.066,0.327 -0.143,0.466 0.171,0.034 0.333,0.116 0.479,0.245 0.655,0.292 1.419,0.637 2.121,1.062 1.274,0.551 2.492,1.297 2.628,2.513 0.232,0.269 0.432,0.584 0.576,0.978 0.239,0.652 -0.271,1.392 -0.891,1.569 -0.541,0.155 -1.075,0.28 -1.607,0.391 -1.862,0.877 -4.657,0.793 -7.132,0.677 0.13,0.098 0.253,0.202 0.375,0.307 0.26,-0.085 0.545,-0.078 0.81,0.103 2.33,1.596 3.408,4.049 4.409,6.602 0.314,0.8 -0.296,1.315 -0.97,1.36 0.005,0.264 0.014,0.527 -0.011,0.792 -0.096,0.997 -1.537,1.326 -1.832,0.248 -0.383,-1.399 -0.522,-2.803 -1.101,-4.153 -0.485,-0.706 -0.969,-1.413 -1.472,-2.105 -0.553,-0.761 -1.144,-1.45 -1.892,-2.022 -0.553,-0.423 -1.15,-0.699 -1.606,-1.221 -0.281,0.005 -0.554,0.009 -0.815,0.003 0.558,1.731 0.988,3.475 1.368,5.253 0.34,1.589 0.407,3.89 1.627,5.11 0.823,0.823 -0.004,2.088 -1.062,1.901 -0.432,0.647 -1.487,0.887 -1.935,0.005 -1.039,-2.044 -1.603,-4.133 -1.757,-6.42 -0.041,-0.618 0.451,-0.991 0.977,-1.054 -0.175,-1.235 -0.319,-2.472 -0.412,-3.718 -1.026,2.694 -1.883,6.505 -4.605,6.922 -2.146,0.328 -3.299,-1.757 -3.855,-3.696 -2.011,-1.38 -4.31,-3.9 -2.346,-6.342 z"
   id="path261" />

						<path
   style="fill:#e79983"
   d="m 450.626,418.928 c 0.684,-1.341 1.697,-2.564 3.02,-3.304 0.415,-0.232 0.789,0.295 0.492,0.637 -0.905,1.044 -1.787,2.067 -2.368,3.335 -0.351,0.765 -0.444,1.633 -0.642,2.445 0.758,-0.708 1.936,-1.077 2.873,-1.194 0.371,-0.047 0.393,0.504 0.083,0.615 -0.601,0.217 -1.152,0.536 -1.657,0.925 -0.44,0.339 -0.793,0.802 -1.264,1.089 -0.195,0.119 -0.449,0.043 -0.589,-0.119 -0.266,0.217 -0.68,0.059 -0.811,-0.27 -0.513,-1.275 0.276,-3.006 0.863,-4.159 z"
   id="path262" />

						<path
   style="fill:#e79983"
   d="m 450.58,425.643 c 1.729,0.695 3.165,1.76 4.309,3.242 0.903,1.171 2.463,3.411 1.97,4.954 -0.094,0.293 -0.475,0.421 -0.702,0.185 -0.436,-0.452 -0.495,-0.859 -0.701,-1.445 -0.309,-0.882 -0.744,-1.721 -1.274,-2.49 -1.028,-1.493 -2.409,-2.696 -3.931,-3.666 -0.386,-0.245 -0.141,-0.969 0.329,-0.78 z"
   id="path263" />

						<path
   style="fill:#e79983"
   d="m 448.992,427.116 c 0.108,0.668 0.311,1.384 0.297,2.062 -0.003,0.148 -0.218,0.222 -0.292,0.079 -0.308,-0.599 -0.442,-1.323 -0.636,-1.967 -0.125,-0.412 0.565,-0.584 0.631,-0.174 z"
   id="path264" />

						<path
   style="fill:#e79983"
   d="m 439.387,422.365 c 1.688,-0.675 5.406,-0.662 6.909,0.67 0.173,-0.212 0.387,-0.395 0.647,-0.519 1.276,-0.606 2.753,0.193 3.022,1.566 0.118,0.6 -0.17,1.223 -0.792,1.394 -0.303,0.083 -0.638,0.02 -0.907,-0.144 -0.08,0.163 -0.189,0.308 -0.321,0.406 -0.146,0.109 -0.299,0.165 -0.453,0.196 0.203,0.175 0.279,0.524 0.079,0.777 -0.462,0.589 -0.952,1.143 -1.339,1.789 -0.362,0.605 -0.518,1.263 -1.085,1.706 -0.221,0.172 -0.557,0.134 -0.643,-0.17 -0.238,-0.844 0.226,-1.579 0.677,-2.282 0.168,-0.261 0.357,-0.51 0.557,-0.75 -0.278,0.139 -0.554,0.285 -0.816,0.463 -0.736,0.498 -1.276,1.141 -1.898,1.76 -0.509,0.506 -1.414,-0.151 -1.012,-0.781 0.875,-1.37 2.687,-2.619 4.372,-2.887 -0.446,-0.417 -0.594,-0.99 -0.518,-1.539 -1.383,0.233 -3.018,-0.272 -4.424,-0.151 -1.35,0.116 -1.929,0.583 -2.302,1.914 -0.216,0.77 -0.299,1.515 -0.639,2.244 -0.272,0.583 -1.211,0.412 -1.353,-0.177 -0.422,-1.758 0.404,-4.751 2.239,-5.485 z"
   id="path265" />

						<path
   style="fill:#e79983"
   d="m 452.35,424.285 c 1.301,-0.104 2.654,-0.016 3.97,-0.081 1.565,-0.077 4.435,0.263 5.164,-1.54 0.179,-0.443 0.825,-0.4 0.853,0.115 0.114,2.059 -1.745,2.948 -3.54,3.135 -1.918,0.2 -5.675,1.141 -6.841,-0.944 -0.177,-0.318 0.053,-0.658 0.394,-0.685 z"
   id="path266" />

						<path
   style="fill:#e79983"
   d="m 448.662,432.317 c 0.075,-0.229 0.41,-0.188 0.419,0.057 0.037,0.966 0.035,1.936 0.252,2.884 0.199,0.87 0.702,1.625 0.882,2.484 0.065,0.312 -0.294,0.535 -0.535,0.312 -1.342,-1.243 -1.554,-4.097 -1.018,-5.737 z"
   id="path267" />

					</g>

				</g>

				<path
   d="m 420.863,416.19 c 2.524,3.846 5.887,6.696 7.532,11.141 0.274,0.739 0.513,1.487 0.735,2.241 0.246,1.344 0.598,2.759 1.047,4.208 0.288,1.348 0.549,2.702 0.821,4.054 1.268,6.302 2.634,12.095 8.811,15.156 10.769,5.338 25.941,4.523 31.616,-7.365 5.823,-12.202 -1.648,-24.609 -10.626,-32.786 -3.085,-2.81 -6.159,-5.558 -8.908,-8.71 -2.609,-2.991 -4.854,-6.299 -7.59,-9.177 -3.275,-3.446 -7.346,-5.959 -11.942,-6.069 -0.085,-0.074 -0.187,-0.134 -0.32,-0.152 -6.273,-0.838 -13.539,0.069 -14.823,7.403 -1.116,6.375 0.065,14.599 3.647,20.056 z m 12.349,24.948 c 2.191,4.208 5.111,8.155 8.592,10.935 -3.537,-1.63 -6.438,-4.243 -7.815,-8.287 -0.296,-0.871 -0.548,-1.756 -0.777,-2.648 z m -3.6,-14.318 c -0.554,-3.819 -2.632,-7.301 -4.689,-10.539 -3.386,-5.33 -5.927,-10.039 -7.101,-16.287 -0.021,-0.112 -0.103,-0.146 -0.185,-0.133 0.054,-1.762 0.28,-3.451 0.763,-4.817 2.132,-6.019 8.765,-6.111 13.637,-5.174 8.062,1.551 13.233,8.228 17.951,13.934 4.448,5.38 10.128,9.461 14.668,14.717 5.078,5.879 8.697,13.871 7.151,21.769 -1.599,8.169 -7.823,13.802 -16.197,14.097 -2.234,0.079 -4.596,-0.018 -6.918,-0.358 -4.205,-1.323 -7.896,-4.046 -10.751,-7.807 -3.124,-4.115 -4.631,-8.847 -6.52,-13.472 -0.452,-2.024 -1.009,-4.016 -1.809,-5.93 z m -11.229,-19.014 c -0.142,-0.645 -0.267,-1.374 -0.379,-2.133 0.764,2.52 2.087,4.923 3.404,7.145 1.515,2.555 2.966,4.967 4.247,7.45 -2.913,-3.828 -6.137,-7.324 -7.272,-12.462 z"
   id="path268" />

				<path
   d="m 421.325,401.554 c 0.302,7.327 5.891,13.919 12.514,16.571 6.684,2.676 15.359,1.163 14.944,-7.632 -0.043,-0.91 -0.19,-1.802 -0.401,-2.678 0.042,0.005 0.085,-0.035 0.058,-0.075 -0.034,-0.05 -0.07,-0.1 -0.105,-0.149 -0.007,-0.027 -0.01,-0.054 -0.017,-0.081 0.063,0.043 0.124,0.088 0.192,0.128 0.068,0.04 0.15,-0.06 0.086,-0.112 -0.112,-0.09 -0.228,-0.17 -0.347,-0.246 -1.758,-6.351 -7.548,-11.677 -13.324,-14.512 -0.067,-0.098 -0.164,-0.183 -0.314,-0.226 -0.11,-0.031 -0.22,-0.05 -0.331,-0.078 -0.328,-0.15 -1.219,-0.387 -1.25,-0.267 -6.968,-1.393 -11.999,2.234 -11.705,9.357 z m 5.862,10.264 c -3.634,-6.796 2.059,-13.964 9.596,-12.244 4.29,0.979 6.764,4.36 9.898,6.978 1.185,3.26 1.632,7.184 -0.999,9.747 -2.82,2.747 -7.647,1.915 -10.89,0.735 -2.888,-1.051 -5.526,-2.89 -7.605,-5.216 z m -3.846,-6.688 c -0.994,-3.211 -1.234,-7.395 1.439,-9.947 2.524,-2.41 6.407,-2.197 9.522,-1.515 0.29,0.064 8.979,5.844 11.352,10.514 0.004,0.007 0.007,0.015 0.011,0.022 -4.026,-4.473 -9.624,-8.06 -15.655,-5.416 -2.979,1.306 -5.5,5.308 -5.618,8.927 -0.418,-0.834 -0.776,-1.696 -1.051,-2.585 z"
   id="path269" />

				<path
   d="m 439.116,431.185 c 1.22,2.029 2.559,4.515 5.324,2.945 0.948,-0.538 1.841,-1.474 2.55,-2.577 -0.177,2.84 0.261,5.78 2.134,7.502 0.012,0.191 0.178,0.349 0.38,0.299 0.11,0.083 0.21,0.175 0.328,0.251 0.326,0.209 0.748,-0.209 0.536,-0.536 -0.028,-0.043 -0.052,-0.083 -0.08,-0.126 0.276,-0.197 0.542,-0.414 0.843,-0.577 0.544,-0.293 1.13,-0.458 1.677,-0.728 0.042,0.018 0.077,0.044 0.12,0.061 0.236,0.089 0.507,-0.186 0.42,-0.421 -0.362,-0.986 -1.067,-1.749 -1.439,-2.746 -0.304,-0.815 -0.473,-1.68 -0.632,-2.533 -0.365,-1.963 -0.526,-3.941 -1.657,-5.64 -0.05,-0.075 -0.12,-0.12 -0.194,-0.143 0.182,-0.104 0.355,-0.222 0.509,-0.365 2.5,3.29 4.586,6.871 5.764,10.849 0.156,0.527 0.752,0.545 1.065,0.268 0.268,-0.001 0.495,-0.09 0.734,-0.354 0.422,-0.466 0.132,-2.989 1.664,-0.758 0.423,0.617 1.247,0.207 1.148,-0.484 -0.48,-3.331 -2.179,-6.682 -4.797,-8.883 0.983,0.156 1.983,0.235 3.035,0.112 1.594,-0.185 3.775,-0.654 4.71,-2.145 0.668,-1.066 0.498,-2.27 -0.225,-3.261 -1.401,-1.92 -3.883,-2.047 -5.307,-3.797 0.133,-2.82 -2.423,-5.584 -5.353,-4.416 -1.251,0.498 -1.753,1.596 -2.187,2.794 -0.688,1.899 -1.574,3.973 -1.946,5.999 -0.88,-0.024 -1.809,0.542 -2.198,1.352 -0.587,1.226 0.1,2.811 1.354,3.29 -0.277,2.199 -1.42,5.659 -3.574,6.654 -2.537,1.173 -3.24,-2.082 -4.241,-3.42 -0.44,-0.588 -1.004,-1.023 -1.5,-1.554 -1.012,-1.083 -1.206,-2.961 -0.022,-4.054 1.958,-1.807 5.331,-1.178 7.723,-1.068 0.306,0.014 0.367,-0.464 0.072,-0.531 -2.82,-0.644 -7.304,-1.111 -9.238,1.649 -2.092,2.985 1.114,4.786 2.5,7.092 z m 11.347,-5.623 c 1.052,0.099 2.069,0.319 3.082,0.542 2.488,2.065 4.357,4.497 5.181,7.638 -0.304,-0.128 -0.641,-0.183 -1.027,-0.106 -0.467,0.094 -0.819,0.307 -1.057,0.721 -0.052,0.09 -0.123,0.328 -0.173,0.578 -1.261,-3.603 -3.181,-6.803 -6.006,-9.373 z m -1.089,-3.488 c 0.865,-1.878 1.252,-4.057 1.902,-5.996 0.555,-1.658 1.757,-2.876 3.616,-2.093 0.996,0.42 1.581,1.263 2.008,2.194 -0.035,0.009 -0.066,0.03 -0.077,0.077 -0.74,3.255 3.499,3.303 4.951,5.131 2.489,3.135 -1.749,3.873 -3.305,4.062 -1.512,0.184 -2.966,0.085 -4.452,-0.284 -0.34,-0.084 -0.665,-0.176 -0.984,-0.265 -0.273,-0.125 -0.553,-0.24 -0.838,-0.342 -0.099,-0.035 -0.166,0.01 -0.206,0.076 -0.432,-0.098 -0.865,-0.175 -1.315,-0.187 0.125,-0.991 -0.412,-1.992 -1.3,-2.373 z m -0.189,3.07 c -0.382,0.293 -0.894,0.418 -1.343,0.229 -0.62,-0.26 -1.033,-1.092 -0.723,-1.725 0.234,-0.478 0.727,-0.638 1.227,-0.661 0.136,0.066 0.305,0.072 0.446,0.01 0.057,0.005 0.114,0.01 0.169,0.017 0.136,0.018 0.266,-0.022 0.37,-0.093 0.33,0.423 0.529,0.94 0.383,1.469 -0.013,0.049 -0.038,0.094 -0.057,0.141 -0.055,0.01 -0.107,0.013 -0.162,0.025 -0.304,0.067 -0.385,0.35 -0.31,0.588 z m -0.819,3.146 c 0.128,-0.602 0.186,-1.196 0.148,-1.752 0.152,-0.021 0.3,-0.06 0.445,-0.108 -0.021,0.062 -0.028,0.131 -0.002,0.211 0.771,2.396 0.879,4.86 1.504,7.276 0.295,1.14 0.713,2.435 1.587,3.23 -0.797,0.036 -1.713,0.372 -2.315,0.898 -1.027,-1.74 -1.551,-3.225 -1.533,-5.496 0.012,-1.44 0.173,-2.843 0.166,-4.259 z"
   id="path270" />

			</g>

		</g>
  </g>
</svg>
