<?xml version="1.0" encoding="UTF-8" standalone="no"?>
<!-- Created with Inkscape (http://www.inkscape.org/) -->

<svg
   width="12.126319mm"
   height="11.596246mm"
   viewBox="0 0 12.126319 11.596246"
   version="1.1"
   id="svg1"
   inkscape:version="1.4 (86a8ad7, 2024-10-11)"
   sodipodi:docname="star.svg"
   xmlns:inkscape="http://www.inkscape.org/namespaces/inkscape"
   xmlns:sodipodi="http://sodipodi.sourceforge.net/DTD/sodipodi-0.dtd"
   xmlns="http://www.w3.org/2000/svg"
   xmlns:svg="http://www.w3.org/2000/svg">
  <sodipodi:namedview
     id="namedview1"
     pagecolor="#ffffff"
     bordercolor="#000000"
     borderopacity="0.25"
     inkscape:showpageshadow="2"
     inkscape:pageopacity="0.0"
     inkscape:pagecheckerboard="0"
     inkscape:deskcolor="#d1d1d1"
     inkscape:document-units="mm"
     inkscape:zoom="0.72604517"
     inkscape:cx="-221.06063"
     inkscape:cy="232.07922"
     inkscape:window-width="1920"
     inkscape:window-height="1017"
     inkscape:window-x="-8"
     inkscape:window-y="-8"
     inkscape:window-maximized="1"
     inkscape:current-layer="layer1" />
  <defs
     id="defs1" />
  <g
     inkscape:label="Capa 1"
     inkscape:groupmode="layer"
     id="layer1"
     transform="translate(-163.5125,-87.047917)">
    <g
       id="g122"
       transform="matrix(0.26458333,0,0,0.26458333,46.89439,33.566135)">
			<g
   id="g121">
				<path
   style="fill:#e79b4d"
   d="m 481.752,211.815 c -3.079,-0.722 -5.355,1.682 -8.221,1.725 -6.138,0.091 -4.952,-5.421 -7.253,-8.598 -1.859,-2.567 -4.525,-3.069 -5.725,-0.587 -0.478,0.185 -0.942,0.438 -1.37,0.766 -2.335,1.795 -2.629,5.058 -3.569,7.608 -1.619,4.392 -5.798,3.969 -9.319,5.726 -2.921,1.457 -7.965,4.639 -2.877,7.905 2.688,1.725 5.915,1.474 4.89,6.99 -0.669,3.602 -4.054,7.44 -2.02,10.35 0.257,0.368 0.355,0.994 0.834,1.096 9.055,1.918 8.448,-7.459 14.251,-6.813 5.437,0.605 10.677,7.44 14.812,4.803 0.324,-0.207 0.681,-0.562 0.887,-0.887 2.042,-3.235 -1.774,-6.161 -1.712,-9.601 0.096,-5.317 5.149,-7.336 8.104,-10.773 2.67,-3.108 3.193,-8.56 -1.712,-9.71 z"
   id="path114" />

				<path
   style="fill:#f3d360"
   d="m 463.762,203.439 c -3.394,-1.277 -5.319,2.962 -6.393,5.468 -1.626,3.795 -2.462,7.896 -6.916,9.222 -2.417,0.72 -4.711,0.751 -6.957,2.031 -0.232,0.132 -0.064,0.441 0.17,0.404 3.949,-0.625 9.103,-0.199 11.863,-3.719 3.556,-4.535 2.375,-9.958 8.298,-12.911 0.227,-0.114 0.134,-0.42 -0.065,-0.495 z"
   id="path115" />

				<path
   style="fill:#f3d360"
   d="m 484.959,216.244 c 0.067,-0.285 -0.319,-0.373 -0.426,-0.117 -2.207,5.286 -8.608,7.293 -10.54,12.418 -0.499,1.323 -0.567,2.878 -0.224,4.247 0.675,2.693 4.41,5.707 2.346,8.648 -0.435,0.62 0.395,1.307 0.984,0.984 3.181,-1.742 0.667,-6.088 -0.513,-8.396 -3.145,-6.152 6.968,-11.793 8.373,-17.784 z"
   id="path116" />

				<path
   style="fill:#f3d360"
   d="m 451.428,243.434 c -9.483,-0.37 2.894,-12.517 -3.848,-15.648 -0.341,-0.158 -0.613,0.215 -0.388,0.503 3.349,4.296 -2.726,9.347 -1.041,14.031 0.789,2.193 3.53,3.718 5.622,2.387 0.577,-0.366 0.338,-1.246 -0.345,-1.273 z"
   id="path117" />

				<path
   style="fill:#f3d360"
   d="m 450.588,225.034 c -0.168,-0.251 -0.645,-0.099 -0.521,0.219 0.648,1.66 1.127,3.508 1.271,5.285 0.134,1.659 -0.339,3.299 -0.167,4.934 0.039,0.366 0.472,0.503 0.69,0.187 2.056,-2.98 0.54,-7.915 -1.273,-10.625 z"
   id="path118" />

				<path
   style="fill:#f3d360"
   d="m 455.413,230.852 c -0.094,-0.265 -0.53,-0.244 -0.518,0.07 0.037,0.902 0.017,1.848 -0.125,2.742 -0.132,0.834 -0.431,1.632 -0.578,2.46 -0.081,0.457 0.456,0.672 0.729,0.307 1.155,-1.54 1.108,-3.845 0.492,-5.579 z"
   id="path119" />

				<path
   style="fill:#f3d360"
   d="m 468.919,215.8 c -1.643,-1.523 -3.096,-2.944 -3.442,-5.277 -0.026,-0.174 -0.317,-0.133 -0.308,0.042 0.118,2.251 1.224,4.845 3.493,5.676 0.25,0.09 0.444,-0.268 0.257,-0.441 z"
   id="path120" />

				<path
   style="fill:#f3d360"
   d="m 466.446,208.676 c -0.511,-1.032 -1.131,-2.17 -2.039,-2.903 -0.178,-0.144 -0.409,0.031 -0.313,0.242 0.45,0.994 1.132,1.883 1.612,2.87 0.481,0.987 0.698,2.094 1.206,3.055 0.147,0.277 0.612,0.154 0.597,-0.162 -0.05,-1.071 -0.592,-2.152 -1.063,-3.102 z"
   id="path121" />

			</g>

			<path
   d="m 485.998,212.469 c -3.769,-6.408 -14.198,4.229 -17.058,-3.261 -1.361,-3.564 -4.051,-9.639 -8.689,-5.896 -0.147,0.118 -0.205,0.256 -0.217,0.392 -1.049,0.672 -1.956,1.506 -2.758,2.585 -2.811,3.783 -2.193,9.243 -7.499,10.813 -3.296,0.976 -10.233,2.087 -8.831,7.338 0.342,1.281 1.204,2.008 2.323,2.622 0.825,0.453 2.13,0.506 2.881,1.049 3.065,2.215 0.635,5.807 -0.077,8.255 -0.914,3.143 -2.653,9.175 2.161,9.574 2.324,0.193 4.817,-0.792 6.687,-2.104 0.901,-0.632 1.545,-1.504 2.371,-2.198 0.342,-0.287 0.447,-0.877 0.803,-1.139 2.052,-1.506 5.498,-1.714 7.501,-0.377 2.904,1.937 9.221,7.208 12.396,2.648 1.007,-1.446 0.663,-3.545 0.287,-5.14 -0.287,-1.216 -0.986,-2.234 -1.315,-3.4 -0.761,-2.698 -1.088,-4.973 0.868,-7.046 0.752,-0.797 1.63,-1.473 2.434,-2.215 2.616,-2.407 8.144,-8.4 5.732,-12.5 z m -7.286,11.94 c -3.921,3.622 -5.303,5.647 -3.033,10.575 1.159,2.515 3.684,8.512 -2.976,7.793 -1.773,-0.191 -3.824,-2.009 -5.273,-3.006 -1.789,-1.231 -3.695,-2.701 -5.953,-2.825 -1.773,-0.097 -2.582,0.561 -3.744,1.748 -2.075,2.119 -5.483,7.292 -9.498,5.912 -6.707,-2.304 4.381,-12.911 0.175,-16.771 -1.959,-1.798 -7.527,-1.016 -5.811,-6.036 1.04,-3.043 7.088,-2.984 9.471,-4.157 1.841,-0.906 2.931,-2.155 3.647,-4.065 1.487,-3.964 1.867,-6.636 4.953,-9.169 0.173,0.023 0.359,-0.017 0.527,-0.15 4.584,-3.632 6.348,6.912 8.192,8.903 0.934,1.009 1.742,1.409 3.103,1.313 3.019,-0.212 5.737,-3.544 9.076,-2.406 7.424,2.531 -0.127,9.82 -2.856,12.341 z"
   id="path122" />

		</g>
  </g>
</svg>
