<?xml version="1.0" encoding="UTF-8" standalone="no"?>
<!-- Created with Inkscape (http://www.inkscape.org/) -->

<svg
   width="13.838476mm"
   height="14.761827mm"
   viewBox="0 0 13.838476 14.761827"
   version="1.1"
   id="svg1"
   inkscape:version="1.4 (86a8ad7, 2024-10-11)"
   sodipodi:docname="star2.svg"
   xmlns:inkscape="http://www.inkscape.org/namespaces/inkscape"
   xmlns:sodipodi="http://sodipodi.sourceforge.net/DTD/sodipodi-0.dtd"
   xmlns="http://www.w3.org/2000/svg"
   xmlns:svg="http://www.w3.org/2000/svg">
  <sodipodi:namedview
     id="namedview1"
     pagecolor="#ffffff"
     bordercolor="#000000"
     borderopacity="0.25"
     inkscape:showpageshadow="2"
     inkscape:pageopacity="0.0"
     inkscape:pagecheckerboard="0"
     inkscape:deskcolor="#d1d1d1"
     inkscape:document-units="mm"
     inkscape:zoom="0.72604517"
     inkscape:cx="-116.38394"
     inkscape:cy="75.0642"
     inkscape:window-width="1920"
     inkscape:window-height="1017"
     inkscape:window-x="-8"
     inkscape:window-y="-8"
     inkscape:window-maximized="1"
     inkscape:current-layer="layer1" />
  <defs
     id="defs1" />
  <g
     inkscape:label="Capa 1"
     inkscape:groupmode="layer"
     id="layer1"
     transform="translate(-135.99584,-128.5875)">
    <g
       id="g113"
       transform="matrix(0.26458333,0,0,0.26458333,106.41781,93.844533)">
			<path
   style="fill:#f8e976"
   d="m 156.681,145.707 c -0.419,0.1 -0.694,0.403 -0.842,0.763 -0.255,0.01 -0.508,0.016 -0.754,0.01 -3.712,-0.094 -7.49,-1.115 -9.67,-4.324 -1.631,-2.401 -1.075,-7.209 -3.564,-9.08 0.088,-0.561 -0.39,-1.218 -1.059,-1.011 -0.314,0.097 -0.62,0.204 -0.921,0.318 -0.872,-0.005 -1.646,0.391 -2.193,1.072 -1.31,0.795 -2.464,1.816 -3.443,3.121 -1.919,2.556 -2.257,6.219 -4.327,8.583 -3.405,3.886 -11.778,0.026 -14.928,4.151 -0.531,-0.149 -1.119,-0.009 -1.43,0.583 -0.822,1.567 -0.509,2.502 0.549,3.891 2.554,3.352 5.551,5.842 6.85,10.064 2.026,6.58 -7.515,10.798 -4.677,17.449 1.402,3.286 6.153,3.909 8.443,2.317 2.097,-1.458 3.497,-3.751 5.623,-5.163 1.744,-1.159 3.531,-1.41 5.282,-1.129 -0.117,0.541 0.043,1.139 0.642,1.519 5.173,3.195 7.556,9.181 14.69,7.238 4.054,-1.104 8.354,-5.198 6.872,-9.752 -1.152,-3.54 -4.891,-4.8 -4.707,-9.135 0.2,-4.707 3.859,-7.545 6.418,-11.015 0.474,-0.643 0.885,-1.373 1.208,-2.142 0.296,-0.011 0.591,-0.144 0.834,-0.453 3.192,-4.067 0.285,-9.106 -4.896,-7.875 z"
   id="path108" />

			<path
   style="fill:#dec22e"
   d="m 124.241,165.329 c -0.71,-6.385 -5.559,-8.64 -9.383,-12.934 -0.362,-0.407 -0.993,0.114 -0.738,0.569 2.086,3.731 6.017,5.813 7.462,10.009 1.671,4.852 -1.419,6.872 -3.12,10.85 -1.486,3.475 -2.121,9.563 2.829,10.112 0.829,0.092 1.165,-1.228 0.428,-1.579 -5.959,-2.836 0.07,-9.504 1.633,-12.359 0.849,-1.553 1.086,-2.9 0.889,-4.668 z"
   id="path109" />

			<path
   style="fill:#dec22e"
   d="m 162.671,147.573 c 0.003,-0.517 -0.815,-0.655 -0.923,-0.125 -0.938,4.588 -3.794,7.837 -6.804,11.247 -1.874,2.123 -3.904,4.349 -4.333,7.259 -0.349,2.369 0.473,4.136 1.878,5.995 2.949,3.9 4.96,6.248 1.665,10.83 -0.486,0.675 0.432,1.39 1.062,1.062 5.408,-2.814 2.619,-8.809 -0.264,-12.253 -4.877,-5.829 0.632,-10.137 4.195,-14.797 2.195,-2.872 3.501,-5.589 3.524,-9.218 z"
   id="path110" />

			<path
   style="fill:#dec22e"
   d="m 151.454,145.695 c -2.257,-0.716 -4.217,-1.056 -5.586,-3.222 -1.253,-1.982 -1.621,-4.429 -2.447,-6.596 -0.787,-2.066 -2.527,-5.002 -5.112,-3.612 -0.444,0.239 -0.327,0.924 0.138,1.054 4.01,1.122 3.638,8.155 6.005,11.237 1.587,2.068 4.928,4.308 7.257,2.103 0.326,-0.309 0.145,-0.837 -0.255,-0.964 z"
   id="path111" />

			<path
   style="fill:#dec22e"
   d="m 151.561,183.159 c -1.365,-0.108 -2.68,0.314 -4.029,0.236 -2.107,-0.123 -3.68,-1.409 -5.304,-2.573 -2.228,-1.598 -4.567,-2.945 -7.188,-3.77 -0.474,-0.149 -0.678,0.497 -0.318,0.755 3.069,2.196 6.058,5.066 9.391,6.819 2.48,1.305 5.445,1.302 7.755,-0.338 0.496,-0.354 0.309,-1.08 -0.307,-1.129 z"
   id="path112" />

			<path
   d="m 155.315,170.363 c 0,-0.09 -0.015,-0.185 -0.06,-0.285 -4.006,-8.98 9.48,-12.603 8.815,-21.214 -0.128,-1.654 -0.819,-3.5 -2.406,-4.259 -2.252,-1.077 -5.378,0.306 -8.103,0.621 -0.011,-0.322 -0.237,-0.655 -0.621,-0.669 -3.996,-0.143 -6.914,-2.28 -8.045,-6.12 -0.459,-1.558 -0.453,-3.29 -1.248,-4.746 -0.974,-1.783 -2.498,-2.575 -4.522,-2.338 -6.993,0.819 -8.631,10.941 -11.244,15.865 -0.002,0 -0.003,-10e-4 -0.005,-10e-4 -3.601,-0.361 -8.002,-1.268 -11.599,-0.729 -1.498,0.225 -2.594,0.561 -3.506,1.839 -2.498,3.496 0.275,7.391 2.79,9.809 3.135,3.015 6.86,5.957 4.326,10.719 -1.183,2.223 -3.092,4.026 -4.039,6.386 -1.426,3.558 -0.052,7.369 3.629,8.887 1.789,0.738 3.788,0.674 5.596,0.045 2.479,-0.862 3.37,-2.817 5.395,-4.172 4.558,-3.052 7.383,1.916 10.797,4.202 2.196,1.471 4.635,2.616 7.296,2.857 4.132,0.373 8.794,-1.59 10.211,-5.755 0.674,-1.983 0.411,-4.057 -0.276,-5.996 -0.465,-1.314 -2.048,-3.144 -3.181,-4.946 z m -6.146,14.785 c -3.738,-0.168 -7,-2.512 -9.739,-4.835 -1.462,-1.24 -2.834,-2.873 -4.716,-3.5 -2.511,-0.837 -4.308,0.513 -6.015,2.198 -2.161,2.134 -7.443,6.488 -10.307,2.267 -2.273,-3.35 -0.707,-6.048 1.185,-8.819 1.477,-2.165 3.167,-4.452 2.981,-7.216 -0.232,-3.452 -3.032,-5.686 -5.415,-7.811 -3.271,-2.916 -6.718,-8.457 1.343,-9.448 2.937,-0.361 6.422,0.266 9.391,0.258 0.259,-10e-4 0.411,-0.143 0.468,-0.322 0.104,-0.022 0.202,-0.085 0.274,-0.205 1.742,-2.931 2.809,-6.117 4.368,-9.129 0.976,-1.885 2.306,-4.396 4.353,-5.282 5.968,-2.584 5.47,2.958 6.183,5.511 0.983,3.521 3.78,6.688 7.354,7.098 1.613,0.871 3.69,0.141 5.649,-0.015 3.714,-0.297 7.148,0.523 5.863,5.41 -0.641,2.436 -2.437,4.28 -4.096,6.061 -2.026,2.175 -4.437,4.946 -5.138,7.886 -1.758,1.487 -0.945,3.512 0.143,5.311 1.288,2.13 3.498,4.034 3.76,6.673 0.483,4.873 -3.243,8.117 -7.889,7.909 z"
   id="path113" />

		</g>
  </g>
</svg>
