<?xml version="1.0" encoding="UTF-8" standalone="no"?>
<!-- Created with Inkscape (http://www.inkscape.org/) -->

<svg
   width="82.288269mm"
   height="46.721729mm"
   viewBox="0 0 82.288269 46.721729"
   version="1.1"
   id="svg1"
   inkscape:version="1.4 (86a8ad7, 2024-10-11)"
   sodipodi:docname="stork.svg"
   xmlns:inkscape="http://www.inkscape.org/namespaces/inkscape"
   xmlns:sodipodi="http://sodipodi.sourceforge.net/DTD/sodipodi-0.dtd"
   xmlns="http://www.w3.org/2000/svg"
   xmlns:svg="http://www.w3.org/2000/svg">
  <sodipodi:namedview
     id="namedview1"
     pagecolor="#ffffff"
     bordercolor="#000000"
     borderopacity="0.25"
     inkscape:showpageshadow="2"
     inkscape:pageopacity="0.0"
     inkscape:pagecheckerboard="0"
     inkscape:deskcolor="#d1d1d1"
     inkscape:document-units="mm"
     inkscape:zoom="0.72604517"
     inkscape:cx="-109.49732"
     inkscape:cy="76.441525"
     inkscape:window-width="1920"
     inkscape:window-height="1017"
     inkscape:window-x="-8"
     inkscape:window-y="-8"
     inkscape:window-maximized="1"
     inkscape:current-layer="layer1" />
  <defs
     id="defs1" />
  <g
     inkscape:label="Capa 1"
     inkscape:groupmode="layer"
     id="layer1"
     transform="translate(-134.14375,-128.32292)">
    <g
       id="g109"
       transform="matrix(0.26458333,0,0,0.26458333,117.81529,109.13782)">
	<path
   style="fill:#d07b8b"
   d="m 372.103,237.49 c 0.189,-0.831 0.172,-1.844 -0.125,-3.099 -0.681,-2.882 -2.735,-4.273 -5.304,-4.809 0.014,-1.641 -0.635,-3.225 -1.867,-4.335 2.783,-0.922 5.259,-2.479 6.985,-4.821 1.328,-1.804 1.137,-4.031 0.061,-5.748 0.164,-1.11 -0.025,-2.291 -0.691,-3.413 -1.376,-2.321 -3.465,-3.291 -5.823,-3.467 -0.29,-2.494 -1.973,-4.58 -5.116,-4.928 -5.364,-0.594 -11.395,6.618 -14,11.434 -12.842,4.716 -25.97,5.973 -39.352,5.025 3.743,-3.64 7.063,-7.728 9.583,-12.197 7.719,-1.923 12.142,-8.737 11.244,-16.395 3.918,-4.337 5.196,-10.106 2.734,-15.481 4.27,-6.007 3.836,-14.103 0.255,-20.66 -0.842,-1.54 -2.253,-2.222 -3.736,-2.26 4.753,-4.791 5.968,-12.201 4.298,-18.934 7.862,-9.281 6.704,-21.944 -2.003,-30.857 -2.435,-2.491 -7.219,-1.344 -8.006,2.122 -1.508,6.631 -6.426,11.901 -12.013,16.2 1.191,-5.042 0.066,-10.623 -2.696,-15.355 4.902,-10.989 0.347,-22.892 -10.485,-29.024 -2.944,-1.667 -7.46,0.422 -7.199,4.076 0.655,9.154 -5.718,17.7 -11.359,24.348 -7.634,8.999 -16.852,16.794 -26.679,23.356 -4.093,2.734 -8.375,5.219 -12.868,7.254 -4.356,1.973 -8.612,2.738 -11.952,6.498 -5.341,6.016 -6.137,14.615 -5.502,22.799 -1.01,-1.064 -1.915,-2.247 -2.755,-3.369 -1.443,-1.929 -2.743,-3.962 -3.973,-6.037 7.574,-5.987 10.925,-15.583 8.9,-25.275 -2.09,-10 -10.936,-16.851 -20.685,-18.537 -2.113,-2.695 -4.997,-4.763 -8.498,-5.244 -2.504,-0.343 -4.574,0.831 -5.492,2.574 -1.526,0.203 -3.038,0.693 -4.486,1.46 -2.664,1.411 -2.902,4.685 -1.408,6.83 -2.812,2.403 -5.018,5.38 -6.596,8.775 -6.682,0.7 -13.365,1.4 -20.047,2.1 0.117,-0.823 0.282,-1.646 0.545,-2.472 0.555,-1.741 1.791,-3.237 2.651,-4.834 2.108,-3.913 -0.18,-9.263 -5.134,-9.158 -5.375,0.113 -10.019,4.683 -13.023,8.734 -1.427,1.924 -1.977,4.321 -2.708,6.559 -0.328,1.002 -0.563,0.839 -1.595,1.2 -0.77,0.27 -1.453,0.649 -2.078,1.112 -0.265,0.005 -0.53,0.018 -0.795,0.042 -0.132,-0.076 -0.257,-0.155 -0.395,-0.228 -0.792,-0.417 -2.616,-0.46 -3.151,-0.952 -1.435,-1.321 -1.89,-4.124 -3.066,-5.739 -2.79,-3.834 -9.226,-8.594 -14.233,-8.042 -4.801,0.529 -7.465,5.078 -4.907,9.303 0.988,1.634 2.41,3.002 3.423,4.64 0.815,1.318 1.255,2.801 1.58,4.326 -4.086,0.428 -8.174,0.856 -12.262,1.284 -0.058,0.006 -0.112,0.018 -0.167,0.024 -0.194,-0.004 -0.39,-0.01 -0.585,-0.014 -4.524,-0.118 -5.694,4.5 -3.766,7.349 -7.632,-0.88 -15.606,1.462 -22.027,6.383 -5.806,0.262 -10.704,6.003 -8.829,11.554 -3.988,9.786 -2.973,21.132 4.246,29.088 -0.258,2.382 0.654,4.806 2.365,6.963 2.267,2.854 5.725,2.836 8.639,1.482 -0.209,0.571 -0.336,1.235 -0.343,2.037 -0.005,0.751 0.197,1.525 0.539,2.239 -0.195,1.328 0.03,2.782 0.66,3.848 0.493,0.83 1.286,1.55 2.191,2.042 0.223,0.359 0.483,0.695 0.788,0.993 1.086,1.06 2.831,1.621 4.393,1.481 0.768,0.367 1.62,0.562 2.501,0.527 1.804,-0.072 3.387,-0.999 4.371,-2.427 -0.665,10.582 7.388,21.898 17.081,26.89 12.478,6.426 28.317,4.76 40.269,-1.989 6.156,-3.477 11.317,-8.8 14.49,-15.064 4.018,-7.933 4.025,-16.503 2.801,-25.103 -2.42,-16.985 -12.405,-30.394 -22.194,-43.847 0.022,-0.012 0.043,-0.022 0.064,-0.035 10.268,1.03 20.547,2.161 30.842,2.906 3.178,3.881 7.224,6.769 11.99,8.316 0.085,6.939 1.491,13.703 4.723,19.979 4.008,7.786 11.642,13.974 19.674,17.684 2.069,8.918 6.243,17.17 12.732,23.796 9.429,9.625 23.189,13.826 36.369,14.868 1.85,0.146 3.707,0.127 5.561,0.081 2.138,-0.053 0.267,-0.786 2.215,0.387 2.743,1.65 5.627,3.056 8.552,4.36 6.681,2.982 13.678,5.116 20.858,6.526 16.506,3.245 33.533,2.152 49.785,-1.874 5.822,2.156 13.297,2.712 18.399,-0.955 2.138,-1.538 3.491,-3.943 2.713,-6.611 -0.027,-0.092 -0.064,-0.175 -0.096,-0.265 z m -25.382,-4.348 c -9.175,1.96 -18.786,2.335 -28.29,1.335 11.725,-1.152 23.012,-4.328 33.868,-8.782 0.639,0.142 1.294,0.257 1.959,0.35 -2.948,1.92 -5.681,4.71 -7.537,7.097 z M 116.884,145.167 c 2.373,3.351 5.587,5.358 9.174,5.545 -0.138,1.66 -0.302,3.329 -0.491,4.996 -0.96,-0.212 -1.986,-0.195 -2.888,-0.002 -0.586,-0.225 -1.21,-0.361 -1.843,-0.365 -0.829,-0.005 -1.871,0.27 -2.793,0.749 0.709,-2.25 0.385,-4.718 -1.439,-7.021 -1.97,-2.488 -5.243,-3.507 -8.214,-2.889 -1.178,-0.87 -2.403,-1.625 -3.664,-2.267 4.051,0.42 8.105,0.838 12.158,1.254 z m -21.823,62.005 c 0.083,-0.061 0.16,-0.132 0.243,-0.195 0,0.004 0,0.007 -0.002,0.012 -0.079,0.061 -0.161,0.122 -0.241,0.183 z"
   id="path61" />

	<path
   style="fill:#ffffff"
   d="m 371.204,234.096 c 0.188,-0.831 0.172,-1.844 -0.125,-3.1 -0.682,-2.882 -2.734,-4.273 -5.305,-4.81 0.016,-1.641 -0.635,-3.225 -1.866,-4.335 2.783,-0.922 5.26,-2.479 6.986,-4.821 1.328,-1.804 1.136,-4.031 0.06,-5.748 0.165,-1.111 -0.024,-2.291 -0.691,-3.413 -1.375,-2.321 -3.465,-3.29 -5.822,-3.467 -0.29,-2.494 -1.973,-4.58 -5.116,-4.928 -5.364,-0.594 -11.395,6.618 -13.999,11.434 -12.842,4.716 -25.97,5.974 -39.353,5.025 3.742,-3.64 7.064,-7.728 9.583,-12.197 7.719,-1.923 12.142,-8.737 11.244,-16.394 3.918,-4.337 5.196,-10.107 2.734,-15.482 4.269,-6.007 3.836,-14.102 0.255,-20.66 -0.841,-1.541 -2.253,-2.222 -3.736,-2.26 4.753,-4.791 5.967,-12.201 4.298,-18.934 7.862,-9.28 6.704,-21.943 -2.003,-30.856 -2.435,-2.492 -7.219,-1.345 -8.006,2.122 -1.508,6.631 -6.426,11.901 -12.013,16.2 1.191,-5.043 0.067,-10.624 -2.697,-15.356 4.903,-10.989 0.347,-22.892 -10.484,-29.024 -2.945,-1.667 -7.461,0.423 -7.199,4.076 0.655,9.154 -5.718,17.7 -11.358,24.348 -7.634,8.999 -16.853,16.794 -26.68,23.356 -4.092,2.733 -8.375,5.219 -12.868,7.253 -4.357,1.974 -8.613,2.739 -11.952,6.498 -5.341,6.015 -6.138,14.614 -5.502,22.799 -1.011,-1.064 -1.915,-2.247 -2.754,-3.369 -1.444,-1.929 -2.744,-3.962 -3.973,-6.037 7.573,-5.987 10.925,-15.583 8.9,-25.275 -2.09,-9.999 -10.937,-16.851 -20.686,-18.537 -2.113,-2.696 -4.996,-4.763 -8.497,-5.244 -2.505,-0.344 -4.575,0.832 -5.493,2.574 -1.526,0.203 -3.037,0.693 -4.485,1.46 -2.665,1.411 -2.903,4.685 -1.408,6.83 -2.812,2.404 -5.018,5.38 -6.596,8.775 -6.683,0.7 -13.365,1.4 -20.047,2.1 0.116,-0.823 0.281,-1.646 0.545,-2.472 0.555,-1.741 1.791,-3.237 2.65,-4.834 2.108,-3.913 -0.179,-9.263 -5.134,-9.159 -5.374,0.113 -10.018,4.684 -13.023,8.734 -1.426,1.924 -1.976,4.321 -2.709,6.559 -0.328,1.002 -0.563,0.84 -1.595,1.201 -0.769,0.269 -1.453,0.649 -2.078,1.112 -0.265,0.005 -0.53,0.017 -0.795,0.041 -0.131,-0.076 -0.256,-0.155 -0.395,-0.227 -0.791,-0.418 -2.616,-0.46 -3.151,-0.952 -1.435,-1.321 -1.89,-4.124 -3.066,-5.739 -2.79,-3.834 -9.226,-8.594 -14.233,-8.042 -4.801,0.529 -7.465,5.078 -4.908,9.303 0.989,1.634 2.41,3.002 3.423,4.64 0.815,1.318 1.255,2.801 1.58,4.327 -4.086,0.427 -8.174,0.855 -12.261,1.283 -0.058,0.006 -0.112,0.018 -0.166,0.025 -0.195,-0.005 -0.39,-0.01 -0.585,-0.015 -4.524,-0.117 -5.694,4.502 -3.767,7.349 -7.631,-0.881 -15.605,1.462 -22.026,6.383 -5.806,0.262 -10.703,6.003 -8.829,11.555 -3.988,9.786 -2.973,21.132 4.246,29.088 -0.258,2.381 0.653,4.805 2.365,6.962 2.266,2.854 5.724,2.836 8.639,1.482 -0.21,0.571 -0.336,1.235 -0.343,2.038 -0.005,0.751 0.197,1.525 0.538,2.238 -0.194,1.328 0.03,2.782 0.661,3.848 0.493,0.83 1.286,1.55 2.191,2.042 0.224,0.359 0.483,0.695 0.789,0.993 1.086,1.06 2.831,1.621 4.392,1.481 0.768,0.366 1.62,0.562 2.501,0.527 1.805,-0.072 3.386,-0.999 4.371,-2.427 -0.664,10.582 7.387,21.898 17.082,26.89 12.478,6.426 28.316,4.76 40.269,-1.989 6.156,-3.477 11.316,-8.799 14.489,-15.064 4.018,-7.933 4.026,-16.504 2.802,-25.102 -2.42,-16.986 -12.405,-30.395 -22.193,-43.847 0.021,-0.012 0.043,-0.023 0.063,-0.035 10.268,1.03 20.547,2.161 30.842,2.906 3.178,3.881 7.224,6.769 11.99,8.316 0.085,6.939 1.492,13.703 4.722,19.98 4.008,7.786 11.642,13.973 19.674,17.683 2.068,8.919 6.243,17.17 12.733,23.796 9.429,9.625 23.189,13.826 36.368,14.868 1.85,0.147 3.708,0.128 5.56,0.082 2.139,-0.054 0.267,-0.786 2.215,0.386 2.743,1.65 5.628,3.056 8.552,4.36 6.681,2.981 13.678,5.115 20.859,6.527 16.506,3.245 33.533,2.152 49.784,-1.874 5.822,2.156 13.298,2.712 18.398,-0.956 2.139,-1.537 3.492,-3.943 2.713,-6.611 -0.027,-0.091 -0.064,-0.174 -0.095,-0.263 z m -25.383,-4.349 c -9.175,1.961 -18.785,2.336 -28.289,1.334 11.725,-1.152 23.012,-4.328 33.868,-8.782 0.639,0.142 1.293,0.257 1.958,0.351 -2.947,1.92 -5.681,4.711 -7.537,7.097 z M 115.985,141.771 c 2.373,3.351 5.585,5.359 9.173,5.546 -0.138,1.66 -0.302,3.329 -0.491,4.996 -0.961,-0.212 -1.987,-0.195 -2.888,-0.002 -0.586,-0.225 -1.21,-0.362 -1.843,-0.366 -0.83,-0.005 -1.872,0.27 -2.793,0.749 0.708,-2.25 0.385,-4.717 -1.44,-7.021 -1.97,-2.488 -5.243,-3.507 -8.214,-2.889 -1.178,-0.869 -2.403,-1.624 -3.664,-2.267 4.052,0.422 8.107,0.84 12.16,1.254 z m -21.823,62.007 c 0.083,-0.062 0.16,-0.132 0.243,-0.194 0,0.003 0,0.007 -0.002,0.011 -0.08,0.061 -0.161,0.121 -0.241,0.183 z"
   id="path62" />

	<g
   id="g108">
		<g
   id="g89">
			<path
   style="fill:#fcc7a0;stroke:#491d00;stroke-width:0.75;stroke-miterlimit:10"
   d="m 145.072,185.564 c -3.901,-1.525 -7.74,-2.066 -12.751,0.545 -7.063,3.68 -5.213,14.976 10.412,10.97 2.673,-0.685 9.843,-2.857 9.12,-6.172 -0.702,-3.181 -4.836,-4.582 -6.781,-5.343 z"
   id="path63" />

			<path
   style="fill:#fcc7a0;stroke:#491d00;stroke-width:0.75;stroke-miterlimit:10"
   d="m 117.429,215.134 c -1.846,-3.728 -2.691,-7.467 -0.453,-12.61 3.158,-7.255 14.691,-6.313 11.878,9.398 -0.482,2.691 -2.106,9.931 -5.507,9.476 -3.263,-0.442 -4.998,-4.404 -5.918,-6.264 z"
   id="path64" />

			<path
   style="fill:#fcc7a0;stroke:#491d00;stroke-width:0.75;stroke-miterlimit:10"
   d="m 123.31,160.415 c -0.182,0.204 -0.873,0.385 -0.425,-0.292 0.449,-0.675 1.898,-2.79 0.735,-3.264 -1.083,-0.438 -1.517,0.699 -1.99,1.602 -0.129,0.252 -0.328,1.041 -0.745,1.034 -0.359,-0.008 0.172,-2.96 -0.985,-2.88 -1.155,0.076 -1.066,1.786 -0.992,2.627 0.073,0.856 0.04,1.979 -0.499,1.748 -0.542,-0.231 -1.57,-1.058 -2.08,-0.379 -0.611,0.816 1.328,1.673 1.578,2.964 0.057,0.284 0.184,0.632 0.368,0.986 l -5.681,8.434 c -0.547,0.116 -1.085,0.27 -1.621,0.475 -1.117,2.515 -2.684,4.913 -4.696,7.067 -1.768,1.889 -3.752,3.453 -5.864,4.685 -0.092,0.393 -0.092,1.341 -0.137,1.732 l -8.658,6.124 c -0.372,-0.159 -0.73,-0.257 -1.027,-0.287 -1.317,-0.144 -2.333,-1.989 -3.107,-1.325 -0.642,0.554 0.27,1.505 0.547,2.02 0.273,0.516 -0.857,0.637 -1.727,0.632 -0.852,-0.006 -2.583,0.039 -2.57,1.182 0.014,1.145 2.948,0.39 2.981,0.745 0.042,0.407 -0.738,0.668 -0.982,0.816 -0.875,0.538 -1.985,1.051 -1.46,2.087 0.567,1.109 2.588,-0.485 3.232,-0.981 0.645,-0.497 0.519,0.202 0.33,0.397 -1.52,1.566 -1.813,2.22 -1.348,2.649 0.464,0.428 1.266,-0.071 2.096,-0.892 0.831,-0.82 0.812,-0.468 0.812,-0.468 -0.746,2.524 0.966,2.449 1.284,1.165 0.262,-1.069 1.032,-0.793 2.452,-2.603 0.161,-0.201 0.293,-0.403 0.4,-0.596 1.62,0.387 5.726,-0.391 9.734,-2.652 1.893,2.861 4.366,6.935 6.959,9.32 2.461,2.26 24.476,-20.097 21.563,-22.773 -2.711,-2.497 -6.767,-5.091 -9.957,-6.756 1.515,-3.834 1.665,-7.201 1.18,-8.672 0.184,-0.119 0.375,-0.266 0.566,-0.439 1.714,-1.539 1.375,-2.28 2.433,-2.618 1.267,-0.417 1.212,-2.11 -1.278,-1.178 0,0 -0.351,0.048 0.411,-0.836 0.762,-0.881 1.2,-1.712 0.732,-2.136 -0.469,-0.423 -1.102,-0.085 -2.564,1.536 z"
   id="path65" />

			<path
   style="fill:#fcc7a0;stroke:#491d00;stroke-width:0.75;stroke-miterlimit:10"
   d="m 106.792,148.304 c -0.007,0.006 -0.012,0.013 -0.012,0.013 -0.193,-0.185 -0.38,-0.373 -0.581,-0.556 -9.147,-8.361 -23.942,-7.243 -33.049,2.495 -9.104,9.738 -9.068,24.411 0.078,32.773 0.198,0.181 0.405,0.354 0.608,0.528 -0.005,0.005 -0.009,0.01 -0.014,0.015 -1.288,1.376 -1.203,3.53 0.19,4.8 1.395,1.276 3.571,1.191 4.856,-0.188 0.323,-0.347 0.561,-0.742 0.715,-1.163 8.712,3.524 19.487,1.221 26.693,-6.484 7.206,-7.711 8.68,-18.511 4.446,-26.825 0.409,-0.181 0.793,-0.445 1.115,-0.793 1.29,-1.379 1.205,-3.528 -0.189,-4.804 -1.394,-1.272 -3.568,-1.187 -4.856,0.189 z"
   id="path66" />

			<g
   id="g67">
				<path
   style="fill:#491d00"
   d="m 93.986,169.377 c -0.327,1.418 -2.451,1.057 -2.251,-0.39 0.032,-0.231 -0.327,-0.311 -0.354,-0.079 -0.117,0.83 0.374,1.551 1.206,1.742 0.82,0.185 1.58,-0.425 1.756,-1.191 0.053,-0.231 -0.304,-0.307 -0.357,-0.082 z"
   id="path67" />

			</g>

			<path
   style="fill:#491d00"
   d="m 76.252,184.607 c -0.202,0.32 -0.138,0.687 0.027,1.006 -0.93,0.02 -1.611,0.643 -2.059,1.432 -0.161,0.287 0.297,0.52 0.461,0.234 0.401,-0.711 1.008,-1.267 1.878,-1.148 0.232,0.033 0.448,0.11 0.657,0.209 0.052,0.026 0.328,0.195 0.228,0.124 0.267,0.188 0.622,-0.184 0.35,-0.373 -0.248,-0.175 -0.533,-0.305 -0.83,-0.388 -0.178,-0.183 -0.318,-0.393 -0.313,-0.658 0.002,-0.104 0.022,-0.138 0.061,-0.205 0.175,-0.279 -0.283,-0.511 -0.46,-0.233 z"
   id="path68" />

			<path
   style="fill:#491d00"
   d="m 108.059,150.585 c 0.305,-0.22 0.682,-0.191 1.017,-0.056 -0.053,-0.916 0.52,-1.636 1.28,-2.136 0.28,-0.184 0.548,0.25 0.273,0.433 -0.685,0.454 -1.197,1.094 -1.01,1.943 0.051,0.223 0.146,0.434 0.263,0.628 0.03,0.052 0.222,0.311 0.144,0.214 0.208,0.249 -0.136,0.626 -0.351,0.377 -0.193,-0.229 -0.348,-0.501 -0.455,-0.789 -0.198,-0.161 -0.423,-0.283 -0.688,-0.254 -0.103,0.011 -0.138,0.028 -0.204,0.073 -0.265,0.195 -0.536,-0.238 -0.269,-0.433 z"
   id="path69" />

			<g
   id="g70">
				<path
   style="fill:#fab38b"
   d="m 101.931,159.613 c 0.894,0.817 0.523,2.643 -0.821,4.082 -1.343,1.434 -3.154,1.941 -4.046,1.126 -0.892,-0.814 -0.522,-2.639 0.821,-4.076 1.345,-1.437 3.157,-1.942 4.046,-1.132 z"
   id="path70" />

			</g>

			<g
   id="g71">
				<path
   style="fill:#fab38b"
   d="m 89.588,172.817 c 0.892,0.815 0.525,2.64 -0.823,4.078 -1.345,1.439 -3.154,1.944 -4.046,1.13 -0.889,-0.812 -0.521,-2.639 0.825,-4.075 1.343,-1.441 3.155,-1.946 4.044,-1.133 z"
   id="path71" />

			</g>

			<g
   id="g72">
				<path
   style="fill:#491d00"
   d="m 102.387,181.017 c 1.206,-0.502 2.118,-1.521 2.55,-2.728 0.11,-0.307 -0.392,-0.416 -0.504,-0.11 -0.365,1.018 -1.176,1.928 -2.193,2.348 -0.309,0.129 -0.16,0.616 0.147,0.49 z"
   id="path72" />

			</g>

			<path
   style="fill:#c76d2e;stroke:#491d00;stroke-width:0.75;stroke-miterlimit:10"
   d="m 81.613,157.403 c 0,0 -3.251,-0.872 -3.543,-3.98 -0.354,-3.818 -6.773,-7.661 -9.493,-1.242 -1.609,3.801 5.367,6.733 5.703,3.238 0,0 -1.88,0.722 -2.725,-0.573 -0.843,-1.292 1.597,-4.054 3.581,-1.949 1.985,2.102 2.454,6.048 6.477,4.506 z"
   id="path73" />

			<g
   id="g78">
				<g
   id="g75">
					<path
   style="fill:#ef4666;stroke:#491d00;stroke-width:0.75;stroke-miterlimit:10"
   d="m 77.621,160.636 c -0.092,-0.285 -0.233,-0.611 -0.898,-0.959 -0.956,-0.5 -1.395,-1.196 -0.481,-2.192 0.913,-1.001 3.931,-0.566 3.931,-0.566 l 0.542,0.516 0.544,0.51 c 0,0 0.575,2.963 -0.388,3.912 -0.968,0.949 -1.689,0.545 -2.236,-0.375 -0.387,-0.647 -0.718,-0.769 -1.014,-0.846 z"
   id="path74" />

					<path
   style="fill:#f37f85"
   d="m 80.162,157.298 c 0,0 -1.32,-0.316 -2.155,0.855 0,0 1.202,-0.521 1.603,-0.193 0,0 -0.658,0.577 -0.938,1.078 0,0 0.695,0.077 1.243,-0.79 0,0 0.465,0.809 0.009,1.444 0,0 0.978,-0.411 1.021,-1.734 z"
   id="path75" />

				</g>

				<g
   id="g77">
					<path
   style="fill:#ef4666;stroke:#491d00;stroke-width:0.75;stroke-miterlimit:10"
   d="m 84.341,153.673 c 0.096,0.289 0.231,0.612 0.901,0.96 0.955,0.501 1.395,1.192 0.479,2.195 -0.908,0.995 -3.929,0.563 -3.929,0.563 l -0.546,-0.514 -0.54,-0.513 c 0,0 -0.578,-2.961 0.39,-3.909 0.963,-0.949 1.687,-0.543 2.234,0.376 0.388,0.643 0.716,0.766 1.011,0.842 z"
   id="path76" />

					<path
   style="fill:#f37f85"
   d="m 81.801,157.012 c 0,0 1.318,0.314 2.155,-0.855 0,0 -1.2,0.521 -1.603,0.194 0,0 0.661,-0.577 0.939,-1.079 0,0 -0.695,-0.08 -1.244,0.791 0,0 -0.466,-0.813 -0.006,-1.446 0,0 -0.977,0.413 -1.022,1.734 z"
   id="path77" />

				</g>

				<path
   style="fill:#f6a2a8;stroke:#491d00;stroke-width:0.75;stroke-miterlimit:10"
   d="m 80.253,157.749 c 0.355,0.336 0.918,0.323 1.262,-0.03 0.339,-0.349 0.323,-0.909 -0.03,-1.245 -0.358,-0.334 -0.925,-0.322 -1.26,0.03 -0.344,0.351 -0.329,0.913 0.028,1.245 z"
   id="path78" />

			</g>

			<path
   style="fill:#f6a2a8;stroke:#491d00;stroke-width:0.75;stroke-miterlimit:10"
   d="m 109.361,203.735 c 0,0 14.797,-6.414 21.706,-23.22 0,0 2.19,0.211 6.601,3.672 0,0 -6.474,9.185 -1.172,14.029 0,0 -3.161,6.005 -7.585,8.163 0,0 -7.275,-3.649 -14.526,4.109 0,0 -2.651,-1.846 -5.024,-6.753 z"
   id="path79" />

			<path
   style="fill:#ffffff;stroke:#491d00;stroke-width:0.75;stroke-miterlimit:10"
   d="m 131.915,178.931 c -2.8,-0.012 -10.085,-4.171 -10.085,-4.171 -5.129,3.184 -9.235,-1.765 -9.235,-1.765 l -1.621,0.475 c 0.643,2.215 0.229,5.144 -2.18,8.114 -2.805,2.607 -6.1,4.099 -8.381,3.637 l -0.137,1.732 c 0,0 5.796,2.706 2.988,8.016 0,0 4.616,6.44 4.669,9.615 0.017,1.115 8.844,-4.55 14.426,-10.575 v 0 c 0.004,-0.004 0.01,-0.007 0.017,-0.013 0.003,-0.002 0.005,-0.007 0.007,-0.011 v 0 c 5.637,-5.98 10.661,-15.049 9.532,-15.054 z"
   id="path80" />

			<path
   style="fill:#fcc7a0;stroke:#491d00;stroke-width:0.75;stroke-miterlimit:10"
   d="m 107.709,215.049 c -0.102,-0.744 0.543,-1.442 1.443,-1.564 0.656,-0.089 1.263,0.157 1.583,0.59 -0.091,-0.444 -0.11,-0.918 -0.072,-1.416 -0.445,0.493 -1.238,0.694 -2.023,0.455 -1.018,-0.312 -1.629,-1.245 -1.365,-2.087 0.263,-0.84 1.298,-1.27 2.316,-0.959 0.648,0.199 1.13,0.652 1.328,1.17 0.108,-0.381 0.255,-0.739 0.427,-1.08 -0.59,0.178 -1.321,0.006 -1.881,-0.504 -0.784,-0.713 -0.927,-1.816 -0.324,-2.462 0.602,-0.648 1.729,-0.59 2.508,0.119 0.442,0.403 0.678,0.926 0.695,1.422 0.275,-0.296 0.57,-0.561 0.881,-0.798 -0.572,-0.114 -1.117,-0.546 -1.403,-1.193 -0.424,-0.968 -0.105,-2.034 0.71,-2.383 0.814,-0.353 1.821,0.145 2.246,1.111 0.235,0.536 0.242,1.106 0.062,1.563 0.315,-0.122 0.639,-0.211 0.957,-0.272 -0.521,-0.394 -0.89,-1.059 -0.95,-1.835 -0.102,-1.308 0.713,-2.437 1.819,-2.521 1.11,-0.081 2.087,0.912 2.187,2.22 0.075,0.955 -0.342,1.81 -1.001,2.238 0.931,0.316 1.671,1.046 1.981,2.271 0.369,1.455 -0.004,2.285 2.096,4.124 0,0 4.113,2.148 5.208,3.209 1.376,1.33 -0.642,8.852 -7.653,5.037 -4.912,-2.67 -7.637,-4.426 -8.516,-6.653 -0.052,0.647 -0.648,1.215 -1.447,1.322 -0.9,0.121 -1.709,-0.381 -1.812,-1.124 z"
   id="path81" />

			<path
   style="fill:#fcc7a0;stroke:#491d00;stroke-width:0.75;stroke-miterlimit:10"
   d="m 144.226,175.992 c -0.758,-0.042 -1.413,0.648 -1.465,1.542 -0.036,0.65 0.257,1.234 0.717,1.516 -0.456,-0.053 -0.931,-0.038 -1.43,0.042 0.462,-0.479 0.604,-1.28 0.299,-2.032 -0.394,-0.98 -1.385,-1.51 -2.211,-1.183 -0.826,0.325 -1.179,1.383 -0.785,2.361 0.254,0.621 0.748,1.063 1.285,1.217 -0.377,0.135 -0.73,0.309 -1.057,0.504 0.135,-0.598 -0.098,-1.307 -0.656,-1.814 -0.78,-0.715 -1.905,-0.773 -2.508,-0.128 -0.605,0.646 -0.46,1.751 0.318,2.465 0.438,0.399 0.986,0.592 1.488,0.573 -0.278,0.294 -0.524,0.604 -0.734,0.93 -0.162,-0.554 -0.644,-1.059 -1.317,-1.288 -1.007,-0.341 -2.054,0.056 -2.348,0.886 -0.288,0.834 0.294,1.786 1.3,2.128 0.558,0.191 1.134,0.152 1.581,-0.061 -0.097,0.321 -0.165,0.646 -0.201,0.963 -0.439,-0.481 -1.137,-0.794 -1.923,-0.792 -1.328,0.003 -2.399,0.897 -2.396,1.993 0.003,1.098 1.083,1.984 2.408,1.983 0.968,-0.004 1.798,-0.48 2.18,-1.166 0.39,0.896 1.183,1.565 2.439,1.775 1.5,0.247 2.307,-0.183 4.326,1.744 0,0 2.484,3.885 3.641,4.881 1.452,1.254 8.876,-1.325 4.482,-7.941 -3.079,-4.632 -5.064,-7.178 -7.379,-7.873 0.65,-0.096 1.177,-0.732 1.22,-1.527 0.054,-0.896 -0.52,-1.656 -1.274,-1.698 z"
   id="path82" />

			<g
   id="g84">
				<path
   style="fill:#491d00"
   d="m 97.106,157.631 c 0.11,0.32 0.013,0.622 -0.088,0.82 -0.042,-0.023 -0.083,-0.045 -0.125,-0.06 0.032,-0.545 -0.791,-0.95 -0.791,-0.95 0.266,0.291 0.271,0.668 0.247,0.884 -0.269,0.027 -0.525,0.143 -0.718,0.355 -0.437,0.463 -0.408,1.186 0.06,1.615 0.47,0.43 1.2,0.401 1.639,-0.061 0.365,-0.395 0.398,-0.973 0.113,-1.404 0.271,-0.488 -0.337,-1.199 -0.337,-1.199 z"
   id="path83" />

				<path
   style="fill:#491d00"
   d="m 82.556,173.193 c 0.328,0.086 0.628,-0.036 0.819,-0.146 -0.024,-0.04 -0.051,-0.082 -0.071,-0.122 -0.545,0.072 -1.018,-0.705 -1.018,-0.705 0.314,0.24 0.694,0.212 0.908,0.17 0.008,-0.262 0.105,-0.525 0.3,-0.735 0.438,-0.465 1.168,-0.492 1.635,-0.064 0.471,0.43 0.501,1.152 0.068,1.617 -0.371,0.395 -0.953,0.47 -1.408,0.224 -0.466,0.305 -1.233,-0.239 -1.233,-0.239 z"
   id="path84" />

			</g>

			<g
   id="g88">
				<path
   style="fill:#ef4666;stroke:#491d00;stroke-width:0.75;stroke-miterlimit:10"
   d="m 102.952,171.366 c 2.223,2.031 2.359,5.458 0.305,7.656 -2.056,2.197 -5.522,2.331 -7.743,0.3 -2.221,-2.032 -2.358,-5.46 -0.306,-7.655 2.055,-2.198 5.521,-2.334 7.744,-0.301 z"
   id="path85" />

				<g
   id="g86">
					<path
   style="fill:#ffffff;stroke:#491d00;stroke-width:0.75;stroke-miterlimit:10"
   d="m 106.285,181.79 c -2.188,2.342 -5.896,2.486 -8.263,0.32 -1.316,-1.198 -1.997,-2.903 -1.864,-4.67 0.081,-1.109 1.843,-3.046 2.199,-3.425 0.553,-0.593 1.592,-1.619 2.295,-1.777 1.895,-0.441 3.881,0.075 5.31,1.383 2.367,2.162 2.514,5.828 0.323,8.169 z m -7.145,-7.059 c -1.149,1.229 -1.889,2.403 -1.921,2.783 -0.104,1.445 0.45,2.841 1.523,3.824 1.938,1.769 4.969,1.653 6.757,-0.263 1.79,-1.912 1.671,-4.913 -0.262,-6.681 -1.173,-1.069 -2.793,-1.491 -4.346,-1.133 -0.186,0.045 -0.828,0.483 -1.751,1.47 z"
   id="path86" />

				</g>

				<path
   style="fill:#fbced0;stroke:#491d00;stroke-width:0.75;stroke-miterlimit:10"
   d="m 101.52,172.895 c 1.371,1.251 1.451,3.359 0.189,4.711 -1.265,1.351 -3.4,1.439 -4.768,0.187 -1.368,-1.25 -1.45,-3.361 -0.185,-4.713 1.263,-1.351 3.396,-1.435 4.764,-0.185 z"
   id="path87" />

				<path
   style="fill:#ffffff"
   d="m 100.11,173.409 c 0.545,0.498 0.372,1.565 -0.391,2.379 -0.762,0.815 -1.82,1.072 -2.37,0.574 -0.545,-0.502 -0.372,-1.567 0.39,-2.383 0.76,-0.815 1.823,-1.072 2.371,-0.57 z"
   id="path88" />

			</g>

		</g>

		<g
   id="g96">
			<path
   style="fill:#f7941d;stroke:#491d00;stroke-miterlimit:10"
   d="m 363.03,235.229 c -4.355,0.697 -7.414,-0.552 -8,-0.816 0.805,-0.4 3.685,-1.633 7.807,-1.216 4.895,0.493 3.727,-1.228 3.024,-1.753 -2.831,-2.121 -9.3,-0.022 -12.196,0.815 0,0 1.547,-1.309 1.943,-1.583 2.058,-1.434 6.404,-3.415 5.275,-5.264 -1.126,-1.848 -8.122,3.711 -9.483,5.204 -0.662,0.721 -2.173,2.119 -2.748,3.285 -23.641,5.803 -43.222,0.044 -54.974,-3.552 -13.375,-4.095 -20.903,-9.997 -20.977,-10.055 l -2.108,2.583 -2.112,2.578 c 0.334,0.27 8.384,6.634 22.871,11.129 7.391,2.294 17.329,4.324 29.349,4.324 8.867,0 18.869,-1.107 29.809,-4.03 3.892,2.023 12.111,2.905 15.647,-0.078 0.666,-0.562 1.729,-2.348 -3.127,-1.571 z"
   id="path89" />

			<path
   style="fill:#f7941d;stroke:#491d00;stroke-miterlimit:10"
   d="m 363.217,213.75 c -4.2,1.336 -7.413,0.555 -8.032,0.381 0.736,-0.515 3.394,-2.161 7.534,-2.361 4.911,-0.24 3.496,-1.769 2.725,-2.184 -3.123,-1.675 -9.199,1.36 -11.937,2.619 0,0 1.332,-1.524 1.68,-1.855 1.818,-1.721 5.815,-4.327 4.418,-5.988 -1.396,-1.659 -7.464,4.876 -8.587,6.554 -0.543,0.811 -1.825,2.419 -2.215,3.657 -22.492,9.251 -42.725,6.468 -54.888,4.659 -13.847,-2.061 -22.187,-6.776 -22.271,-6.825 l -1.691,2.869 -1.695,2.863 c 0.371,0.216 9.297,5.312 24.302,7.603 7.657,1.17 17.79,1.701 29.674,-0.086 8.765,-1.317 18.484,-3.899 28.858,-8.415 4.155,1.422 12.415,1.072 15.456,-2.402 0.572,-0.654 1.35,-2.579 -3.331,-1.089 z"
   id="path90" />

			<g
   id="g92">
				<path
   style="fill:#ffffff;stroke:#491d00;stroke-miterlimit:10"
   d="m 228.066,180.667 c 0,0 -11.763,-37.439 6.404,-42.655 18.164,-5.216 60.335,-38.672 58.276,-60.887 0,0 17.241,9.589 7.357,25.193 0,0 9.569,12.816 -0.739,20.594 0,0 8.952,19.471 -3.037,28.29 0,0 3.398,19.631 -16.665,17.928 0.001,0 -10.96,29.052 -51.596,11.537 z"
   id="path91" />

				<path
   style="fill:#491d00"
   d="m 292.747,77.124 c 0.012,0.089 0.014,0.181 0.018,0.272 3.641,4.343 6.514,11.151 1.027,19.813 0,0 9.567,12.817 -0.742,20.595 0,0 8.955,19.471 -3.033,28.29 0,0 3.398,19.629 -16.667,17.928 0,0 -9.961,26.411 -46.115,13.686 0.483,1.855 0.831,2.959 0.831,2.959 40.636,17.515 51.597,-11.537 51.597,-11.537 20.063,1.703 16.665,-17.928 16.665,-17.928 11.989,-8.819 3.037,-28.29 3.037,-28.29 10.308,-7.778 0.739,-20.594 0.739,-20.594 9.884,-15.604 -7.357,-25.194 -7.357,-25.194 z"
   id="path92" />

			</g>

			<path
   style="fill:#ffffff;stroke:#491d00;stroke-miterlimit:10"
   d="m 325.649,153.527 c -21.934,18.08 -58.078,19.843 -82.369,18.576 l -0.027,-0.186 c -0.363,0.044 -0.725,0.086 -1.085,0.124 -6.801,-0.385 -12.603,-0.997 -16.824,-1.536 -4.105,-1.494 -7.774,-3.982 -10.827,-7.752 -5.814,-7.181 -9.847,-15.908 -9.867,-15.988 l -1.631,0.385 -8.234,1.708 c 0.307,1.178 -3.158,18.239 7.639,30.204 5.18,5.74 10.309,9.283 15.876,11.302 2.748,14.8 12.095,32.702 40.544,36.793 37.205,5.349 53.541,-27.71 53.541,-27.71 12.925,-1.328 9.234,-13.774 9.234,-13.774 8.727,-5.808 2.015,-14.44 2.015,-14.44 8.22,-6.635 2.015,-17.706 2.015,-17.706 z"
   id="path93" />

			<g
   id="g95">
				<path
   style="fill:#ffffff;stroke:#491d00;stroke-miterlimit:10"
   d="m 233.784,184.191 c 0,0 -0.798,-39.195 18.118,-39.226 18.916,-0.032 68.815,-20.611 73.069,-42.517 0,0 13.87,13.94 0,26.221 0,0 5.597,14.936 -6.489,19.584 0,0 3.144,21.163 -10.846,26.347 0,0 -2.244,19.792 -21.042,12.654 -10e-4,0 -18.68,24.908 -52.81,-3.063 z"
   id="path94" />

				<path
   style="fill:#491d00"
   d="m 324.971,102.448 c -0.017,0.087 -0.04,0.176 -0.06,0.263 2.279,5.173 3.131,12.501 -4.571,19.319 0,0 5.598,14.937 -6.486,19.584 0,0 3.141,21.163 -10.852,26.348 0,0 -2.24,19.791 -21.038,12.654 0,0 -16.982,22.642 -48.145,0.504 -0.056,1.915 -0.034,3.07 -0.034,3.07 34.13,27.971 52.809,3.063 52.809,3.063 18.799,7.138 21.042,-12.654 21.042,-12.654 13.99,-5.185 10.846,-26.347 10.846,-26.347 12.086,-4.648 6.489,-19.584 6.489,-19.584 13.869,-12.28 0,-26.22 0,-26.22 z"
   id="path95" />

			</g>

		</g>

		<path
   style="fill:#ffffff;stroke:#491d00;stroke-miterlimit:10"
   d="m 198.295,112.522 c -0.586,-1.04 -3.014,-4.881 -6.985,-5.061 0,0 1.818,1.88 1.132,3.708 0,0 -3.981,-2.508 -7.412,-0.158 0,0 4.286,1.081 4.022,3.272 0,0 0.004,0.002 0.005,0.003 -7.013,3.148 -11.894,10.128 -11.894,18.241 0,11.062 9.067,20.028 20.253,20.028 11.186,0 20.252,-8.966 20.252,-20.028 0.001,-10.769 -8.595,-19.55 -19.373,-20.005 z"
   id="path96" />

		<path
   style="fill:#491d00"
   d="m 195.643,127.713 c -0.028,0.259 0.346,0.321 0.466,0.125 0.917,-1.475 2.275,-2.264 4.013,-2.352 1.814,0.095 3.207,0.961 4.096,2.519 0.116,0.208 0.486,0.126 0.468,-0.126 -0.357,-5.624 -8.472,-5.77 -9.043,-0.166 z"
   id="path97" />

		<path
   style="fill:#491d00"
   d="m 179.956,126.197 c -0.02,0.213 0.287,0.264 0.387,0.102 0.757,-1.214 1.874,-1.865 3.305,-1.936 1.491,0.078 2.643,0.791 3.375,2.075 0.098,0.171 0.399,0.104 0.384,-0.104 -0.294,-4.633 -6.98,-4.754 -7.451,-0.137 z"
   id="path98" />

		<g
   id="g100">
			<path
   style="fill:#f7941d;stroke:#491d00;stroke-miterlimit:10"
   d="m 188.074,125.855 -88.708,9.29 91.616,2.408 c 0,0 7.16,-5.017 -2.908,-11.698 z"
   id="path99" />

			<path
   style="fill:#f7941d;stroke:#491d00;stroke-miterlimit:10"
   d="m 190.982,137.553 c 0,0 -4.253,5.611 -9.287,5.666 -5.036,0.055 -83.081,-8.064 -83.081,-8.064 z"
   id="path100" />

		</g>

		<g
   id="g107">
			<path
   style="fill:#f2eed3;stroke:#491d00;stroke-width:0.75;stroke-miterlimit:10"
   d="m 130.698,134.106 c 0,0 -0.41,37.766 -11.417,48.744 -11.01,10.979 -29.806,13.758 -15.031,35.627 14.772,21.869 62.063,12 60.778,-21.783 -1.283,-33.784 -30.997,-53.709 -30.992,-65.322 z"
   id="path101" />

			<path
   style="fill:#dedbc3"
   d="m 133.699,137.036 -3.008,2.462 c 0,0 0,0.102 -0.002,0.289 6.46,10.912 24.697,27.48 25.648,52.477 0.965,25.416 -28.608,35.791 -46.115,27.025 15.921,14.436 52.445,4.751 51.374,-23.449 -1.153,-30.414 -27.904,-48.349 -27.897,-58.804 z"
   id="path102" />

			<g
   id="g104">
				<path
   style="fill:#f2eed3;stroke:#491d00;stroke-width:0.75;stroke-miterlimit:10"
   d="m 133.499,137.731 c 0,0 -0.53,-7.941 4.063,-8.856 4.592,-0.915 3.875,-7.003 6.182,-9.609 2.307,-2.606 6.941,-7.51 9.517,-6.146 2.572,1.367 -3.729,4.541 -3.756,13.439 -0.025,8.897 -3.818,21.726 -16.006,11.172 z"
   id="path103" />

				<path
   style="fill:#f2eed3;stroke:#491d00;stroke-width:0.75;stroke-miterlimit:10"
   d="m 133.751,137.716 c 0,0 -0.533,-7.942 -5.206,-8.251 -4.678,-0.308 -4.776,-6.435 -7.413,-8.718 -2.631,-2.282 -7.88,-6.541 -10.25,-4.852 -2.369,1.69 4.301,4.013 5.513,12.831 1.209,8.818 6.682,21.04 17.356,8.99 z"
   id="path104" />

			</g>

			<g
   id="g106">
				<path
   style="fill:#dedbc3"
   d="m 136.508,132.059 c 0,0 4.954,-1.32 6.306,-6.623 0,0 1.4,2.361 -1.743,5.252 0,0 3.228,0.708 4.072,-0.574 0,0 -1.834,2.727 -4.244,2.656 0,0 4.003,4.186 2.927,6.633 0,0 -1.207,-4.138 -5.158,-4.109 z"
   id="path105" />

				<path
   style="fill:#dedbc3"
   d="m 130.178,132.474 c 0,0 -5.087,-0.663 -7.134,-5.744 0,0 -1.071,2.524 2.43,4.98 0,0 -3.106,1.122 -4.114,-0.038 0,0 2.182,2.462 4.56,2.079 0,0 -3.411,4.672 -2.017,6.957 0,0 0.645,-4.258 4.569,-4.746 z"
   id="path106" />

			</g>

			<path
   style="fill:#f2eed3;stroke:#491d00;stroke-width:0.75;stroke-miterlimit:10"
   d="m 139.396,135.858 c 0.215,3.206 -2.24,5.976 -5.482,6.189 -3.243,0.212 -6.046,-2.214 -6.258,-5.421 -0.215,-3.206 2.24,-5.974 5.481,-6.188 3.243,-0.21 6.046,2.216 6.259,5.42 z"
   id="path107" />

		</g>

		<path
   style="fill:#f7aebb"
   d="m 205.472,133.885 c 0,1.536 -2.2,2.783 -4.916,2.783 -2.714,0 -4.917,-1.247 -4.917,-2.783 0,-1.537 2.202,-2.783 4.917,-2.783 2.716,0 4.916,1.246 4.916,2.783 z"
   id="path108" />

	</g>

</g>
  </g>
</svg>
